<svg width="43" height="146" viewBox="0 0 43 146" fill="none" xmlns="http://www.w3.org/2000/svg">
<path d="M22.9822 129.546C22.9973 129.093 23.1052 128.648 23.2993 128.239C23.3748 128.071 23.5136 127.941 23.6853 127.876C23.7632 127.851 23.8443 127.838 23.926 127.837C24.0177 127.853 24.1094 127.86 24.2011 127.883C24.6078 128.036 24.9951 128.236 25.3551 128.479C25.7563 128.713 26.1614 128.953 26.6046 129.171C27.0683 129.397 27.5724 129.528 28.0873 129.557C28.6027 129.563 29.1127 129.451 29.5775 129.228C29.6005 129.217 29.6272 129.205 29.6501 129.194C27.5752 130.455 25.0418 131.231 22.9822 129.546Z" fill="#332941"/>
<path d="M39.234 114.356C38.8327 114.215 38.313 113.837 37.7055 112.965C36.1884 110.791 35.1911 113.099 35.1911 113.099C33.0818 116.359 30.835 114.567 30.3879 114.341C30.2983 114.305 30.2 114.295 30.1051 114.314C29.9797 114.328 29.8565 114.358 29.7383 114.402C28.9817 114.662 27.9041 115.445 27.843 116.546C27.7851 117.059 27.6322 117.556 27.3921 118.013C27.7371 117.815 28.1129 117.675 28.504 117.601C28.8884 117.521 29.2811 117.489 29.6733 117.505C30.0763 117.519 30.474 117.601 30.8503 117.746C31.0506 117.811 31.2358 117.916 31.3946 118.055C31.5535 118.193 31.6829 118.362 31.775 118.552C31.434 118.416 31.0719 118.341 30.7051 118.33C30.3535 118.304 29.9982 118.285 29.6351 118.269C29.2759 118.254 28.9091 118.231 28.5385 118.197C28.1521 118.166 27.7688 118.104 27.3921 118.013C27.0442 118.73 26.6445 119.421 26.1961 120.08C26.5055 119.851 26.8617 119.694 27.2393 119.618C27.6166 119.534 28.0056 119.515 28.3894 119.561C28.7805 119.603 29.1595 119.721 29.5053 119.909C29.856 120.091 30.1505 120.366 30.3574 120.703C29.9638 120.627 29.639 120.524 29.2989 120.474C28.9626 120.413 28.634 120.356 28.3016 120.317C27.629 120.233 26.9603 120.203 26.1885 120.088C25.8484 120.6 25.5847 120.944 25.5847 120.944C25.2638 121.288 24.9772 121.617 24.7097 121.938C25.0729 121.779 25.4606 121.683 25.8561 121.655C26.2509 121.622 26.6484 121.645 27.0368 121.724C27.438 121.798 27.8217 121.947 28.1679 122.163C28.5313 122.372 28.8099 122.702 28.955 123.095C28.6249 122.929 28.2776 122.8 27.9195 122.709C27.5832 122.614 27.2355 122.545 26.8877 122.472C26.149 122.346 25.4199 122.169 24.7058 121.941H24.702C24.6906 121.957 24.6791 121.968 24.6676 121.983C24.553 124.314 24.4957 126.194 24.4957 126.194C23.8378 127.017 22.9928 127.671 22.031 128.101C22.0835 128.46 22.2372 128.797 22.4742 129.072C22.6321 129.242 22.802 129.4 22.9825 129.545C22.8396 129.073 22.8303 128.571 22.9557 128.093C23.032 127.813 23.2161 127.574 23.4678 127.429C23.5995 127.353 23.745 127.305 23.8957 127.287C24.036 127.281 24.1766 127.286 24.3161 127.302C24.4459 127.329 24.5797 127.356 24.7058 127.39L25.0612 127.536C25.2905 127.635 25.4967 127.742 25.7069 127.845C26.1273 128.063 26.5247 128.3 26.926 128.479C27.2972 128.68 27.7061 128.8 28.1266 128.833C28.5471 128.866 28.9698 128.81 29.3676 128.67C30.2309 128.355 31.0667 127.969 31.8667 127.516C32.8679 126.531 33.6879 125.377 34.2893 124.108C35.8521 120.887 38.8174 119.259 40.1701 117.142C40.2006 117.096 40.2274 117.054 40.2542 117.008C40.3991 116.774 40.4879 116.51 40.5136 116.236C40.5394 115.962 40.5014 115.686 40.4025 115.429C40.3037 115.172 40.1468 114.942 39.9441 114.756C39.7414 114.569 39.4983 114.433 39.234 114.356ZM35.8216 116.867C35.6578 117.283 35.4663 117.688 35.2484 118.078C35.0352 118.472 34.7965 118.851 34.5339 119.213C34.2676 119.588 33.9627 119.934 33.6244 120.245C33.7066 119.793 33.8346 119.352 34.0065 118.926C34.1743 118.511 34.3657 118.105 34.5797 117.711C34.7939 117.318 35.0325 116.939 35.2943 116.576C35.5605 116.202 35.8653 115.856 36.2037 115.545C36.1221 115.997 35.9941 116.44 35.8216 116.867Z" fill="#332941"/>
<path d="M25.4931 36.974C25.2257 36.6167 24.8647 36.3403 24.4499 36.1754L24.446 36.1716C24.412 36.1548 24.3799 36.1343 24.3505 36.1104C24.646 36.9166 25.0936 37.6586 25.6688 38.2961C25.6802 38.2541 25.6879 38.2159 25.6955 38.1739C25.7439 37.9705 25.7509 37.7595 25.7162 37.5534C25.6814 37.3472 25.6055 37.1502 25.4931 36.974ZM25.4931 36.974C25.2257 36.6167 24.8647 36.3403 24.4499 36.1754L24.446 36.1716C24.412 36.1548 24.3799 36.1343 24.3505 36.1104C24.646 36.9166 25.0936 37.6586 25.6688 38.2961C25.6802 38.2541 25.6879 38.2159 25.6955 38.1739C25.7439 37.9705 25.7509 37.7595 25.7162 37.5534C25.6814 37.3472 25.6055 37.1502 25.4931 36.974ZM25.4931 36.974C25.2257 36.6167 24.8647 36.3403 24.4499 36.1754L24.446 36.1716C24.412 36.1548 24.3799 36.1343 24.3505 36.1104C24.646 36.9166 25.0936 37.6586 25.6688 38.2961C25.6802 38.2541 25.6879 38.2159 25.6955 38.1739C25.7439 37.9705 25.7509 37.7595 25.7162 37.5534C25.6814 37.3472 25.6055 37.1502 25.4931 36.974ZM25.4931 36.974C25.2257 36.6167 24.8647 36.3403 24.4499 36.1754L24.446 36.1716C24.412 36.1548 24.3799 36.1343 24.3505 36.1104C24.646 36.9166 25.0936 37.6586 25.6688 38.2961C25.6802 38.2541 25.6879 38.2159 25.6955 38.1739C25.7439 37.9705 25.7509 37.7595 25.7162 37.5534C25.6814 37.3472 25.6055 37.1502 25.4931 36.974ZM25.4931 36.974C25.2257 36.6167 24.8647 36.3403 24.4499 36.1754L24.446 36.1716C24.412 36.1548 24.3799 36.1343 24.3505 36.1104C24.646 36.9166 25.0936 37.6586 25.6688 38.2961C25.6802 38.2541 25.6879 38.2159 25.6955 38.1739C25.7439 37.9705 25.7509 37.7595 25.7162 37.5534C25.6814 37.3472 25.6055 37.1502 25.4931 36.974ZM25.4931 36.974C25.2257 36.6167 24.8647 36.3403 24.4499 36.1754L24.446 36.1716C24.412 36.1548 24.3799 36.1343 24.3505 36.1104C24.646 36.9166 25.0936 37.6586 25.6688 38.2961C25.6802 38.2541 25.6879 38.2159 25.6955 38.1739C25.7439 37.9705 25.7509 37.7595 25.7162 37.5534C25.6814 37.3472 25.6055 37.1502 25.4931 36.974ZM25.4931 36.974C25.2257 36.6167 24.8647 36.3403 24.4499 36.1754L24.446 36.1716C24.412 36.1548 24.3799 36.1343 24.3505 36.1104C24.646 36.9166 25.0936 37.6586 25.6688 38.2961C25.6802 38.2541 25.6879 38.2159 25.6955 38.1739C25.7439 37.9705 25.7509 37.7595 25.7162 37.5534C25.6814 37.3472 25.6055 37.1502 25.4931 36.974ZM25.4931 36.974C25.2257 36.6167 24.8647 36.3403 24.4499 36.1754L24.446 36.1716C24.412 36.1548 24.3799 36.1343 24.3505 36.1104C24.646 36.9166 25.0936 37.6586 25.6688 38.2961C25.6802 38.2541 25.6879 38.2159 25.6955 38.1739C25.7439 37.9705 25.7509 37.7595 25.7162 37.5534C25.6814 37.3472 25.6055 37.1502 25.4931 36.974ZM41.8515 36.3397C41.2821 28.1433 40.9421 24.5017 37.866 19.6106C34.7938 14.7157 24.1977 16.2938 24.1977 16.2938C19.2035 23.3363 16.0394 18.4948 16.0394 18.4948C14.4384 19.3355 13.6742 17.9675 13.6742 17.9675C4.61808 21.7887 4.86251 26.5499 4.86251 28.2579C4.86251 29.9659 4.29325 36.1104 4.29325 36.1104C2.81441 44.0776 4.29325 53.982 4.29325 54.6622C4.29325 55.3462 6.11594 64.1081 6.11594 64.1081C7.25073 65.3615 9.64289 63.9973 9.64289 63.9973C9.19957 61.1888 8.87983 58.3649 8.68368 55.5258C8.58051 54.1082 8.52714 52.6867 8.49262 51.2614C8.46967 49.8399 8.50791 48.3993 8.59207 46.9817C8.66845 45.5792 8.67225 44.1737 8.60345 42.7708C8.56147 41.3607 8.44672 39.9507 8.34373 38.5408C8.22898 37.1307 8.09147 35.7207 7.94632 34.3107C7.81254 32.8969 7.63679 31.4907 7.48006 30.0806C8.10733 32.8536 8.59201 35.6569 8.93222 38.4796C9.31716 41.3116 9.45774 44.1715 9.3524 47.0276C9.1576 49.84 9.20723 52.6638 9.27982 55.4953C9.37534 58.3267 9.49638 61.1608 9.6429 63.9974C24.6639 67.7498 37.5259 62.1747 37.5259 62.1747L36.5018 51.0207C36.0758 51.1594 35.6255 51.2075 35.1797 51.1621C34.7358 51.1231 34.2944 51.0593 33.8576 50.971C32.9926 50.78 32.1391 50.5401 31.3013 50.2526C29.6322 49.6804 27.9933 49.0236 26.391 48.2848C24.7938 47.5473 23.2169 46.7703 21.6604 45.9538L21.0758 45.6558L20.7854 45.5068L20.4835 45.331C20.0721 45.0933 19.7235 44.7605 19.4671 44.3604C19.2217 43.9567 19.1082 43.4866 19.1423 43.0154C19.1746 42.5669 19.3121 42.1322 19.5435 41.7467C19.3754 42.1342 19.3085 42.5582 19.3493 42.9786C19.3901 43.3991 19.5372 43.8022 19.7766 44.1502C20.2657 44.8151 21.1101 45.0444 21.9164 45.4189C23.529 46.1257 25.111 46.8709 26.7082 47.5893C28.2978 48.3191 29.8951 49.0299 31.5075 49.6948C32.3176 50.0196 33.1278 50.3405 33.9531 50.608C34.3662 50.7436 34.7857 50.8584 35.2103 50.9519C35.6328 51.055 36.0708 51.0783 36.5018 51.0207C42.0769 50.4513 42.4208 44.5323 41.8515 36.3397ZM20.0861 27.1689C20.4103 26.8399 20.7843 26.564 21.1943 26.3511C20.974 26.7568 20.6902 27.1244 20.3535 27.4402C20.0286 27.7683 19.6548 28.0441 19.2454 28.2579C19.4666 27.8529 19.7503 27.4854 20.0861 27.1689H20.0861ZM16.0816 26.3244C16.1413 25.8697 16.2728 25.4273 16.4712 25.0137C16.5402 25.4674 16.5363 25.9293 16.4598 26.3817C16.3996 26.8347 16.2694 27.2756 16.0739 27.6886C16.0056 27.2362 16.0082 26.776 16.0816 26.3244H16.0816ZM12.5125 26.5728C12.7598 26.9914 12.9427 27.4448 13.0551 27.9178C12.3703 27.2224 11.8802 26.3593 11.6337 25.415C11.9822 25.7554 12.2783 26.1456 12.5125 26.5728L12.5125 26.5728ZM33.1621 39.4234C32.2106 39.0336 31.2477 38.6667 30.2848 38.3038C28.9474 37.8032 27.6062 37.3103 26.261 36.825C26.4734 37.2947 26.5232 37.8217 26.4025 38.3229C26.2637 38.8639 26.0281 39.3752 25.707 39.8322C25.405 40.2744 25.0551 40.6819 24.6638 41.0474C23.9489 41.8147 23.1356 42.4841 22.2451 43.0382C22.0036 43.1748 21.7417 43.2716 21.4694 43.3248C21.3215 43.3499 21.1698 43.3408 21.026 43.2981C20.8781 43.2505 20.752 43.1516 20.6707 43.0191C20.5332 42.7802 20.4657 42.5074 20.4758 42.2319C20.4795 41.9722 20.5102 41.7135 20.5675 41.4601C20.5483 41.7149 20.556 41.9711 20.5905 42.2243C20.6123 42.4665 20.698 42.6986 20.8388 42.8968C20.9098 42.9754 21.003 43.0306 21.106 43.0552C21.209 43.0797 21.317 43.0725 21.4158 43.0344C21.6437 42.9654 21.8582 42.8581 22.0501 42.7172C22.2543 42.5764 22.4508 42.4246 22.6386 42.2625C19.4785 40.4054 19.3676 42.037 17.0406 41.7466C14.6639 41.4448 14.2512 36.4543 14.2512 36.4543C13.5923 36.4081 12.9422 36.2758 12.3177 36.0607C11.7626 35.8966 11.2699 35.569 10.9038 35.1207C10.4681 34.5705 10.3573 33.9476 12.543 34.2915L12.8182 34.3374L11.3585 30.0806H18.2519L19.7384 34.4826C19.8178 34.2926 19.8568 34.0881 19.8528 33.8822C19.8489 33.6763 19.8021 33.4734 19.7154 33.2866L19.3449 32.1861C19.3449 32.1861 22.5011 30.9327 23.7544 34.5743C23.9149 35.0443 24.0754 35.4608 24.2244 35.8238C24.2244 35.7685 24.2361 35.7138 24.2588 35.6634C24.2997 35.578 24.3708 35.5109 24.4583 35.4749C24.5458 35.4389 24.6435 35.4366 24.7326 35.4685C26.6852 36.1677 28.6149 36.9129 30.5102 37.7497C31.1446 38.0287 31.7738 38.3216 32.3979 38.6286C32.3597 37.6771 32.2106 36.76 32.0846 35.8315L31.6566 32.9503C31.5228 31.9874 31.3853 31.0244 31.2821 30.0538C31.1713 29.0833 31.0758 28.1089 31.0375 27.1192C31.3753 28.0439 31.6523 28.9898 31.8668 29.9507C32.0922 30.906 32.2642 31.8727 32.4132 32.8433C32.5523 33.8163 32.6415 34.7958 32.6806 35.778C32.7382 36.7405 32.6532 37.7062 32.4285 38.6438C32.7265 38.789 33.0246 38.9304 33.3188 39.0833C34.2478 39.5454 35.1406 40.0768 35.9898 40.6729C35.0651 40.2067 34.1174 39.8055 33.1621 39.4234L33.1621 39.4234ZM24.4499 36.1754L24.446 36.1716C24.412 36.1548 24.3799 36.1343 24.3505 36.1104C24.646 36.9166 25.0935 37.6586 25.6688 38.2961C25.6802 38.2541 25.6879 38.2159 25.6955 38.1739C25.7439 37.9705 25.7509 37.7595 25.7161 37.5534C25.6814 37.3472 25.6055 37.1502 25.4931 36.974C25.2257 36.6167 24.8646 36.3403 24.4499 36.1754L24.4499 36.1754ZM25.4931 36.974C25.2257 36.6167 24.8646 36.3403 24.4499 36.1754L24.446 36.1716C24.412 36.1548 24.3799 36.1343 24.3505 36.1104C24.646 36.9166 25.0935 37.6586 25.6688 38.2961C25.6802 38.2541 25.6879 38.2159 25.6955 38.1739C25.7439 37.9705 25.7509 37.7595 25.7162 37.5534C25.6814 37.3473 25.6055 37.1502 25.4931 36.974H25.4931ZM25.4931 36.974C25.2257 36.6167 24.8646 36.3403 24.4499 36.1754L24.446 36.1716C24.412 36.1548 24.3799 36.1343 24.3505 36.1104C24.646 36.9166 25.0935 37.6586 25.6688 38.2961C25.6802 38.2541 25.6879 38.2159 25.6955 38.1739C25.7439 37.9705 25.7509 37.7595 25.7162 37.5534C25.6814 37.3473 25.6055 37.1502 25.4931 36.974H25.4931ZM25.4931 36.974C25.2257 36.6167 24.8646 36.3403 24.4499 36.1754L24.446 36.1716C24.412 36.1548 24.3799 36.1343 24.3505 36.1104C24.646 36.9166 25.0935 37.6586 25.6688 38.2961C25.6802 38.2541 25.6879 38.2159 25.6955 38.1739C25.7439 37.9705 25.7509 37.7595 25.7162 37.5534C25.6814 37.3473 25.6055 37.1502 25.4931 36.974H25.4931ZM25.4931 36.974C25.2257 36.6167 24.8646 36.3403 24.4499 36.1754L24.446 36.1716C24.412 36.1548 24.3799 36.1343 24.3505 36.1104C24.646 36.9166 25.0935 37.6586 25.6688 38.2961C25.6802 38.2541 25.6879 38.2159 25.6955 38.1739C25.7439 37.9705 25.7509 37.7595 25.7162 37.5534C25.6814 37.3473 25.6055 37.1502 25.4931 36.974H25.4931ZM25.4931 36.974C25.2257 36.6167 24.8646 36.3403 24.4499 36.1754L24.446 36.1716C24.412 36.1548 24.3799 36.1343 24.3505 36.1104C24.646 36.9166 25.0935 37.6586 25.6688 38.2961C25.6802 38.2541 25.6879 38.2159 25.6955 38.1739C25.7439 37.9705 25.7509 37.7595 25.7162 37.5534C25.6814 37.3473 25.6055 37.1502 25.4931 36.974H25.4931ZM25.4931 36.974C25.2257 36.6167 24.8646 36.3403 24.4499 36.1754L24.446 36.1716C24.412 36.1548 24.3799 36.1343 24.3505 36.1104C24.646 36.9166 25.0935 37.6586 25.6688 38.2961C25.6802 38.2541 25.6879 38.2159 25.6955 38.1739C25.7439 37.9705 25.7509 37.7595 25.7162 37.5534C25.6814 37.3473 25.6055 37.1502 25.4931 36.974H25.4931Z" fill="#332941"/>
<path d="M11.1789 8.3999C11.3344 10.1152 11.6006 11.8186 11.9757 13.4996C12.1638 14.3224 12.423 15.1274 12.7505 15.9053C13.0352 16.6562 13.5068 17.322 14.1206 17.8397C14.41 18.0668 14.7579 18.2072 15.1239 18.2446C15.4898 18.282 15.8589 18.2148 16.1882 18.0509C16.95 17.6892 17.6823 17.2683 18.3783 16.7923C18.7249 16.5536 19.0564 16.294 19.3711 16.0147C19.6808 15.7512 19.9341 15.428 20.1159 15.0643C20.3046 14.6941 20.4215 14.2914 20.4604 13.8776C20.4942 13.4505 20.5271 13.0139 20.5684 12.5825C20.6079 13.0163 20.6469 13.445 20.6722 13.8831C20.6926 14.3411 20.6187 14.7984 20.4551 15.2267C20.2915 15.655 20.0417 16.0451 19.7212 16.3729C19.4143 16.6956 19.0844 16.9957 18.7341 17.2708C18.0351 17.8199 17.2851 18.3007 16.4944 18.7066C16.0462 18.9258 15.5481 19.023 15.0504 18.9885C14.5449 18.9492 14.0622 18.7621 13.6622 18.4506C12.9459 17.8474 12.4018 17.0656 12.085 16.1844C11.7663 15.3553 11.5346 14.4954 11.3936 13.6184C11.1074 11.8944 11.0353 10.1416 11.1789 8.3999Z" fill="#332941"/>
<path d="M15.4874 32.9535C15.6718 32.9471 15.8465 32.8694 15.9747 32.7367C16.1029 32.604 16.1745 32.4267 16.1745 32.2422C16.1745 32.0577 16.1029 31.8804 15.9747 31.7477C15.8465 31.615 15.6718 31.5373 15.4874 31.5309C15.303 31.5373 15.1283 31.615 15.0001 31.7477C14.8719 31.8804 14.8003 32.0577 14.8003 32.2422C14.8003 32.4267 14.8719 32.604 15.0001 32.7367C15.1283 32.8694 15.303 32.9471 15.4874 32.9535Z" fill="#332941"/>
<path d="M20.5684 10.0239C20.5684 10.0239 21.1208 7.43392 22.2576 8.15071C22.4455 8.27788 22.6 8.44833 22.7083 8.64772C22.8165 8.84712 22.8753 9.06961 22.8796 9.29645C22.9204 10.1692 22.9182 11.775 22.361 11.8988C22.361 11.8988 23.6011 14.9579 23.7218 6.99914C23.727 6.69363 23.7084 6.38817 23.6663 6.08554C23.4685 4.69098 22.6932 1.0152 20.0562 1.57034C20.0562 1.57034 15.9875 -1.41723 12.3455 2.68001C11.9392 3.1211 11.5086 3.53906 11.0556 3.93194C10.7935 4.14875 10.582 4.42038 10.4362 4.72772C10.2904 5.03505 10.2137 5.37062 10.2115 5.7108V5.73754C10.2115 6.70075 9.97733 7.64952 9.52917 8.50212L9.04492 9.42337C9.04492 9.42337 10.5245 10.401 12.3455 6.49781C12.3455 6.49781 13.1137 4.38718 15.1339 5.41149C15.1339 5.41149 17.7516 3.44823 18.7759 5.32613C18.7759 5.32613 19.0678 5.74795 19.4028 6.25638C19.8308 6.90861 20.0882 7.65783 20.1516 8.43538L20.5684 10.0239Z" fill="#332941"/>
<path d="M22.8418 12.4753C22.7994 12.8134 22.8317 13.1566 22.9364 13.4808C23.0295 13.8042 23.1467 14.1203 23.2868 14.4263C23.4222 14.7373 23.5783 15.0413 23.7325 15.3505C23.8892 15.659 24.0545 15.9649 24.1955 16.2959C23.9282 16.06 23.6877 15.7953 23.4785 15.5067C23.3682 15.3662 23.2822 15.2092 23.1832 15.0602C23.097 14.9032 23.0133 14.7443 22.9376 14.5809C22.7876 14.2489 22.6887 13.8961 22.6443 13.5346C22.5805 13.1692 22.6507 12.7931 22.8418 12.4753Z" fill="#332941"/>
<path d="M11.178 10.4645C11.3794 10.2294 11.6437 10.0566 11.9399 9.96648C12.2341 9.86999 12.543 9.82631 12.8524 9.83746C13.1579 9.85017 13.4599 9.90745 13.7489 10.0075C13.8905 10.0594 14.0294 10.1185 14.165 10.1846C14.2966 10.2583 14.4238 10.3396 14.546 10.428C14.3929 10.4158 14.2488 10.3877 14.1053 10.3625L13.678 10.2971C13.4001 10.2562 13.1202 10.2302 12.8395 10.2191C12.2747 10.1875 11.7095 10.2709 11.178 10.4645Z" fill="#332941"/>
<path d="M15.1338 10.3334C15.408 10.1341 15.7137 9.98204 16.0381 9.88362C16.3649 9.77573 16.7069 9.72098 17.0511 9.72144C17.4051 9.72081 17.7544 9.80141 18.0723 9.95704C18.3824 10.122 18.6296 10.3844 18.7758 10.7037C18.5316 10.4996 18.2537 10.3397 17.9546 10.231C17.6602 10.1447 17.3549 10.1017 17.0481 10.1033C16.7323 10.1015 16.4169 10.1249 16.1048 10.1731C15.7866 10.2187 15.4662 10.2749 15.1338 10.3334Z" fill="#332941"/>
<path d="M12.8857 12.09C13.0343 12.0848 13.175 12.0222 13.2783 11.9153C13.3816 11.8083 13.4394 11.6655 13.4394 11.5168C13.4394 11.3681 13.3816 11.2253 13.2783 11.1184C13.175 11.0114 13.0343 10.9488 12.8857 10.9436C12.7371 10.9488 12.5963 11.0114 12.4931 11.1184C12.3898 11.2253 12.332 11.3681 12.332 11.5168C12.332 11.6655 12.3898 11.8083 12.4931 11.9153C12.5963 12.0222 12.7371 12.0848 12.8857 12.09Z" fill="#332941"/>
<path d="M15.9589 12.09C16.1075 12.0848 16.2483 12.0222 16.3516 11.9153C16.4549 11.8083 16.5126 11.6655 16.5126 11.5168C16.5126 11.3681 16.4549 11.2253 16.3516 11.1184C16.2483 11.0114 16.1075 10.9488 15.9589 10.9436C15.8104 10.9488 15.6696 11.0114 15.5663 11.1184C15.463 11.2253 15.4053 11.3681 15.4053 11.5168C15.4053 11.6655 15.463 11.8083 15.5663 11.9153C15.6696 12.0222 15.8104 12.0848 15.9589 12.09Z" fill="#332941"/>
<path d="M13.0562 13.0081C13.0779 13.1637 13.1356 13.3121 13.2247 13.4414C13.2638 13.4821 13.3113 13.5138 13.3638 13.5344C13.4163 13.5551 13.4727 13.5641 13.529 13.5609C13.6811 13.5631 13.8332 13.5549 13.9842 13.5365C14.1577 13.5148 14.3326 13.5062 14.5073 13.511C14.3789 13.6479 14.2237 13.7569 14.0512 13.831C13.8788 13.9052 13.6929 13.943 13.5052 13.9421C13.3939 13.932 13.2856 13.9004 13.1864 13.849C13.0825 13.7871 13.0029 13.6915 12.961 13.578C12.9276 13.4827 12.9188 13.3805 12.9355 13.2809C12.9521 13.1812 12.9936 13.0874 13.0562 13.0081Z" fill="#332941"/>
<path d="M13.0303 14.6735C13.1885 14.918 13.3843 15.1359 13.6104 15.3193C13.8133 15.4759 14.0669 15.5519 14.3224 15.5327C14.5928 15.5018 14.8545 15.4183 15.0927 15.2869C15.215 15.2112 15.3507 15.1521 15.4766 15.0727C15.6036 14.9944 15.7311 14.9141 15.873 14.8442C15.7875 14.9737 15.695 15.0983 15.5959 15.2176C15.4888 15.3322 15.3741 15.4394 15.2526 15.5386C14.9935 15.7485 14.6791 15.8788 14.3475 15.9138C14.173 15.9256 13.9981 15.898 13.8357 15.833C13.6733 15.768 13.5277 15.6672 13.4096 15.5382C13.1927 15.2987 13.0596 14.9952 13.0303 14.6735Z" fill="#332941"/>
<path d="M16.0013 36.781C16.1963 37.322 16.315 37.855 16.4568 38.3782C16.5222 38.641 16.6011 38.8961 16.6858 39.1478C16.7634 39.407 16.8937 39.6473 17.0684 39.8539C16.786 39.7517 16.5531 39.5456 16.4174 39.2777C16.2711 39.0269 16.1601 38.7572 16.0876 38.4761C15.9381 37.9237 15.9087 37.3457 16.0013 36.781Z" fill="#332941"/>
<path d="M14.252 36.453C14.5988 36.4789 14.9367 36.576 15.2444 36.7381C15.5586 36.8876 15.8382 37.1009 16.0653 37.3645C15.7183 37.3394 15.3803 37.2423 15.0729 37.0793C14.7591 36.9292 14.4797 36.716 14.252 36.453Z" fill="#332941"/>
<path d="M14.5698 38.3174C14.8801 38.2534 15.2008 38.2603 15.508 38.3376C15.8184 38.4017 16.11 38.5359 16.3605 38.7299C16.0503 38.7947 15.7294 38.7878 15.4223 38.7097C15.1122 38.6448 14.8208 38.5107 14.5698 38.3174Z" fill="#332941"/>
<path d="M15.0754 39.8546C15.3906 39.8234 15.7088 39.8638 16.0062 39.9728C16.3081 40.0691 16.5839 40.233 16.8128 40.4521C16.4976 40.4842 16.1792 40.4437 15.8819 40.3339C15.5804 40.2369 15.3047 40.0731 15.0754 39.8546Z" fill="#332941"/>
<path d="M10.025 64.0782L10.9495 72.1751C11.2546 74.8739 11.5778 77.5702 11.9189 80.2639C12.2585 82.9573 12.5982 85.6506 13.0075 88.3312C13.2125 89.671 13.4297 91.0089 13.685 92.3356C13.8135 92.9982 13.953 93.6591 14.1089 94.3096C14.2362 94.9419 14.4375 95.557 14.7089 96.1422L14.7207 96.1646C14.751 96.2218 14.7634 96.2868 14.7563 96.3512C14.4851 98.8395 14.2402 101.33 13.946 103.816L13.0916 111.277C12.8046 113.763 12.5174 116.25 12.2567 118.739C11.9915 121.228 11.7119 123.716 11.4737 126.207L11.419 126.092C12.4326 126.717 13.5056 127.241 14.6223 127.656C15.7307 128.085 16.892 128.363 18.0747 128.481C19.2451 128.607 20.4289 128.468 21.5383 128.074C22.6395 127.679 23.6043 126.976 24.3184 126.05L24.2668 126.188C24.3388 124.043 24.372 121.895 24.4969 119.751C24.5557 118.679 24.6216 117.606 24.7131 116.533C24.7578 115.996 24.8107 115.459 24.8774 114.92C24.9317 114.359 25.0407 113.804 25.2029 113.263C25.227 113.191 25.2762 113.13 25.3415 113.091C25.4069 113.052 25.4841 113.037 25.5592 113.05L25.5897 113.056C26.538 113.214 27.5009 113.269 28.4611 113.218C29.4198 113.174 30.3689 113.007 31.2851 112.721C32.1892 112.437 33.035 111.993 33.7822 111.41C34.5187 110.823 35.1333 110.097 35.5916 109.273L35.5786 109.632C33.2166 104.695 30.9173 99.7278 28.5836 94.777C28.5453 94.695 28.5368 94.6021 28.5595 94.5145C29.2305 91.921 29.9043 89.3221 30.5378 86.7159C31.179 84.1107 31.7781 81.4958 32.3617 78.8777C32.9514 76.2608 33.4961 73.6338 33.9743 70.9952C34.4961 68.364 34.8706 65.7057 35.0959 63.0327C35.0966 63.0228 35.1012 63.0136 35.1087 63.007C35.1161 63.0004 35.1258 62.997 35.1358 62.9974C35.1457 62.9979 35.155 63.0022 35.1618 63.0094C35.1687 63.0167 35.1724 63.0263 35.1722 63.0362C35.0418 65.7228 34.7584 68.3997 34.3235 71.0539C33.908 73.7102 33.4257 76.3555 32.8982 78.9909C32.3709 81.6265 31.7959 84.252 31.1965 86.8716C30.5913 89.4904 29.9857 92.1071 29.3052 94.7107L29.281 94.4483C31.6143 99.3994 33.9818 104.334 36.2868 109.299L36.2896 109.305C36.3152 109.361 36.3271 109.422 36.3244 109.483C36.3216 109.545 36.3043 109.604 36.2738 109.658C35.7587 110.565 35.0714 111.363 34.2505 112.007C33.4281 112.639 32.4989 113.118 31.5071 113.421C30.5287 113.718 29.5161 113.888 28.4943 113.926C27.4753 113.973 26.4542 113.906 25.4504 113.724L25.837 113.516C25.6904 114.003 25.5881 114.502 25.5312 115.007C25.4586 115.531 25.3986 116.061 25.3467 116.591C25.2407 117.653 25.1596 118.72 25.0856 119.787C25.0147 120.855 24.9421 121.924 24.8914 122.993L24.7251 126.202L24.7246 126.209C24.7222 126.257 24.7042 126.303 24.6733 126.34C23.8901 127.308 22.8486 128.035 21.6695 128.436C20.5032 128.826 19.2639 128.949 18.0436 128.795C16.8387 128.649 15.657 128.352 14.5263 127.91C13.3947 127.481 12.3083 126.941 11.2832 126.298C11.2643 126.285 11.2492 126.268 11.2395 126.248C11.2298 126.227 11.226 126.204 11.2285 126.182C11.5023 123.694 11.7347 121.202 11.9815 118.711C12.233 116.221 12.4577 113.728 12.6828 111.235L13.3645 103.756C13.5824 101.263 13.8494 98.774 14.0903 96.2827L14.1377 96.4916C13.8226 95.8503 13.5896 95.1718 13.4442 94.4722C13.2743 93.804 13.1504 93.1317 13.0229 92.4606C12.7769 91.1173 12.571 89.7713 12.3772 88.4241C11.9953 85.7292 11.6595 83.0305 11.3697 80.328C11.0847 77.6245 10.8209 74.9194 10.5782 72.2129C10.35 69.5048 10.1236 66.797 9.94881 64.0848C9.94817 64.0749 9.95146 64.065 9.95797 64.0575C9.96449 64.0499 9.97371 64.0451 9.98366 64.0443C9.99362 64.0434 10.0035 64.0465 10.0112 64.0528C10.019 64.0591 10.0239 64.0682 10.025 64.0782L10.025 64.0782Z" fill="#332941"/>
<path d="M18.0005 65.2325C17.7651 68.569 17.4814 71.8999 17.1494 75.2253C16.8279 78.5518 16.462 81.8733 16.0875 85.1938C15.6988 88.5126 15.3006 91.8303 14.8581 95.143C14.4265 98.4569 13.9457 101.765 13.4158 105.068C13.6502 101.731 13.9335 98.4001 14.2657 95.0748C14.5874 91.7482 14.9533 88.4268 15.3288 85.1064C15.7184 81.7877 16.1166 78.4699 16.5592 75.1573C16.9912 71.8435 17.4717 68.5352 18.0005 65.2325Z" fill="#332941"/>
<path d="M24.7048 121.273C24.7681 118.659 24.9422 116.049 25.1988 113.448C25.444 110.845 25.7866 108.252 26.1949 105.668C26.4004 104.376 26.6426 103.089 26.8864 101.804C27.1685 100.525 27.4152 99.2386 27.762 97.9736C28.3595 95.4195 29.2302 92.9372 30.3592 90.5695C30.1578 91.1933 29.9505 91.8117 29.7373 92.4248L29.2209 94.308C28.9068 95.5707 28.5979 96.8328 28.3428 98.1089C27.8108 100.654 27.3462 103.214 26.9489 105.789C26.5276 108.358 26.1541 110.937 25.7887 113.518L24.7048 121.273Z" fill="#332941"/>
<path d="M14.4221 68.6625C14.9627 68.6986 15.4986 68.7858 16.0227 68.9229C16.5401 69.0501 17.0502 69.2056 17.5505 69.3889C18.0515 69.5718 18.5415 69.7833 19.0182 70.0225C19.5082 70.2572 19.9707 70.5454 20.3973 70.8818C19.8607 70.8222 19.3294 70.7216 18.8082 70.5807C18.2936 70.4481 17.7861 70.2897 17.2874 70.1061C16.7881 69.923 16.2985 69.7145 15.8204 69.4815C15.3305 69.2514 14.8625 68.9772 14.4221 68.6625Z" fill="#fc4100"/>
<path d="M27.2261 100.735C27.8592 101.632 28.4171 102.579 28.8942 103.568C29.381 104.55 29.814 105.557 30.1913 106.586C30.3795 107.101 30.5483 107.622 30.718 108.143C30.8636 108.672 31.0343 109.193 31.1502 109.73C31.419 110.794 31.6014 111.878 31.6957 112.972C31.2913 111.948 30.9506 110.919 30.5788 109.9C30.2137 108.881 29.8542 107.862 29.4743 106.849C29.1111 105.831 28.7245 104.821 28.3491 103.804C27.9693 102.788 27.5898 101.772 27.2261 100.735Z" fill="#fc4100"/>
<path d="M22.8429 127.671C22.2496 122.258 22.5331 116.787 23.0021 111.371C23.4947 105.946 24.326 100.556 25.4912 95.2336C26.0941 92.577 26.7747 89.9404 27.5328 87.3236C28.2924 84.717 29.0045 82.0989 29.7306 79.4838C30.4455 76.8661 31.1252 74.2384 31.7373 71.5955C32.3962 68.9624 32.8902 66.2908 33.2165 63.5962C33.1541 64.9552 33.0154 66.3097 32.8009 67.6532C32.6058 69.0001 32.3547 70.3372 32.1036 71.6745C31.564 74.341 30.9468 76.9904 30.2995 79.6316C29.6619 82.2755 28.9273 84.8945 28.2019 87.5137C27.4711 90.1235 26.8159 92.7521 26.2363 95.3996C25.6351 98.0409 25.1165 100.699 24.6805 103.374C24.4599 104.71 24.2809 106.055 24.0886 107.396C23.9229 108.741 23.7338 110.084 23.5842 111.431C23.2711 114.124 23.0347 116.827 22.8972 119.535C22.7212 122.243 22.703 124.96 22.8429 127.671Z" fill="#fc4100"/>
<path d="M6.1139 64.1105C6.3544 65.4298 6.56021 66.7471 6.7827 68.0587C7.00314 69.3692 7.23226 70.6788 7.53294 71.9516C7.61298 72.2671 7.69554 72.5828 7.79909 72.8825C7.8839 73.1686 8.00273 73.4435 8.15304 73.7013C8.18158 73.7484 8.21545 73.792 8.25398 73.8314C8.29549 73.8763 8.37778 73.9431 8.43505 73.9983L8.8042 74.3455C9.02737 74.5708 9.26193 74.7845 9.50696 74.9857C9.55371 75.0222 9.60363 75.0544 9.65613 75.0819C9.66956 75.0886 9.69223 75.0969 9.67442 75.0926C9.64078 75.0956 9.60827 75.1062 9.57927 75.1235C9.50212 75.1872 9.54223 75.1927 9.54401 75.1343C9.55388 75.0728 9.55771 75.0104 9.55547 74.9481C9.54495 74.6333 9.50778 74.32 9.44436 74.0115C9.31804 73.3695 9.17429 72.7196 9.01663 72.0729L9.01233 72.0552C9.00266 72.0154 9.00712 71.9736 9.02493 71.9367C9.04274 71.8999 9.0728 71.8704 9.10996 71.8533C9.14713 71.8362 9.18908 71.8325 9.22864 71.843C9.2682 71.8534 9.30291 71.8772 9.32682 71.9104C9.49972 72.186 9.75368 72.4013 10.0538 72.5267C10.1273 72.5469 10.205 72.5458 10.2778 72.5234C10.3506 72.501 10.4155 72.4583 10.465 72.4003C10.5256 72.3401 10.5788 72.2729 10.6233 72.1999L10.7405 71.9618L10.6725 72.2227C10.641 72.31 10.5991 72.3933 10.5476 72.4706C10.4926 72.5576 10.4143 72.6275 10.3216 72.6723C10.229 72.7172 10.1256 72.7353 10.0232 72.7245C9.82595 72.6988 9.63854 72.6231 9.47877 72.5045C9.32152 72.3961 9.17667 72.2706 9.04684 72.1305L9.35694 71.9681C9.59072 72.5966 9.81844 73.2288 9.99476 73.8863C10.0926 74.2254 10.1608 74.5723 10.1984 74.9232C10.2071 75.0274 10.2049 75.1321 10.192 75.2358C10.1855 75.3236 10.1601 75.4089 10.1175 75.4859C10.075 75.5629 10.0163 75.6298 9.94544 75.682C9.84763 75.7476 9.7298 75.7765 9.61276 75.7636C9.57098 75.7614 9.52965 75.7539 9.48981 75.7412C9.45624 75.7326 9.42337 75.7215 9.39148 75.708C9.29246 75.6658 9.19805 75.6135 9.10974 75.552C8.82602 75.3467 8.55636 75.1227 8.30259 74.8814L7.93755 74.5488C7.87364 74.4895 7.82383 74.4534 7.74826 74.3797C7.66687 74.3031 7.59476 74.2172 7.53341 74.1238C7.18024 73.503 6.93439 72.8271 6.80622 72.1245C6.65201 71.4611 6.54026 70.7956 6.45115 70.1287C6.35507 69.4629 6.29051 68.7947 6.23463 68.1268C6.1222 66.7912 6.08189 65.4505 6.1139 64.1105Z" fill="#fc4100"/>
<path d="M9.02186 72.1168C8.86144 71.7939 8.72115 71.4614 8.60177 71.1212C8.48262 70.7846 8.3827 70.4415 8.3025 70.0936C8.13476 69.4024 8.08742 68.6875 8.16256 67.9802C8.15114 68.6813 8.26078 69.3792 8.48665 70.043C8.5951 70.3734 8.72221 70.6974 8.86737 71.0133C9.01016 71.3266 9.17197 71.6308 9.35192 71.9243L9.35528 71.9296C9.38211 71.9727 9.39072 72.0247 9.37922 72.0741C9.36772 72.1236 9.33705 72.1664 9.29396 72.1932C9.25088 72.2201 9.19889 72.2287 9.14946 72.2172C9.10002 72.2057 9.05717 72.175 9.03035 72.1319C9.02736 72.1271 9.02438 72.1218 9.02186 72.1168Z" fill="#fc4100"/>
<path d="M27.9302 64.7093C28.3508 65.9113 28.879 67.0729 29.5082 68.18C29.8276 68.7067 30.1988 69.2002 30.6161 69.6532C31.0633 70.1088 31.5536 70.52 32.08 70.881C31.4049 70.7811 30.7658 70.5127 30.2217 70.1006C29.6742 69.683 29.2105 69.1658 28.8549 68.5761C28.509 67.9923 28.2515 67.3605 28.0908 66.7013C27.9203 66.052 27.8659 65.3776 27.9302 64.7093Z" fill="#fc4100"/>
<path d="M1.14868 142.607C1.33893 142.16 1.60818 141.751 1.94352 141.399C2.07982 141.256 2.26535 141.168 2.46314 141.155C2.64737 141.164 2.8234 141.234 2.96374 141.354C3.29625 141.678 3.58872 142.041 3.83488 142.435C4.11774 142.84 4.40806 143.253 4.7329 143.658C5.07292 144.085 5.49194 144.443 5.96714 144.712C6.45927 144.964 7.00827 145.084 7.56054 145.06C7.74195 145.06 7.92318 145.049 8.10311 145.026C5.49713 145.538 2.52807 145.37 1.14868 142.607Z" fill="#332941"/>
<path d="M22.853 133.838C22.5206 133.521 22.1728 132.906 21.936 131.744C21.336 128.84 19.4598 130.804 19.4598 130.804C16.5051 133.458 15.9131 131.051 14.3356 130.036C13.876 129.74 11.6914 129.696 11.0073 131.232C10.749 131.729 10.4049 132.177 9.99085 132.554C10.4096 132.519 10.8313 132.55 11.2404 132.646C11.648 132.739 12.043 132.88 12.4173 133.066C12.8019 133.256 13.1519 133.51 13.4529 133.815C13.7805 134.12 13.9754 134.541 13.9956 134.988C13.7304 134.701 13.4175 134.462 13.0707 134.281C12.7459 134.094 12.4136 133.918 12.0697 133.746C11.7257 133.575 11.3818 133.395 11.0303 133.208C10.6696 133.013 10.3223 132.795 9.99086 132.554H9.98713C9.36892 133.149 8.70591 133.696 8.00397 134.19C8.40559 134.101 8.82183 134.102 9.2229 134.194C9.62653 134.28 10.0128 134.434 10.3655 134.648C10.7242 134.863 11.0382 135.144 11.2902 135.477C11.5455 135.807 11.7125 136.196 11.7755 136.609C11.4354 136.36 11.1678 136.108 10.8622 135.902C10.5746 135.686 10.2762 135.486 9.96809 135.302C9.35666 134.92 8.71464 134.602 8.00395 134.19H8.00006C7.46905 134.572 7.08303 134.816 7.08303 134.816C6.63598 135.038 6.22325 135.256 5.8374 135.474C6.26257 135.481 6.68306 135.564 7.07928 135.718C7.47936 135.862 7.85647 136.062 8.19877 136.314C8.55584 136.563 8.86305 136.877 9.10443 137.239C9.36107 137.604 9.49004 138.043 9.47127 138.489C9.22804 138.175 8.95269 137.889 8.64974 137.633C8.36689 137.38 8.05754 137.159 7.748 136.93C7.13266 136.471 6.47925 136.051 5.83741 135.474H5.83351C-0.356681 138.951 0.850696 141.901 0.850696 141.901C0.934063 142.143 1.03368 142.379 1.14885 142.608C1.19825 142.089 1.37543 141.59 1.66456 141.156C1.83897 140.903 2.10242 140.726 2.40211 140.659C2.48263 140.643 2.56472 140.637 2.64672 140.64L2.88368 140.682C3.02991 140.729 3.17074 140.792 3.30386 140.869L3.64026 141.125C3.73953 141.221 3.8274 141.32 3.92293 141.419C4.11026 141.618 4.25169 141.809 4.41587 142.008C4.72538 142.405 5.01196 142.806 5.32152 143.169C5.57915 143.54 5.91622 143.849 6.30818 144.073C6.70014 144.297 7.13713 144.431 7.58735 144.465C8.56584 144.514 9.54679 144.461 10.5144 144.308H10.5183C11.8876 143.705 13.1378 142.861 14.2095 141.817C16.9951 139.15 20.4992 138.729 22.6467 137.121C22.6926 137.086 22.7345 137.052 22.7804 137.017C23.0151 136.827 23.2055 136.587 23.3386 136.316C23.4716 136.044 23.5441 135.747 23.551 135.445C23.5579 135.142 23.4991 134.842 23.3786 134.565C23.258 134.287 23.0787 134.039 22.853 133.838ZM18.5657 134.939C17.9155 135.648 17.1845 136.279 16.3876 136.819C15.9851 137.1 15.5549 137.339 15.1037 137.533C15.3621 137.116 15.6616 136.725 15.9978 136.368C16.3239 136.014 16.6696 135.678 17.0334 135.363C17.396 135.048 17.7776 134.756 18.176 134.488C18.5775 134.205 19.0079 133.965 19.4599 133.773C19.2014 134.191 18.9019 134.581 18.5657 134.939Z" fill="#332941"/>
<path d="M13.9956 127.558C14.0498 128.099 14.0321 128.645 13.9431 129.181C13.8702 129.72 13.7256 130.247 13.5129 130.747C13.4579 130.206 13.4756 129.66 13.5655 129.124C13.6392 128.585 13.7838 128.059 13.9956 127.558Z" fill="#332941"/>
<path d="M20.6874 131.632C20.6629 131.069 20.7105 130.506 20.8288 129.956C20.931 129.403 21.1044 128.865 21.3446 128.356C21.3699 128.918 21.3224 129.482 21.2032 130.032C21.1002 130.585 20.9269 131.122 20.6874 131.632Z" fill="#332941"/>
<path d="M30.5521 115.992C30.2298 115.49 29.9572 114.958 29.7382 114.403C29.7039 114.311 29.6657 114.215 29.6274 114.12C29.551 113.914 29.4746 113.707 29.4058 113.497C29.5242 113.482 29.6427 113.466 29.7612 113.447C29.8376 113.623 29.9102 113.803 29.9829 113.982C30.0248 114.093 30.0669 114.204 30.1051 114.315C30.3089 114.858 30.4586 115.42 30.5521 115.992Z" fill="#332941"/>
<path d="M35.1689 110.577C35.5052 110.941 35.787 111.351 36.0053 111.796C36.238 112.233 36.4052 112.702 36.5016 113.187C36.1646 112.825 35.8828 112.414 35.6651 111.969C35.4333 111.532 35.2661 111.063 35.1689 110.577Z" fill="#332941"/>
<path d="M12.5439 34.2909C13.8151 34.4265 15.0648 34.6213 16.3182 34.754C16.9404 34.8293 17.5662 34.8712 18.193 34.8794C18.5015 34.8844 18.8097 34.8576 19.1128 34.7994C19.2622 34.7733 19.406 34.7215 19.5377 34.6463C19.6678 34.5634 19.7649 34.4377 19.8123 34.2909C19.8072 34.374 19.7857 34.4552 19.7492 34.5299C19.7127 34.6047 19.6618 34.6715 19.5994 34.7266C19.4711 34.8349 19.325 34.9201 19.1676 34.9785C18.8577 35.0871 18.5347 35.1539 18.2072 35.1772C17.564 35.2248 16.9177 35.2102 16.2772 35.1337C15.0049 34.9949 13.7525 34.7122 12.5439 34.2909Z" fill="#332941"/>
</svg>