<svg width="296" height="169" viewBox="0 0 296 169" fill="none" xmlns="http://www.w3.org/2000/svg">
<path d="M248.287 97.2187C247.966 96.7999 247.685 96.3566 247.405 95.9083C241.989 87.3963 218.324 91.4307 218.324 91.4307C215.648 111.952 210.991 109.534 210.129 108.243C209.267 106.952 207.709 94.2779 206.679 92.5538C203.703 92.2927 197.622 92.337 197.622 92.337C191.753 92.475 186.233 97.6374 180.802 106.046C175.372 114.45 165.797 121.563 165.797 121.563C165.797 121.563 168.64 121.824 169.675 128.031C170.311 128.228 172.218 127.385 173.608 126.705C174.847 126.099 176.23 125.845 177.604 125.972C179.841 126.178 183.06 126.893 185.632 129.326C185.948 129.621 186.284 129.894 186.637 130.144C186.962 129.962 187.145 129.838 187.145 129.838C192.447 127.641 195.552 120.011 195.552 120.011C195.122 119.052 194.871 118.022 194.813 116.972C194.729 115.927 194.744 114.876 194.857 113.834C194.971 112.814 195.049 111.804 195.079 110.79C195.131 109.766 195.086 108.741 194.946 107.726C195.368 108.69 195.609 109.724 195.656 110.775C195.728 111.819 195.706 112.868 195.591 113.908C195.478 114.923 195.414 115.932 195.389 116.952C195.353 117.975 195.407 118.998 195.552 120.011C195.849 122.734 196.494 125.407 197.469 127.967C198.87 128.431 200.315 128.749 201.781 128.917C202.502 128.999 203.229 129.023 203.954 128.986C204.697 128.945 205.437 128.866 206.172 128.75C205.509 129.147 204.779 129.421 204.018 129.558C203.638 129.631 203.252 129.677 202.865 129.696C202.477 129.701 202.089 129.686 201.702 129.651C200.933 129.568 200.178 129.386 199.455 129.109C198.734 128.841 198.063 128.455 197.469 127.967C197.884 129.106 198.435 130.191 199.11 131.198C202.765 131.408 206.348 132.306 209.671 133.843C210.513 134.232 211.287 134.755 212.066 135.139C212.859 135.534 213.689 135.849 214.545 136.08C216.267 136.548 218.042 136.8 219.827 136.828C220.734 136.858 221.597 136.809 222.533 136.779C223.453 136.769 224.373 136.813 225.288 136.912C227.101 137.099 228.91 137.306 230.704 137.621C231.389 137.74 232.069 137.868 232.749 138.001C232.433 137.573 232.163 137.114 231.94 136.631C231.594 135.904 231.334 135.138 231.167 134.351C230.994 133.563 230.89 132.762 230.856 131.957C230.812 131.144 230.843 130.33 230.95 129.523L230.955 129.499L230.965 129.464C231.235 128.59 231.402 127.687 231.462 126.774C231.539 125.849 231.549 124.919 231.492 123.991C231.428 123.063 231.314 122.139 231.152 121.223C230.975 120.321 230.738 119.381 230.61 118.43C230.352 116.535 230.292 114.618 230.433 112.711C230.482 111.76 230.58 110.809 230.723 109.873C230.855 108.934 231.034 108.002 231.26 107.08C231.027 108.954 230.898 110.838 230.876 112.726C230.849 114.599 230.986 116.472 231.285 118.321C231.349 118.785 231.462 119.238 231.556 119.691L231.862 121.09C232.043 122.035 232.163 122.991 232.221 123.952C232.367 125.878 232.145 127.814 231.566 129.656C231.444 130.414 231.381 131.18 231.379 131.947C231.373 132.727 231.434 133.507 231.561 134.277C231.685 135.049 231.883 135.808 232.152 136.543C232.342 137.059 232.582 137.555 232.867 138.025C233.936 138.242 234.996 138.488 236.046 138.779C237.81 139.24 239.507 139.931 241.092 140.833C239.454 140.063 237.73 139.491 235.957 139.129C235.045 138.917 234.127 138.733 233.202 138.577C233.199 138.574 233.196 138.573 233.192 138.572C232.34 138.424 231.482 138.296 230.62 138.183C228.826 137.951 227.027 137.75 225.229 137.607C224.338 137.523 223.443 137.489 222.548 137.503C221.676 137.533 220.719 137.597 219.813 137.567C217.965 137.529 216.13 137.255 214.352 136.75C213.46 136.489 212.596 136.142 211.77 135.715C211.356 135.513 210.952 135.242 210.573 135.021C210.193 134.789 209.814 134.548 209.415 134.351C207.821 133.514 206.142 132.85 204.408 132.37C202.673 131.851 200.902 131.459 199.11 131.198L195.035 131.587C195.161 131.76 195.252 131.956 195.306 132.163C196.355 135.558 194.842 148.853 194.842 148.853C200.662 153.119 232.877 159.714 232.877 159.714C253.643 163.207 253.836 144.774 253.836 144.774C257.551 111.696 250.248 99.7604 248.287 97.2187ZM222.301 130.937C221.921 131.01 221.535 131.057 221.148 131.075C220.76 131.08 220.372 131.065 219.985 131.031C219.216 130.947 218.461 130.765 217.738 130.489C217.017 130.221 216.346 129.834 215.752 129.346C217.153 129.81 218.598 130.128 220.064 130.296C220.785 130.379 221.512 130.402 222.237 130.366C222.98 130.324 223.72 130.245 224.455 130.129C223.792 130.526 223.062 130.8 222.301 130.937V130.937Z" fill="#332941"/>
<path d="M206.636 92.5772C206.494 92.3633 206.336 92.1605 206.164 91.9703C205.992 91.7833 205.803 91.6126 205.6 91.4602C205.398 91.3112 205.18 91.1851 204.951 91.0844C204.73 90.9852 204.494 90.9216 204.253 90.8958L204.33 90.8808C203.836 91.1187 203.313 91.2933 202.774 91.4003C202.228 91.5181 201.664 91.5365 201.111 91.4548C200.536 91.3698 199.995 91.1333 199.542 90.7696C199.126 90.3971 198.761 89.9712 198.456 89.503C197.861 88.6018 197.332 87.6589 196.873 86.6815C196.411 85.711 195.995 84.7298 195.607 83.7216L196.005 83.9845C195.546 84.0311 195.082 83.9608 194.658 83.78C194.411 83.6639 194.202 83.4791 194.057 83.2477C193.923 83.024 193.844 82.7723 193.824 82.5125C193.801 82.0672 193.865 81.6216 194.011 81.2003C194.139 80.7984 194.309 80.4108 194.517 80.0435C194.906 79.4739 195.089 78.7881 195.035 78.1002C195.003 77.7653 194.911 77.4389 194.762 77.1372L194.494 76.6345C194.401 76.4563 194.311 76.2751 194.227 76.0897C194.052 75.7188 193.914 75.3323 193.812 74.9353C193.701 74.5488 193.611 74.1565 193.542 73.7602C193.457 73.367 193.43 72.964 193.381 72.5655C193.365 72.1634 193.341 71.7622 193.362 71.3605C193.395 69.7451 193.791 68.1578 194.52 66.7155C194.545 66.6669 194.583 66.6266 194.631 66.5991C194.678 66.5716 194.732 66.5581 194.787 66.5602C194.842 66.5623 194.894 66.5799 194.94 66.6109C194.985 66.6419 195.02 66.6851 195.041 66.7354L195.046 66.7464C195.648 68.1346 196.415 69.4449 197.332 70.6483C198.245 71.8635 199.342 72.9293 200.583 73.8073C201.821 74.6873 203.235 75.289 204.727 75.5708C206.217 75.8454 207.748 75.8044 209.222 75.4504L209.232 75.448C209.267 75.4402 209.303 75.4423 209.336 75.4543C209.37 75.4662 209.399 75.4875 209.421 75.5155C210.016 76.3335 210.43 77.2683 210.636 78.2581C210.856 79.225 210.968 80.2132 210.97 81.2046C210.976 82.1914 210.905 83.1772 210.76 84.1533C210.587 85.0799 210.521 86.0235 210.565 86.9652C210.61 87.8753 210.856 88.7642 211.286 89.5675C211.716 90.3414 212.372 90.9653 213.166 91.3553C213.976 91.733 214.871 91.8921 215.762 91.8166C216.674 91.743 217.567 91.5132 218.402 91.1373C218.482 91.1024 218.57 91.0893 218.658 91.0994C218.745 91.1095 218.827 91.1424 218.898 91.1947C218.968 91.247 219.023 91.317 219.058 91.3975C219.092 91.478 219.105 91.5662 219.095 91.6532L219.094 91.6596C218.732 94.7992 218.169 97.9124 217.41 100.98C217.016 102.529 216.498 104.043 215.862 105.508C215.535 106.257 215.134 106.971 214.664 107.639C214.418 107.984 214.139 108.303 213.831 108.593C213.512 108.907 213.136 109.157 212.724 109.331C212.282 109.521 211.794 109.575 211.322 109.486C210.855 109.39 210.425 109.161 210.085 108.826C209.903 108.654 209.758 108.447 209.659 108.217C209.579 108.019 209.512 107.816 209.457 107.61C209.346 107.216 209.263 106.829 209.18 106.44C208.854 104.889 208.631 103.335 208.382 101.785L207.653 97.1366C207.527 96.363 207.397 95.5907 207.245 94.8233C207.122 94.0551 206.918 93.3021 206.636 92.5772L206.633 92.5702C206.627 92.5586 206.627 92.5455 206.631 92.5335C206.635 92.5215 206.644 92.5116 206.655 92.5059C206.667 92.5003 206.68 92.4992 206.692 92.503C206.704 92.5069 206.714 92.5152 206.72 92.5264C207.064 93.2409 207.322 93.9931 207.49 94.7677C207.685 95.5305 207.86 96.2973 208.029 97.0648C208.371 98.5994 208.659 100.143 208.967 101.681C209.271 103.219 209.585 104.758 209.93 106.273C210.02 106.649 210.113 107.027 210.223 107.386C210.273 107.557 210.334 107.726 210.404 107.89C210.464 108.02 210.551 108.135 210.659 108.229C210.883 108.446 211.167 108.589 211.474 108.64C211.782 108.691 212.097 108.647 212.379 108.514C212.999 108.183 213.521 107.692 213.89 107.093C214.304 106.464 214.66 105.798 214.953 105.104C215.55 103.683 216.032 102.216 216.394 100.717C217.127 97.6875 217.698 94.621 218.105 91.5307L218.797 92.053C217.852 92.4618 216.845 92.705 215.818 92.772C214.764 92.8439 213.709 92.6387 212.759 92.1767C211.804 91.6959 211.023 90.9296 210.524 89.9843C210.054 89.0613 209.796 88.0453 209.768 87.0102C209.742 86.0121 209.835 85.0145 210.045 84.0385C210.221 83.1016 210.325 82.1526 210.356 81.1998C210.39 80.2506 210.317 79.3005 210.138 78.3677C209.976 77.4476 209.626 76.5705 209.11 75.7914L209.31 75.8563C207.779 76.1734 206.2 76.1867 204.664 75.8954C203.899 75.7461 203.154 75.5097 202.442 75.1908C201.729 74.8808 201.048 74.5029 200.407 74.0622C199.132 73.1746 197.991 72.1086 197.018 70.8968C196.024 69.6958 195.179 68.3779 194.505 66.9723L195.031 67.0032C194.413 68.3748 194.106 69.866 194.132 71.3702C194.135 72.1206 194.213 72.8689 194.366 73.6036C194.437 73.9716 194.529 74.3354 194.64 74.6934C194.739 75.0476 194.867 75.3928 195.023 75.7255C195.101 75.8935 195.184 76.0601 195.272 76.2258C195.359 76.396 195.449 76.5412 195.554 76.75C195.751 77.1464 195.874 77.5754 195.917 78.0159C195.984 78.8918 195.751 79.7645 195.257 80.491C194.893 81.0783 194.688 81.7502 194.663 82.4406C194.661 82.5651 194.695 82.6875 194.759 82.794C194.824 82.9005 194.917 82.9867 195.028 83.0426C195.323 83.1652 195.643 83.2144 195.961 83.186L195.966 83.1858C196.051 83.182 196.135 83.2055 196.206 83.2529C196.276 83.3003 196.33 83.3691 196.359 83.4491C196.711 84.433 197.11 85.4166 197.534 86.3774C197.943 87.341 198.421 88.274 198.964 89.1691C199.223 89.6033 199.537 90.002 199.899 90.355C200.269 90.673 200.717 90.8871 201.198 90.9754C202.212 91.1365 203.252 91.007 204.196 90.6019L204.216 90.5937C204.234 90.5865 204.254 90.5841 204.273 90.5867C204.548 90.629 204.815 90.7163 205.062 90.8453C205.303 90.9678 205.528 91.1168 205.735 91.2895C205.937 91.4639 206.121 91.6575 206.285 91.8675C206.447 92.0759 206.592 92.2962 206.72 92.5264C206.724 92.5321 206.726 92.5382 206.727 92.5447C206.727 92.5511 206.727 92.5576 206.725 92.5638C206.724 92.5701 206.721 92.5759 206.717 92.581C206.713 92.5862 206.708 92.5905 206.702 92.5937C206.691 92.5996 206.678 92.6011 206.666 92.5981C206.654 92.5951 206.643 92.5876 206.636 92.5772Z" fill="#332941"/>
<path d="M194.973 83.4684C194.872 84.2519 194.767 85.029 194.685 85.8074C194.608 86.586 194.533 87.3627 194.509 88.1394C194.471 88.9115 194.503 89.6855 194.605 90.4518C194.655 90.8314 194.757 91.2023 194.908 91.5542C195.049 91.9155 195.285 92.2325 195.59 92.4722C195.229 92.2865 194.931 91.998 194.734 91.643C194.539 91.2876 194.394 90.9067 194.304 90.5113C194.135 89.7278 194.07 88.9256 194.111 88.1252C194.143 87.3322 194.234 86.5428 194.383 85.7632C194.522 84.9846 194.719 84.2175 194.973 83.4684Z" fill="#332941"/>
<path d="M194.736 66.8868C194.634 66.7098 194.57 66.5141 194.546 66.3115C194.523 66.1089 194.541 65.9036 194.6 65.7083L194.681 65.4151L194.809 65.1433C194.853 65.0535 194.893 64.9599 194.942 64.8724L195.109 64.6258C195.331 64.2969 195.583 63.989 195.862 63.7061C196.144 63.4322 196.444 63.1798 196.739 62.9175C197.982 61.9781 199.313 61.1614 200.713 60.4789C201.412 60.1474 202.119 59.8302 202.825 59.5149C203.539 59.2218 204.258 58.9389 204.978 58.6607C205.7 58.3965 206.433 58.1683 207.162 57.9264C207.531 57.8155 207.887 57.6896 208.281 57.5806C208.663 57.478 209.05 57.3956 209.441 57.3338C210.993 57.0785 212.582 57.1432 214.108 57.5238C215.628 57.9068 217.034 58.651 218.205 59.6932C219.36 60.7515 220.312 62.012 221.013 63.4126C221.718 64.8075 222.256 66.28 222.617 67.8002L222.625 67.8411C223.005 69.9273 223.675 71.9504 224.614 73.8518C225.078 74.8005 225.615 75.7117 226.22 76.5771C226.815 77.4442 227.487 78.2561 228.228 79.003L229.4 80.088C229.822 80.4567 230.218 80.8534 230.586 81.2754C231.34 82.1078 231.962 83.0506 232.43 84.071C233.4 86.0873 233.643 88.3771 233.117 90.552C233.114 90.5641 233.106 90.5745 233.095 90.5811C233.085 90.5878 233.072 90.5901 233.06 90.5876C233.047 90.5852 233.037 90.5781 233.029 90.5679C233.022 90.5577 233.019 90.5451 233.021 90.5327L233.021 90.5272C233.16 89.4653 233.117 88.3877 232.895 87.3401C232.693 86.3025 232.328 85.3035 231.813 84.3806C231.559 83.9218 231.278 83.4794 230.969 83.056C230.652 82.6384 230.309 82.2419 229.941 81.869C229.581 81.4873 229.196 81.1305 228.788 80.8011L227.536 79.7176C225.928 78.1649 224.622 76.3271 223.686 74.2976C223.219 73.2927 222.825 72.2561 222.505 71.1955C222.173 70.1343 221.932 69.0469 221.784 67.9449L221.791 67.9856C221.496 66.5066 221.056 65.0603 220.478 63.6677C219.898 62.2729 219.048 61.0068 217.976 59.9426C217.424 59.4281 216.81 58.9847 216.148 58.6229C215.482 58.2691 214.769 58.01 214.03 57.8528C212.552 57.5583 211.027 57.5946 209.564 57.9591C209.202 58.0429 208.844 58.1457 208.493 58.267C208.155 58.386 207.796 58.5409 207.438 58.6766L205.286 59.4817C204.58 59.7662 203.871 60.046 203.159 60.3156L201.064 61.2157C199.684 61.8344 198.354 62.558 197.085 63.3802C196.788 63.6058 196.482 63.8245 196.194 64.0621C195.912 64.3025 195.649 64.5647 195.407 64.8461L195.227 65.0579C195.175 65.1327 195.131 65.2122 195.082 65.2895L194.938 65.5247L194.839 65.7774C194.696 66.1123 194.688 66.4891 194.816 66.8298L194.821 66.8402C194.826 66.8514 194.827 66.8641 194.823 66.8758C194.819 66.8875 194.811 66.8972 194.8 66.9031C194.789 66.909 194.776 66.9106 194.764 66.9076C194.753 66.9045 194.742 66.8971 194.736 66.8867V66.8868Z" fill="black"/>
<path d="M195.954 76.4049C196.636 75.915 197.38 75.5177 198.166 75.2236C198.559 75.0726 198.963 74.9514 199.374 74.8612C199.788 74.7563 200.219 74.7365 200.641 74.8028C200.238 74.8899 199.843 75.0095 199.459 75.1604L198.308 75.5958C197.538 75.8851 196.769 76.1832 195.954 76.4049Z" fill="black"/>
<path d="M198.11 79.1584C198.265 79.153 198.412 79.0876 198.52 78.9761C198.628 78.8645 198.688 78.7155 198.688 78.5604C198.688 78.4053 198.628 78.2562 198.52 78.1446C198.412 78.0331 198.265 77.9677 198.11 77.9624C197.955 77.9677 197.808 78.0331 197.7 78.1446C197.592 78.2562 197.532 78.4053 197.532 78.5604C197.532 78.7155 197.592 78.8645 197.7 78.9761C197.808 79.0876 197.955 79.153 198.11 79.1584Z" fill="#332941"/>
<path d="M197.146 86.4029C197.446 86.4122 197.746 86.4039 198.045 86.378C198.336 86.3514 198.624 86.3162 198.909 86.2618C199.194 86.2064 199.478 86.1427 199.763 86.0647C200.049 85.9877 200.336 85.9028 200.641 85.8266C200.414 86.0418 200.155 86.2203 199.873 86.3558C199.59 86.4936 199.291 86.5937 198.982 86.6536C198.359 86.7878 197.709 86.699 197.146 86.4029Z" fill="#332941"/>
<path d="M194.926 147.086C193.445 146.54 191.921 146.116 190.371 145.816C188.845 145.505 187.277 145.455 185.734 145.668L185.166 145.764L184.612 145.915C184.243 146.017 183.882 146.142 183.529 146.287C182.822 146.591 182.145 146.959 181.506 147.386C180.854 147.813 180.236 148.301 179.508 148.724C178.78 149.133 177.995 149.434 177.18 149.618C176.371 149.809 175.54 149.893 174.708 149.867C173.837 149.868 172.979 149.659 172.205 149.26C171.992 149.13 171.801 148.965 171.642 148.772C171.499 148.597 171.411 148.469 171.286 148.325C171.051 148.055 170.78 147.82 170.479 147.625C169.818 147.242 169.12 146.925 168.396 146.681C167.614 146.433 166.865 146.093 166.163 145.668C165.808 145.428 165.496 145.13 165.239 144.786C165.114 144.624 165.001 144.469 164.88 144.326C164.82 144.251 164.758 144.188 164.694 144.115C164.625 144.033 164.544 143.951 164.485 143.868C164.015 143.216 163.583 142.536 163.191 141.833C162.795 141.142 162.401 140.453 162.023 139.752L162.139 139.837L161.124 139.616C160.773 139.556 160.429 139.462 160.097 139.335C159.431 139.057 158.846 138.614 158.396 138.049C158.151 137.766 157.982 137.424 157.906 137.057C157.877 136.864 157.89 136.667 157.943 136.478C157.995 136.29 158.087 136.115 158.212 135.964C158.452 135.682 158.745 135.45 159.075 135.282C159.405 135.113 159.765 135.012 160.134 134.983C160.491 134.963 160.849 134.978 161.203 135.027L162.236 135.102C162.925 135.145 163.614 135.177 164.304 135.199C165.683 135.241 167.062 135.231 168.432 135.145C169.793 135.075 171.145 134.886 172.473 134.58C173.115 134.427 173.737 134.2 174.326 133.902C174.602 133.758 174.858 133.58 175.09 133.372C175.322 133.159 175.534 132.923 175.72 132.669C175.877 132.493 175.974 132.272 175.999 132.037C175.991 131.987 175.983 131.967 175.918 131.911C175.821 131.849 175.715 131.802 175.604 131.772C174.988 131.647 174.354 131.639 173.735 131.746C173.418 131.791 173.105 131.859 172.799 131.952C172.675 131.989 172.554 132.04 172.441 132.103L172.334 132.172C172.288 132.204 172.241 132.23 172.194 132.257C172.102 132.308 172.008 132.354 171.911 132.394C171.549 132.538 171.171 132.636 170.786 132.686C170.6 132.712 170.416 132.731 170.232 132.743C170.019 132.762 169.805 132.755 169.594 132.72C169.148 132.644 168.735 132.436 168.41 132.122C168.1 131.811 167.876 131.426 167.757 131.004C167.551 130.194 167.66 129.336 168.062 128.603C168.262 128.195 168.577 127.854 168.969 127.624C169.1 127.555 169.242 127.509 169.388 127.488C169.474 127.477 169.56 127.476 169.646 127.486C169.691 127.491 169.735 127.499 169.779 127.51L169.834 127.525L169.841 127.524C169.941 127.534 170.043 127.528 170.142 127.505C170.776 127.359 171.394 127.151 171.987 126.885C172.298 126.752 172.609 126.614 172.919 126.469L173.381 126.25C173.548 126.17 173.717 126.096 173.888 126.026C174.575 125.75 175.297 125.573 176.033 125.498C176.761 125.432 177.494 125.458 178.215 125.573C178.921 125.67 179.619 125.811 180.306 125.997C181.69 126.361 183.006 126.947 184.203 127.731C184.797 128.129 185.353 128.581 185.864 129.081C186.357 129.534 186.884 129.949 187.441 130.322C189.817 131.707 192.56 132.332 195.301 132.113L195.306 132.113C195.318 132.112 195.331 132.117 195.34 132.125C195.35 132.133 195.356 132.145 195.357 132.157C195.359 132.17 195.355 132.183 195.347 132.193C195.339 132.203 195.328 132.209 195.315 132.211C192.512 132.641 189.646 132.152 187.144 130.818C186.532 130.448 185.95 130.03 185.404 129.569C183.891 128.226 182.063 127.286 180.09 126.837C179.435 126.68 178.771 126.564 178.101 126.491C177.451 126.403 176.792 126.397 176.14 126.474C175.497 126.549 174.868 126.713 174.27 126.96C174.121 127.023 173.975 127.09 173.829 127.162L173.356 127.393C173.04 127.545 172.72 127.693 172.397 127.836C171.731 128.149 171.033 128.387 170.315 128.545C170.074 128.596 169.826 128.596 169.585 128.546L169.527 128.533C169.508 128.529 169.524 128.533 169.52 128.532L169.525 128.533C169.528 128.533 169.528 128.532 169.524 128.533C169.499 128.538 169.475 128.547 169.452 128.56C169.252 128.695 169.092 128.882 168.988 129.1C168.715 129.594 168.636 130.172 168.766 130.721C168.834 130.969 168.961 131.197 169.136 131.385C169.31 131.558 169.532 131.674 169.773 131.718C169.904 131.741 170.038 131.747 170.17 131.735C170.332 131.727 170.493 131.713 170.651 131.693C170.953 131.659 171.25 131.588 171.535 131.482C171.599 131.457 171.66 131.428 171.72 131.396C171.749 131.381 171.777 131.365 171.803 131.348L171.916 131.277C172.103 131.169 172.303 131.084 172.511 131.026C172.87 130.922 173.236 130.847 173.606 130.801C174.357 130.683 175.123 130.712 175.863 130.886C176.086 130.951 176.295 131.054 176.482 131.191C176.599 131.281 176.696 131.394 176.768 131.523C176.84 131.651 176.885 131.793 176.901 131.94C176.921 132.192 176.872 132.446 176.758 132.672C176.673 132.859 176.565 133.035 176.439 133.197C176.211 133.497 175.952 133.773 175.665 134.019C175.375 134.267 175.055 134.478 174.712 134.646C174.056 134.958 173.365 135.192 172.654 135.341C171.274 135.625 169.869 135.773 168.459 135.783C167.062 135.812 165.669 135.765 164.281 135.676C163.587 135.631 162.895 135.574 162.203 135.505L161.167 135.394C160.836 135.342 160.5 135.323 160.165 135.337C159.842 135.357 159.525 135.441 159.234 135.584C158.943 135.727 158.683 135.925 158.469 136.168C158.37 136.283 158.296 136.417 158.252 136.562C158.209 136.707 158.197 136.86 158.217 137.011C158.281 137.325 158.424 137.618 158.632 137.861C159.045 138.388 159.591 138.797 160.212 139.046C160.529 139.164 160.856 139.249 161.188 139.302L162.208 139.501C162.232 139.505 162.254 139.515 162.273 139.528C162.292 139.542 162.309 139.56 162.321 139.58L162.324 139.586C163.087 140.961 163.944 142.282 164.889 143.539C164.948 143.616 165.012 143.672 165.072 143.739C165.143 143.813 165.223 143.888 165.291 143.965C165.432 144.119 165.56 144.28 165.684 144.425C165.914 144.71 166.191 144.953 166.503 145.145C167.179 145.511 167.894 145.797 168.636 145.996C169.427 146.224 170.191 146.538 170.914 146.931C171.286 147.159 171.624 147.439 171.918 147.762C172.058 147.913 172.203 148.107 172.314 148.235C172.413 148.343 172.528 148.436 172.654 148.511C173.303 148.828 174.016 148.99 174.738 148.983C175.494 149.007 176.25 148.936 176.989 148.773C177.726 148.615 178.435 148.352 179.096 147.991C179.744 147.623 180.394 147.15 181.076 146.72C181.767 146.282 182.497 145.908 183.256 145.603C183.642 145.462 184.037 145.344 184.437 145.25L185.037 145.114L185.646 145.036C187.259 144.871 188.888 144.993 190.459 145.395C192.008 145.787 193.516 146.322 194.964 146.995C194.976 147 194.985 147.009 194.99 147.021C194.995 147.032 194.995 147.046 194.99 147.057C194.986 147.069 194.977 147.079 194.966 147.084C194.954 147.09 194.941 147.091 194.929 147.087L194.926 147.086Z" fill="#332941"/>
<path d="M162.172 139.669C163.132 139.587 164.092 139.549 165.051 139.517C166.011 139.48 166.971 139.475 167.93 139.47L169.37 139.481C169.864 139.48 170.357 139.548 170.833 139.682C171.744 140.006 172.633 140.39 173.493 140.833C173.03 140.701 172.576 140.544 172.117 140.4C171.674 140.23 171.221 140.09 170.759 139.98C170.302 139.886 169.836 139.845 169.37 139.858L167.93 139.868C166.971 139.863 166.011 139.858 165.051 139.822C164.092 139.79 163.132 139.751 162.172 139.669Z" fill="#332941"/>
<path d="M162.66 140.526C163.305 141.023 163.922 141.554 164.534 142.089C164.851 142.347 165.132 142.65 165.441 142.864C165.752 143.088 166.1 143.255 166.47 143.356C166.827 143.462 167.239 143.479 167.645 143.554C168.05 143.621 168.452 143.709 168.848 143.817C169.658 143.987 170.411 144.362 171.035 144.906C170.699 144.683 170.331 144.514 169.944 144.404C169.562 144.282 169.173 144.186 168.778 144.116C168.383 144.047 167.988 143.976 167.589 143.928C167.177 143.888 166.767 143.825 166.363 143.739C165.949 143.621 165.56 143.427 165.217 143.168C164.901 142.9 164.602 142.613 164.322 142.309C163.756 141.729 163.194 141.144 162.66 140.526Z" fill="#332941"/>
<path d="M153.591 127.774C153.273 127.13 152.885 126.523 152.433 125.965L152.509 126.014C151.753 125.895 151.048 125.558 150.483 125.042C150.188 124.744 150.006 124.353 149.969 123.935C149.95 123.728 149.96 123.519 149.996 123.314C150.047 123.119 150.108 122.927 150.179 122.738C150.524 122.004 151.132 121.425 151.883 121.115C152.258 120.937 152.667 120.839 153.083 120.828C153.53 120.825 153.968 120.963 154.334 121.221L153.685 121.428C153.784 121.159 153.92 120.906 154.088 120.675C154.248 120.448 154.435 120.242 154.645 120.061C155.069 119.699 155.572 119.441 156.114 119.31C156.638 119.184 157.18 119.156 157.713 119.227L158.094 119.276C158.243 119.298 158.389 119.334 158.53 119.384C158.794 119.473 159.046 119.592 159.282 119.739C160.175 120.315 160.89 121.13 161.345 122.091C161.791 123 162.116 123.965 162.312 124.959L161.382 125.016C161.462 124.383 161.653 123.77 161.945 123.203C162.235 122.618 162.669 122.117 163.205 121.744C163.752 121.386 164.39 121.189 165.044 121.174C165.2 121.168 165.357 121.173 165.513 121.188L165.745 121.203C165.837 121.207 165.927 121.222 166.015 121.247C166.329 121.34 166.626 121.485 166.894 121.676C167.854 122.429 168.563 123.456 168.929 124.619C169.316 125.721 169.567 126.866 169.676 128.029C169.42 126.908 169.053 125.815 168.58 124.767C168.15 123.745 167.442 122.864 166.535 122.224C166.321 122.093 166.089 121.994 165.846 121.931C165.794 121.918 165.74 121.913 165.687 121.916L165.486 121.914C164.844 121.882 164.209 122.063 163.681 122.43C163.286 122.759 162.961 123.164 162.727 123.622C162.493 124.08 162.355 124.581 162.32 125.094L162.319 125.097C162.307 125.208 162.256 125.311 162.176 125.388C162.095 125.465 161.989 125.511 161.877 125.518C161.766 125.524 161.656 125.491 161.566 125.423C161.477 125.356 161.415 125.26 161.39 125.151C161.201 124.245 160.896 123.367 160.482 122.539C160.096 121.744 159.507 121.063 158.776 120.565C158.602 120.454 158.416 120.363 158.221 120.294C158.135 120.262 158.045 120.238 157.954 120.224L157.615 120.176C157.187 120.114 156.751 120.129 156.328 120.218C155.923 120.302 155.543 120.481 155.219 120.74C154.902 120.997 154.651 121.325 154.486 121.697L154.466 121.744C154.424 121.844 154.343 121.922 154.243 121.963C154.143 122.003 154.031 122.002 153.931 121.96C153.898 121.945 153.866 121.927 153.837 121.904C153.595 121.74 153.313 121.643 153.021 121.625C152.728 121.606 152.436 121.667 152.175 121.8C151.566 122.014 151.056 122.442 150.74 123.004C150.575 123.268 150.496 123.575 150.511 123.885C150.527 124.195 150.637 124.492 150.827 124.738C151.294 125.241 151.895 125.599 152.559 125.77L152.576 125.775C152.6 125.782 152.622 125.798 152.636 125.819C153.042 126.424 153.363 127.082 153.591 127.774Z" fill="#332941"/>
<path d="M150.266 127.438C150.002 126.894 149.533 126.477 148.961 126.278C148.407 126.12 147.814 126.164 147.289 126.404C147.036 126.482 146.809 126.627 146.632 126.822C146.455 127.018 146.334 127.258 146.282 127.517C146.258 128.06 146.405 128.595 146.704 129.049C147.004 129.55 147.361 130.014 147.768 130.433C147.867 130.541 147.971 130.64 148.074 130.741L148.408 131.033C148.647 131.239 148.877 131.449 149.105 131.661C150.019 132.506 150.874 133.394 151.726 134.295C151.79 134.363 151.832 134.448 151.847 134.54L151.852 134.571C151.908 134.858 152.001 135.136 152.13 135.398C152.4 135.961 152.783 136.462 153.257 136.869C153.497 137.086 153.737 137.232 154.059 137.478C154.648 137.94 155.145 138.509 155.524 139.154C155.905 139.788 156.188 140.477 156.362 141.196L156.339 141.126C156.564 141.747 156.986 142.279 157.54 142.639C158.133 142.984 158.805 143.169 159.491 143.174C160.21 143.19 160.929 143.116 161.629 142.953C162.346 142.797 163.049 142.583 163.732 142.314C163.091 142.691 162.413 143.002 161.71 143.242C160.995 143.492 160.25 143.645 159.495 143.695C158.701 143.752 157.906 143.594 157.194 143.237C156.834 143.037 156.511 142.778 156.238 142.47C155.974 142.16 155.755 141.814 155.585 141.444L155.576 141.421L155.562 141.374C155.38 140.757 155.111 140.169 154.762 139.628C154.418 139.094 153.984 138.622 153.48 138.234C153.254 138.061 152.903 137.843 152.628 137.599C152.339 137.356 152.075 137.083 151.843 136.785C151.605 136.487 151.403 136.161 151.24 135.817C151.068 135.456 150.949 135.073 150.886 134.679L151.012 134.954C150.187 134.057 149.335 133.173 148.481 132.309C148.266 132.095 148.049 131.883 147.829 131.679L147.48 131.352C147.368 131.234 147.253 131.116 147.149 130.994C146.723 130.506 146.357 129.97 146.059 129.395C145.71 128.792 145.579 128.089 145.685 127.401C145.724 127.22 145.792 127.047 145.887 126.888C145.989 126.738 146.104 126.598 146.232 126.469L146.66 126.175L147.12 125.986C147.748 125.764 148.437 125.784 149.052 126.042C149.339 126.178 149.596 126.373 149.805 126.613C150.013 126.854 150.17 127.135 150.266 127.438Z" fill="#332941"/>
<path d="M151.369 134.625C151.219 134.08 151.229 133.503 151.399 132.964C151.481 132.682 151.626 132.423 151.823 132.206C151.919 132.094 152.038 132.005 152.172 131.943C152.306 131.88 152.451 131.847 152.598 131.845C152.379 131.982 152.198 132.171 152.069 132.395C151.945 132.612 151.847 132.844 151.779 133.084C151.622 133.572 151.525 134.088 151.369 134.625Z" fill="#332941"/>
<path d="M152.533 125.893C152.872 125.809 153.149 125.751 153.442 125.694C153.749 125.625 154.062 125.584 154.377 125.572C154.163 125.843 153.858 126.025 153.518 126.085C153.35 126.124 153.175 126.128 153.005 126.095C152.835 126.061 152.674 125.993 152.533 125.893Z" fill="#332941"/>
<path d="M154.332 121.562C154.327 121.989 154.383 122.416 154.5 122.828C154.603 123.239 154.822 123.611 155.131 123.901C155.295 124.039 155.485 124.142 155.69 124.204C155.894 124.266 156.11 124.285 156.322 124.261C156.543 124.243 156.763 124.207 156.978 124.153L157.612 123.924L156.997 124.211C156.781 124.287 156.56 124.344 156.334 124.383C156.101 124.43 155.861 124.428 155.628 124.378C155.395 124.329 155.175 124.233 154.98 124.096C154.599 123.801 154.311 123.402 154.15 122.948C153.979 122.505 153.875 122.039 153.84 121.566C153.837 121.533 153.84 121.5 153.85 121.469C153.86 121.438 153.876 121.409 153.897 121.384C153.918 121.359 153.944 121.338 153.973 121.324C154.002 121.309 154.034 121.3 154.066 121.297C154.099 121.295 154.132 121.299 154.163 121.309C154.194 121.319 154.223 121.335 154.247 121.357C154.272 121.378 154.292 121.404 154.307 121.434C154.321 121.463 154.33 121.495 154.332 121.527C154.332 121.535 154.333 121.542 154.333 121.55L154.332 121.562Z" fill="#332941"/>
<path d="M156.318 124.344C156.66 124.865 156.962 125.41 157.222 125.977C157.512 126.547 157.711 127.159 157.811 127.791C157.839 127.908 157.895 128.017 157.974 128.109C158.054 128.2 158.154 128.27 158.267 128.315C158.524 128.444 158.801 128.532 159.086 128.577C159.377 128.63 159.676 128.633 159.968 128.584C160.269 128.559 160.549 128.418 160.749 128.191C160.674 128.334 160.57 128.459 160.443 128.56C160.317 128.66 160.171 128.733 160.014 128.774C159.703 128.866 159.378 128.903 159.054 128.882C158.723 128.867 158.397 128.789 158.096 128.651C157.92 128.583 157.765 128.47 157.646 128.324C157.526 128.177 157.446 128.003 157.413 127.817C157.314 127.227 157.155 126.649 156.939 126.091L156.318 124.344Z" fill="#332941"/>
<path d="M162.335 124.976C162.444 125.745 162.688 126.489 163.057 127.173C163.149 127.337 163.254 127.493 163.37 127.64C163.518 127.818 163.649 128.009 163.761 128.21C163.874 128.415 163.965 128.631 164.031 128.855C164.099 129.091 164.131 129.286 164.177 129.481C164.201 129.655 164.249 129.825 164.319 129.986C164.415 130.131 164.537 130.257 164.678 130.36C164.817 130.468 164.976 130.549 165.146 130.595C165.317 130.642 165.495 130.655 165.67 130.632C166.039 130.556 166.371 130.356 166.611 130.065C166.881 129.766 167.111 129.432 167.294 129.074L167.284 129.106C167.407 128.526 167.489 127.938 167.529 127.347C167.583 126.753 167.543 126.155 167.412 125.573C167.586 126.149 167.67 126.749 167.659 127.35C167.662 127.953 167.622 128.556 167.54 129.154C167.539 129.163 167.536 129.172 167.532 129.18L167.529 129.186C167.36 129.583 167.14 129.956 166.874 130.296C166.601 130.672 166.207 130.943 165.758 131.065C165.522 131.114 165.279 131.116 165.042 131.07C164.805 131.025 164.579 130.933 164.378 130.799C164.171 130.671 163.99 130.505 163.842 130.311C163.761 130.204 163.702 130.082 163.669 129.952L163.576 129.644C163.493 129.266 163.348 128.905 163.148 128.574C163.045 128.418 162.929 128.273 162.799 128.139C162.643 127.971 162.502 127.79 162.375 127.599C161.891 126.846 161.548 126.011 161.362 125.136C161.348 125.073 161.346 125.007 161.357 124.943C161.367 124.88 161.391 124.818 161.425 124.764C161.459 124.709 161.504 124.661 161.557 124.624C161.61 124.586 161.67 124.559 161.733 124.545C161.796 124.53 161.861 124.528 161.925 124.539C161.989 124.55 162.05 124.573 162.105 124.607C162.16 124.642 162.208 124.687 162.245 124.739C162.283 124.792 162.31 124.852 162.324 124.915C162.327 124.926 162.329 124.938 162.331 124.95L162.335 124.976Z" fill="#332941"/>
<path d="M161.426 133.606C161.446 133.606 161.461 133.611 161.481 133.611L161.525 133.641L161.426 133.606Z" fill="#332941"/>
<path d="M171.425 132.941C162.959 131.655 154.981 128.375 152.999 127.523C152.656 127.372 152.289 127.284 151.915 127.262C150.112 127.168 149.491 127.754 149.323 128.36C149.248 128.653 149.269 128.962 149.384 129.241C149.498 129.521 149.7 129.756 149.959 129.912L158.765 135.448L158.77 135.444C159.214 134.91 159.728 134.44 160.298 134.045C160.09 134.482 159.834 134.895 159.534 135.276C160.354 135.051 161.22 135.055 162.037 135.286C172.234 136.251 174.796 134.123 174.796 134.123C173.702 133.104 171.425 132.941 171.425 132.941ZM163.989 132.099L166.059 133.606L161.313 132.897L157.04 130.035L163.989 132.099ZM166.65 134.655C164.886 134.493 163.127 134.291 161.367 134.094C161.333 134.088 161.299 134.076 161.269 134.059C159.642 133.079 158.021 132.089 156.415 131.074L154.005 129.542C153.216 129.015 152.413 128.508 151.629 127.966C152.472 128.409 153.3 128.877 154.133 129.33L156.612 130.744C158.248 131.675 159.864 132.641 161.48 133.611C163.215 133.823 164.96 134.04 166.694 134.286C168.444 134.532 170.198 134.788 171.943 135.094C170.174 134.985 168.409 134.823 166.65 134.655H166.65Z" fill="#332941"/>
<path d="M161.525 133.641L161.426 133.606C161.446 133.606 161.461 133.611 161.481 133.611L161.525 133.641Z" fill="white"/>
<path d="M101.491 62.9774C101.491 62.9774 100.225 62.2185 99.0443 63.5677C99.0443 63.5677 96.9353 60.5723 87.9932 63.1662C87.9932 63.1662 89.1743 65.4228 90.0179 65.4228C90.8615 65.4228 88.415 69.3018 86.1373 69.1331C86.1373 69.1331 82.2568 74.7829 85.2094 80.264C88.1195 85.6662 90.2101 87.3822 93.0966 83.8781C93.1851 83.7694 93.2839 83.6694 93.3916 83.5796C94.2217 82.8953 97.8968 80.0502 99.1993 82.1717C99.4767 82.643 99.556 83.205 99.42 83.7346C98.8255 86.2235 96.0455 95.3907 87.9932 91.7321C87.9932 91.7321 78.6094 88.2146 80.8227 79.8817C81.0594 79.0342 81.4026 78.2201 81.8442 77.4589C82.2699 76.6812 82.5323 75.8249 82.6152 74.9423C82.6982 74.0598 82.5999 73.1696 82.3265 72.3263C81.9873 71.1241 81.2221 70.0864 80.1736 69.4067C79.1571 68.773 77.8172 68.4896 76.8022 70.2618C76.382 70.9991 76.1606 71.8327 76.1594 72.6811C76.1575 73.4577 76.302 74.4102 76.9421 74.8672L76.1594 76.385C75.7338 75.5193 75.1894 74.717 74.5421 74.0015C73.4582 72.9041 72.7619 71.4833 72.5588 69.9546C72.2722 67.5295 72.6172 63.9085 75.508 59.6888C75.508 59.6888 79.3886 51.9309 86.6435 52.0996C93.8984 52.2682 100.141 54.2076 101.491 62.9774Z" fill="#332941"/>
<path d="M89.3433 73.0967C90.6034 72.8087 91.8983 72.7021 93.1886 72.7801C93.8385 72.8124 94.4835 72.9102 95.1138 73.072C95.7571 73.2099 96.3548 73.5086 96.8513 73.94C96.2782 73.674 95.666 73.5016 95.0382 73.4296C94.4181 73.3405 93.7923 73.2757 93.161 73.2474C91.8996 73.1693 90.6315 73.1633 89.3433 73.0967Z" fill="#332941"/>
<path d="M101.49 72.976C101.029 73.1162 100.602 73.3514 100.237 73.6665C100.064 73.8092 99.9229 73.9868 99.8231 74.1877C99.7234 74.3886 99.6671 74.6082 99.6581 74.8323C99.692 75.292 99.8126 75.7412 100.013 76.1561L100.565 77.5117C100.977 78.429 101.216 79.4141 101.271 80.4179C101.27 80.6823 101.221 80.9445 101.127 81.1917C101.026 81.4419 100.861 81.6612 100.649 81.8275C100.217 82.0993 99.707 82.2204 99.199 82.1718C99.6752 82.1312 100.129 81.9499 100.502 81.651C100.655 81.4878 100.77 81.2931 100.84 81.0806C100.909 80.8681 100.932 80.6428 100.905 80.4208C100.868 79.9513 100.773 79.4882 100.621 79.0424C100.479 78.5859 100.31 78.1336 100.129 77.6829C99.9557 77.2289 99.7682 76.7774 99.5994 76.3125C99.5187 76.0777 99.4368 75.8437 99.3734 75.5962C99.2945 75.3403 99.2678 75.0712 99.2948 74.8049C99.323 74.54 99.4094 74.2845 99.5477 74.0568C99.686 73.8291 99.8729 73.6347 100.095 73.4875C100.513 73.2083 100.991 73.033 101.49 72.976Z" fill="#332941"/>
<path d="M101.49 62.9778C101.648 63.923 101.766 64.8732 101.843 65.8287C101.93 66.7825 101.985 67.7391 102.005 68.6986C102.02 69.658 102.006 70.6191 101.931 71.581C101.887 72.5614 101.668 73.5261 101.284 74.4294C101.279 74.4406 101.271 74.451 101.263 74.4602C100.967 74.7788 100.689 75.1139 100.431 75.4638C100.302 75.639 100.188 75.8241 100.089 76.0174C99.9794 76.2057 99.9354 76.4252 99.9643 76.6412C99.8966 76.4239 99.9089 76.1895 99.9989 75.9804C100.076 75.7694 100.171 75.565 100.281 75.3691C100.501 74.9786 100.756 74.6085 101.042 74.2631L101.021 74.2938C101.184 73.8624 101.293 73.4123 101.345 72.9539C101.418 72.4914 101.448 72.0192 101.483 71.5486C101.538 70.6039 101.548 69.6536 101.553 68.7028C101.553 66.7997 101.512 64.893 101.49 62.9778Z" fill="#332941"/>
<path d="M96.429 79.5064C96.34 79.6894 96.2681 79.8803 96.2141 80.0765C96.1592 80.2578 96.1472 80.4494 96.179 80.6361C96.2052 80.8212 96.2861 80.9941 96.4113 81.1329C96.5438 81.2861 96.691 81.426 96.8508 81.5505C96.7486 81.5202 96.6482 81.4842 96.55 81.4427C96.4545 81.3902 96.3645 81.3282 96.2813 81.2576C96.1072 81.107 95.9897 80.9015 95.9482 80.6751C95.9186 80.4508 95.9522 80.2228 96.045 80.0165C96.1317 79.819 96.2632 79.6444 96.429 79.5064Z" fill="#332941"/>
<path d="M76.9414 74.8682C77.2334 75.2345 77.4664 75.6442 77.6319 76.0824C77.7206 76.3061 77.7848 76.5387 77.8232 76.7762C77.844 76.9007 77.8522 77.027 77.8478 77.1531L77.8454 77.2501L77.8512 77.3028C77.849 77.3371 77.8565 77.3713 77.8728 77.4016C77.9452 77.5558 78.073 77.6772 78.2308 77.7415C78.4182 77.8372 78.6155 77.912 78.8193 77.9644C79.2527 78.0811 79.6984 78.1458 80.1471 78.1569C79.7039 78.3305 79.2236 78.3879 78.752 78.3237C78.5059 78.2986 78.2648 78.2369 78.037 78.1406C77.9029 78.0886 77.7805 78.0106 77.6767 77.9111C77.5729 77.8116 77.4899 77.6925 77.4323 77.5608C77.4021 77.4866 77.3873 77.407 77.3888 77.3269L77.3872 77.2085L77.3908 77.1347C77.396 77.0327 77.3937 76.9304 77.3839 76.8287C77.3652 76.6127 77.3315 76.3982 77.2829 76.1869C77.1873 75.7536 77.0613 75.318 76.9414 74.8682Z" fill="#332941"/>
<path d="M76.1593 76.385C75.971 77.067 75.7056 77.7254 75.3681 78.3473C75.0377 78.9784 74.639 79.5712 74.1789 80.1152C73.7186 80.6693 73.1727 81.1464 72.5618 81.5284C71.9493 81.9079 71.2483 82.1211 70.5281 82.1466C71.1872 81.9487 71.8065 81.6368 72.3578 81.2249C72.8973 80.8101 73.3885 80.336 73.8222 79.8116C74.2676 79.2879 74.6795 78.7365 75.0552 78.1608C75.4333 77.5824 75.8089 76.9959 76.1593 76.385Z" fill="#332941"/>
<path d="M82.3406 96.1186C82.8736 95.885 83.3777 95.5901 83.8426 95.24C84.3038 94.8957 84.7414 94.5208 85.1523 94.1178C85.576 93.7267 85.9559 93.2894 86.3504 92.8614L86.9249 92.1985C87.1119 91.9723 87.2984 91.7444 87.5042 91.526C87.3867 91.7995 87.2501 92.0637 87.1139 92.3296C86.9597 92.5834 86.808 92.8411 86.6384 93.0868C86.2963 93.5792 85.9074 94.0375 85.4771 94.4551C85.0447 94.8761 84.5621 95.2424 84.0403 95.5458C83.523 95.8597 82.9425 96.0554 82.3406 96.1186Z" fill="#332941"/>
<path d="M73.9015 79.9639C73.4817 79.3421 72.9625 78.7935 72.3646 78.3401C72.2401 78.2302 72.0893 78.1543 71.9268 78.1199C71.7644 78.0854 71.5958 78.0936 71.4374 78.1435C71.1576 78.3335 70.9567 78.6191 70.8726 78.9466C70.7573 79.2958 70.6743 79.6548 70.6245 80.0191C70.5994 80.2004 70.5771 80.3889 70.5608 80.5632C70.5618 80.7292 70.5763 80.9241 70.593 81.1055C70.6655 81.8491 70.8035 82.5849 71.0051 83.3043C71.3764 84.7682 71.9532 86.1722 72.7183 87.4745C73.4935 88.7762 74.4208 89.9812 75.4808 91.0639C76.0123 91.6013 76.5647 92.1186 77.1253 92.6228C77.7075 93.103 78.2638 93.6187 78.8699 94.0596C79.1623 94.2956 79.4847 94.4872 79.79 94.7032C80.1132 94.889 80.4236 95.1 80.7603 95.2577C81.4109 95.6111 82.1029 95.8822 82.8204 96.0648C84.2535 96.4448 85.7763 96.2851 87.0991 95.6159C88.4285 94.9066 89.5451 93.8565 90.3344 92.5734C90.3373 92.5678 90.3422 92.5637 90.3481 92.5618C90.3541 92.5599 90.3605 92.5604 90.366 92.5633C90.3712 92.5664 90.375 92.5713 90.3769 92.5771C90.3787 92.5828 90.3785 92.5891 90.3761 92.5946C89.6896 93.988 88.6107 95.1503 87.2721 95.9388C86.5865 96.3275 85.8323 96.5803 85.0509 96.6833C84.2669 96.7759 83.4727 96.7254 82.7068 96.5343C81.9464 96.3538 81.2145 96.0694 80.5317 95.6892C80.1831 95.5162 79.8666 95.2921 79.5359 95.092C79.2255 94.8633 78.897 94.6575 78.6025 94.4098C77.9852 93.9463 77.4447 93.4049 76.8735 92.8963C76.5821 92.6485 76.3352 92.3528 76.0677 92.0803C75.81 91.7978 75.5311 91.5361 75.2917 91.2374C74.2929 90.0834 73.386 88.8531 72.5791 87.5578C71.7574 86.2627 71.103 84.869 70.6314 83.4097C70.4012 82.6713 70.2509 81.9105 70.183 81.1401C70.1701 80.9427 70.1585 80.7586 70.1628 80.5445C70.1852 80.3417 70.2126 80.153 70.2438 79.9587C70.3058 79.5714 70.4035 79.1906 70.5356 78.8212C70.595 78.6173 70.6945 78.4273 70.8282 78.2623C70.9619 78.0973 71.1271 77.9605 71.3142 77.8599C71.5245 77.7775 71.7574 77.7727 71.971 77.8466C72.1651 77.913 72.3464 78.0123 72.507 78.14C73.0965 78.6421 73.5836 79.2531 73.9416 79.9396C73.9431 79.9423 73.9441 79.9452 73.9445 79.9483C73.9449 79.9513 73.9447 79.9544 73.9439 79.9574C73.943 79.9603 73.9416 79.9631 73.9398 79.9655C73.9379 79.9679 73.9355 79.97 73.9328 79.9715C73.9276 79.9742 73.9215 79.9749 73.9158 79.9735C73.91 79.9721 73.905 79.9687 73.9015 79.9639Z" fill="#332941"/>
<path d="M75.3273 77.9785C74.5741 77.5149 73.734 77.2103 72.8586 77.0835C71.9962 76.926 71.106 77.0854 70.3519 77.5323C69.9963 77.7793 69.6973 78.099 69.4748 78.4702L68.7094 79.5691C68.2028 80.3159 67.6356 81.0197 67.0135 81.6734C66.999 81.6878 66.9816 81.6989 66.9626 81.7061C66.9435 81.7133 66.9231 81.7164 66.9028 81.7153L66.8914 81.7146C63.7388 81.5279 60.5755 81.4531 57.4204 81.4744C55.8425 81.4875 54.2663 81.5508 52.6992 81.6738C51.1441 81.7598 49.6044 82.027 48.1114 82.4699L48.085 82.4771L48.0489 82.4848C47.2225 82.6962 46.4353 83.0387 45.7174 83.4992C45.344 83.7253 44.9846 83.9739 44.6413 84.2436L44.1212 84.6437C43.9534 84.7843 43.7952 84.9375 43.6317 85.0836C42.329 86.2736 41.1718 87.6133 40.1839 89.0749C38.2012 92.0227 36.5807 95.1982 35.3572 98.5331C35.0548 99.3699 34.7236 100.196 34.4446 101.041L33.6461 103.591C33.3759 104.43 33.1343 105.32 32.8195 106.17C32.5135 107.028 32.1554 107.858 31.8126 108.683L30.7572 111.159L30.2076 112.393C30.0204 112.82 29.8116 113.237 29.5821 113.643C29.5356 113.719 29.4827 113.791 29.424 113.857C29.4575 113.859 29.4604 113.782 29.4622 113.813C29.4569 113.861 29.4589 113.909 29.4683 113.957C29.5034 114.131 29.5635 114.3 29.6468 114.457C29.831 114.808 30.0768 115.124 30.3727 115.388C30.977 115.931 31.7327 116.276 32.5386 116.378L32.2218 117.147C31.7247 116.759 31.2542 116.338 30.8135 115.887C30.5719 115.644 30.3613 115.372 30.1864 115.077C30.1337 114.981 30.0918 114.88 30.0616 114.775C30.0457 114.705 30.035 114.635 30.0295 114.564C30.0294 114.471 30.0453 114.379 30.0763 114.291C30.1116 114.197 30.1684 114.113 30.2422 114.044C30.2764 114.012 30.3124 113.982 30.35 113.955C30.3827 113.936 30.4145 113.921 30.4476 113.905C30.5586 113.854 30.6769 113.821 30.7983 113.807C31.145 113.783 31.4935 113.807 31.8333 113.881C32.1508 113.938 32.4547 114.015 32.7574 114.095L33.66 114.381L34.533 114.731C36.8133 115.76 38.8356 117.125 40.9409 118.327C43.0325 119.547 45.1957 120.641 47.4188 121.603C49.6493 122.552 51.9289 123.382 54.248 124.088L54.2508 124.089C54.3143 124.108 54.3693 124.149 54.4065 124.204C54.4438 124.259 54.4611 124.326 54.4556 124.392C54.2548 126.657 54.1734 128.931 54.2119 131.204C54.2276 132.335 54.3243 133.463 54.5011 134.58C54.5852 135.125 54.7418 135.656 54.9668 136.159C55.0715 136.386 55.2282 136.585 55.4242 136.74C55.4744 136.761 55.523 136.785 55.5716 136.811C55.6228 136.826 55.6774 136.825 55.7298 136.837C55.8477 136.852 56.0085 136.843 56.1458 136.847L69.8553 136.884C74.4251 136.907 78.9946 136.882 83.5643 136.877L97.2735 136.83L97.1154 136.9C98.0489 135.917 99.0705 135.022 100.168 134.226C101.262 133.418 102.451 132.747 103.708 132.226C104.979 131.692 106.344 131.418 107.723 131.421C108.422 131.433 109.117 131.534 109.792 131.721L111.691 132.357C112.326 132.563 112.962 132.764 113.6 132.949C114.213 133.156 114.848 133.293 115.492 133.358C116.207 133.438 116.898 133.663 117.525 134.017C117.854 134.193 118.152 134.423 118.405 134.697C118.547 134.849 118.657 135.027 118.728 135.222C118.799 135.417 118.831 135.624 118.82 135.832C118.838 136.185 118.826 136.539 118.784 136.89C118.74 137.298 118.568 137.681 118.292 137.984C117.995 138.278 117.603 138.456 117.186 138.489C116.82 138.528 116.45 138.516 116.087 138.454C115.74 138.4 115.398 138.322 115.062 138.221L114.104 137.931C113.798 137.843 113.486 137.775 113.171 137.727C112.91 137.674 112.641 137.677 112.381 137.735L112.476 137.083C113.744 137.971 115.233 138.49 116.778 138.584C117.559 138.625 118.343 138.58 119.114 138.45C119.91 138.341 120.7 138.208 121.503 138.074C121.907 138.01 122.308 137.94 122.752 137.911C122.996 137.891 123.241 137.905 123.48 137.954C123.769 138.016 124.03 138.17 124.224 138.393C124.391 138.591 124.519 138.819 124.602 139.065C124.837 139.725 124.872 140.44 124.703 141.12C124.583 141.572 124.371 141.994 124.079 142.358C123.787 142.723 123.422 143.022 123.008 143.238C122.231 143.636 121.385 143.884 120.516 143.968L120.895 143.683C120.692 144.146 120.44 144.586 120.144 144.995C119.849 145.409 119.506 145.785 119.123 146.118C118.719 146.455 118.26 146.721 117.766 146.902C117.257 147.073 116.72 147.142 116.184 147.103L116.589 146.936C115.766 147.895 114.958 148.837 114.031 149.743C113.912 149.856 113.787 149.97 113.648 150.082C113.504 150.191 113.354 150.291 113.198 150.381C112.905 150.546 112.601 150.69 112.288 150.811C111.677 151.049 111.045 151.23 110.401 151.352C109.126 151.589 107.824 151.649 106.532 151.53C106.21 151.507 105.892 151.455 105.571 151.419L104.622 151.253L103.733 151.107L102.827 151.013C100.363 150.886 97.8916 150.966 95.4401 151.251C92.9717 151.501 90.5102 151.874 88.0609 152.307C86.8457 152.523 85.6421 152.808 84.416 153.078C83.1951 153.35 81.97 153.614 80.7416 153.861C78.2838 154.352 75.8151 154.799 73.3319 155.155C68.3665 155.891 63.3565 156.287 58.337 156.34C57.7096 156.343 57.0825 156.366 56.4551 156.351L54.5733 156.309C53.3183 156.3 52.066 156.211 50.8135 156.136C49.5594 156.083 48.312 155.938 47.0632 155.816C46.436 155.747 45.8217 155.709 45.1821 155.609C44.5487 155.511 43.9216 155.376 43.3042 155.204C40.8102 154.532 38.5479 153.19 36.7626 151.324C34.9748 149.447 33.8444 147.042 33.5409 144.468C32.9914 139.481 32.7708 134.486 32.6457 129.489C32.5365 124.492 32.5229 119.496 32.6046 114.5C32.6048 114.487 32.6101 114.475 32.6194 114.466C32.6287 114.456 32.6413 114.451 32.6544 114.452C32.6675 114.452 32.6799 114.457 32.6891 114.466C32.6983 114.476 32.7033 114.488 32.7032 114.501C32.7241 119.495 32.8392 124.486 33.0484 129.476C33.2694 134.46 33.5421 139.453 34.1619 144.388C34.4802 146.814 35.5785 149.071 37.2914 150.819C38.9983 152.568 41.1504 153.818 43.5157 154.434C44.1033 154.593 44.6997 154.716 45.3019 154.804C45.8978 154.892 46.5321 154.928 47.147 154.99C48.3857 155.1 49.6222 155.233 50.8659 155.276C52.1079 155.338 53.3491 155.416 54.5934 155.414L56.4585 155.44C57.0802 155.45 57.7021 155.421 58.3238 155.413L60.1887 155.375L62.0519 155.279C63.2948 155.23 64.534 155.121 65.7738 155.021C67.0151 154.941 68.2493 154.775 69.4872 154.655C70.7214 154.501 71.9565 154.349 73.1868 154.165C75.6497 153.808 78.0988 153.36 80.5394 152.868C81.7595 152.619 82.9763 152.355 84.1938 152.082C85.4068 151.812 86.6347 151.519 87.8793 151.295C90.3488 150.853 92.8308 150.473 95.3335 150.215C97.8473 149.917 100.383 149.842 102.91 149.992L103.867 150.097L104.826 150.258L105.722 150.42C106.022 150.454 106.321 150.506 106.622 150.528C107.821 150.645 109.03 150.596 110.216 150.381C110.8 150.274 111.373 150.113 111.929 149.901C112.198 149.798 112.46 149.676 112.713 149.536C112.827 149.471 112.938 149.398 113.044 149.32C113.149 149.236 113.255 149.141 113.364 149.039C114.228 148.204 115.056 147.253 115.863 146.321C115.91 146.266 115.969 146.223 116.035 146.194C116.1 146.165 116.172 146.151 116.244 146.154L116.268 146.154C116.67 146.184 117.073 146.135 117.456 146.009C117.843 145.867 118.202 145.661 118.52 145.398C118.846 145.118 119.137 144.799 119.388 144.451C119.642 144.102 119.86 143.728 120.038 143.334L120.039 143.332C120.073 143.256 120.125 143.19 120.191 143.14C120.258 143.091 120.336 143.059 120.418 143.049C121.164 142.981 121.89 142.775 122.561 142.441C122.869 142.288 123.142 142.071 123.36 141.805C123.579 141.539 123.738 141.23 123.828 140.898C123.917 140.562 123.936 140.212 123.883 139.87C123.85 139.553 123.739 139.249 123.56 138.985C123.49 138.897 123.389 138.837 123.278 138.818C123.12 138.787 122.958 138.779 122.798 138.792C122.433 138.81 122.034 138.873 121.639 138.932C120.843 139.056 120.034 139.184 119.225 139.286C118.397 139.416 117.557 139.454 116.72 139.4C115.013 139.281 113.374 138.684 111.991 137.679L111.983 137.673C111.929 137.633 111.887 137.579 111.861 137.516C111.836 137.454 111.828 137.386 111.838 137.319C111.849 137.252 111.877 137.19 111.921 137.138C111.965 137.087 112.021 137.048 112.086 137.027C112.474 136.91 112.886 136.894 113.283 136.979C113.629 137.035 113.972 137.113 114.308 137.213L115.269 137.514C115.573 137.609 115.884 137.684 116.198 137.737C116.804 137.84 117.464 137.829 117.788 137.491C118.13 137.158 118.151 136.499 118.136 135.841C118.138 135.766 118.135 135.691 118.127 135.616C118.126 135.562 118.114 135.508 118.091 135.459C118.048 135.34 117.981 135.231 117.896 135.138C117.695 134.92 117.459 134.736 117.198 134.594C116.658 134.282 116.062 134.08 115.444 133.998C114.755 133.924 114.077 133.772 113.423 133.545C112.777 133.35 112.139 133.141 111.502 132.927L109.599 132.268C108.983 132.095 108.349 131.998 107.709 131.979C106.404 131.965 105.108 132.212 103.9 132.705C101.458 133.738 99.2559 135.264 97.4313 137.187L97.4245 137.194C97.4047 137.214 97.3812 137.23 97.3552 137.241C97.3292 137.251 97.3013 137.257 97.2731 137.257L83.5653 137.211C78.996 137.205 74.4266 137.18 69.8574 137.203L56.1498 137.24C56.0019 137.238 55.8758 137.249 55.7099 137.236C55.6214 137.228 55.5336 137.214 55.4472 137.193L55.207 137.082C54.9458 136.891 54.7356 136.639 54.595 136.348C54.3441 135.812 54.1667 135.244 54.0679 134.66C53.8711 133.523 53.7563 132.373 53.7243 131.22C53.6537 128.926 53.7042 126.63 53.8756 124.342L54.0831 124.646C51.7316 123.965 49.4185 123.158 47.1537 122.229C44.8917 121.286 42.6884 120.208 40.5558 119.001C38.4139 117.825 36.375 116.458 34.2025 115.494L33.3788 115.167L32.5393 114.904C32.2529 114.83 31.9657 114.759 31.6836 114.71C31.4273 114.655 31.1649 114.634 30.9031 114.647C30.8681 114.656 30.807 114.663 30.8154 114.668L30.8097 114.667C30.8185 114.665 30.8263 114.66 30.8323 114.653C30.8364 114.64 30.8651 114.62 30.8702 114.591C30.885 114.474 30.8696 114.584 30.9347 114.673C31.0755 114.899 31.2422 115.109 31.4313 115.297C31.8441 115.715 32.2842 116.105 32.7485 116.465L32.7525 116.468C32.8266 116.526 32.8796 116.607 32.9032 116.698C32.9269 116.789 32.92 116.886 32.8836 116.973C32.8471 117.059 32.7832 117.132 32.7016 117.179C32.62 117.226 32.5252 117.245 32.4317 117.233C31.4471 117.113 30.5231 116.694 29.7837 116.033C29.4095 115.7 29.0984 115.302 28.8651 114.859C28.738 114.62 28.6478 114.364 28.5975 114.098C28.5648 113.925 28.5693 113.748 28.6109 113.577C28.645 113.45 28.7085 113.333 28.7962 113.235C28.806 113.208 28.7995 113.233 28.8312 113.175C29.0247 112.841 29.2209 112.418 29.406 112.024L29.9554 110.807L31.0186 108.348C31.3676 107.521 31.7232 106.708 32.0227 105.881C32.3341 105.052 32.5658 104.213 32.8481 103.35L33.6686 100.778C33.9552 99.9246 34.2949 99.0886 34.6056 98.2435C35.8692 94.8558 37.5365 91.6325 39.5714 88.6433C40.09 87.8985 40.6461 87.1804 41.2375 86.4918C41.84 85.8083 42.4849 85.1633 43.1685 84.5608C43.3406 84.4108 43.5068 84.2545 43.6838 84.1101L44.2334 83.698C44.5981 83.4193 44.9793 83.1629 45.3749 82.9302C46.1726 82.4314 47.0484 82.0699 47.9658 81.8607L47.9034 81.8757C49.4517 81.4337 51.0467 81.1756 52.6554 81.1068C54.2438 81.0024 55.8319 80.9595 57.4181 80.9665C60.5913 80.9732 63.7561 81.1339 66.9163 81.3858L66.7944 81.4268C67.4129 80.8008 67.9798 80.1259 68.4896 79.4087L69.2751 78.3314C69.5224 77.9419 69.8489 77.6089 70.2334 77.3539C70.6223 77.1033 71.065 76.9485 71.5253 76.9021C71.9763 76.8485 72.4325 76.8575 72.881 76.9288C73.7724 77.0771 74.6238 77.4066 75.3826 77.897C75.3935 77.904 75.4013 77.915 75.4041 77.9276C75.407 77.9403 75.4048 77.9535 75.3979 77.9645C75.391 77.9755 75.3801 77.9834 75.3675 77.9864C75.3549 77.9894 75.3416 77.9872 75.3305 77.9805L75.3273 77.9785Z" fill="#332941"/>
<path d="M52.1843 86.3348C52.7987 86.509 53.3562 86.8421 53.8005 87.3006C54.2584 87.7519 54.6246 88.2875 54.879 88.8778C55.1338 89.4647 55.2771 90.094 55.3015 90.7334C55.3137 91.0481 55.2976 91.3633 55.2533 91.6751C55.1997 91.9845 55.1178 92.2883 55.0088 92.5828C54.8995 92.2781 54.8502 91.984 54.7698 91.6966C54.6836 91.411 54.632 91.1267 54.5361 90.8549C54.3833 90.3151 54.1959 89.7857 53.9751 89.2699C53.7536 88.7571 53.4947 88.2613 53.2004 87.7865C52.8921 87.282 52.5527 86.7972 52.1843 86.3348Z" fill="#332941"/>
<path d="M54.334 98.1408C54.5238 100.327 54.6165 102.514 54.6749 104.699C54.7394 106.885 54.7463 109.071 54.7421 111.256C54.7195 113.442 54.6844 115.627 54.592 117.812C54.5057 119.997 54.3844 122.182 54.1652 124.366C53.9742 122.179 53.881 119.993 53.8229 117.807C53.7586 115.621 53.7516 113.435 53.7571 111.25C53.781 109.065 53.816 106.879 53.9087 104.695C53.9952 102.51 54.116 100.325 54.334 98.1408Z" fill="#332941"/>
<path d="M99.4486 83.6957C101.253 84.8245 103.025 86.0002 104.764 87.2228C105.634 87.8332 106.497 88.4547 107.353 89.0872L108.627 90.0598C108.85 90.2272 109.061 90.4113 109.256 90.6105L109.559 90.9264L109.814 91.2493C110.474 92.1003 111.076 92.9947 111.616 93.9265C112.161 94.8446 112.69 95.7687 113.206 96.6989C114.224 98.5677 115.272 100.416 116.351 102.243C116.891 103.157 117.441 104.065 118.001 104.967L118.839 106.32C119.087 106.762 119.383 107.176 119.719 107.556C120.076 107.906 120.502 108.253 120.872 108.688C121.31 109.145 121.574 109.74 121.617 110.371C121.584 111.018 121.302 111.627 120.83 112.071C120.628 112.275 120.416 112.468 120.195 112.65C119.996 112.81 119.804 112.978 119.615 113.151C119.236 113.499 118.887 113.865 118.532 114.258C118.171 114.657 117.797 115.044 117.417 115.427C116.651 116.192 115.837 116.908 114.981 117.57C114.108 118.246 113.158 118.816 112.15 119.267C111.622 119.49 111.066 119.644 110.498 119.724C109.902 119.812 109.292 119.759 108.72 119.569C108.629 119.541 108.551 119.481 108.501 119.4L108.498 119.394C108.128 118.782 107.723 118.171 107.314 117.573C106.904 116.973 106.476 116.387 106.028 115.815C105.578 115.248 105.098 114.705 104.588 114.191C104.098 113.662 103.497 113.247 102.829 112.975L102.825 112.973C102.814 112.969 102.804 112.961 102.798 112.95C102.792 112.939 102.791 112.926 102.794 112.914C102.798 112.902 102.805 112.892 102.816 112.885C102.826 112.879 102.839 112.876 102.851 112.879C103.582 113.067 104.257 113.426 104.822 113.925C105.401 114.394 105.944 114.905 106.446 115.456C107.454 116.547 108.38 117.712 109.217 118.939L108.996 118.764C109.934 118.956 110.91 118.814 111.755 118.363C112.678 117.924 113.545 117.376 114.339 116.733C115.161 116.094 115.947 115.411 116.694 114.686C117.072 114.325 117.445 113.958 117.807 113.58C118.173 113.195 118.568 112.801 118.981 112.443C119.189 112.263 119.401 112.087 119.621 111.92C119.82 111.754 120.009 111.612 120.175 111.443C120.498 111.165 120.709 110.779 120.769 110.358C120.743 109.92 120.569 109.505 120.274 109.18C119.972 108.792 119.591 108.44 119.221 108.018C119.123 107.907 119.032 107.792 118.947 107.671L118.734 107.31L118.349 106.605L117.598 105.198C117.102 104.259 116.596 103.326 116.079 102.399C115.042 100.548 113.949 98.7272 112.765 96.9662C111.591 95.2077 110.401 93.4275 109.129 91.8029L108.889 91.5026L108.638 91.2464C108.466 91.0626 108.28 90.8929 108.081 90.739L106.842 89.7552L104.34 87.7919C102.669 86.4845 101.019 85.1457 99.3907 83.7755C99.3811 83.7674 99.375 83.7561 99.3734 83.7436C99.3719 83.7312 99.3751 83.7187 99.3825 83.7086C99.3898 83.6984 99.4008 83.6915 99.413 83.6891C99.4253 83.6867 99.4381 83.6891 99.4487 83.6957L99.4486 83.6957Z" fill="#332941"/>
<path d="M106.046 99.603C105.184 102.844 104.369 106.092 103.689 109.353C103.339 110.97 103.094 112.608 102.957 114.256C102.91 115.048 102.906 115.924 102.836 116.772C102.768 117.636 102.623 118.494 102.403 119.333C101.886 120.992 101.056 122.537 99.9585 123.885C99.4515 124.56 98.9143 125.214 98.4113 125.871C98.1694 126.197 97.9239 126.52 97.7067 126.869C97.4737 127.206 97.2631 127.56 97.0534 127.915C96.2282 129.357 95.4903 130.847 94.8438 132.377C94.1617 133.901 93.5736 135.467 92.9988 137.043C93.7306 133.749 94.8667 130.558 96.3811 127.542C96.7721 126.779 97.22 126.047 97.7209 125.352C98.2178 124.665 98.7269 124.01 99.2066 123.332C100.216 122.064 100.978 120.618 101.454 119.069C101.666 118.289 101.808 117.492 101.878 116.687C101.956 115.866 101.954 115.065 102.029 114.187C102.205 112.499 102.51 110.827 102.941 109.185C103.769 105.927 104.806 102.727 106.046 99.603Z" fill="#332941"/>
<path d="M120.466 111.802C121.551 112.644 122.578 113.541 123.622 114.376C123.886 114.579 124.149 114.779 124.406 114.954L124.836 115.21C124.994 115.31 125.144 115.415 125.288 115.525C125.841 115.971 126.35 116.468 126.808 117.012C127.717 118.088 128.432 119.313 128.921 120.634C129.432 121.942 129.577 123.365 129.339 124.75C129.195 123.42 128.815 122.127 128.217 120.93C127.634 119.751 126.908 118.648 126.056 117.646C125.645 117.143 125.19 116.677 124.697 116.254C124.578 116.149 124.455 116.051 124.332 115.961L123.905 115.664C123.624 115.447 123.358 115.211 123.108 114.958C122.132 113.99 121.248 112.933 120.466 111.802Z" fill="#332941"/>
<path d="M109.586 119.313C110.555 120.612 111.217 122.114 111.523 123.706C111.557 123.908 111.586 124.113 111.613 124.319C111.633 124.518 111.635 124.753 111.66 124.923C111.698 125.272 111.781 125.614 111.907 125.941C112.182 126.639 112.534 127.304 112.957 127.924C113.376 128.566 113.837 129.179 114.337 129.76C114.579 130.059 114.846 130.337 115.102 130.625C115.381 130.889 115.635 131.184 115.921 131.441C117.015 132.55 118.324 133.424 119.768 134.007C118.964 133.925 118.181 133.697 117.459 133.334C116.737 132.967 116.054 132.527 115.419 132.023C114.143 131.017 113.034 129.816 112.133 128.463C111.675 127.771 111.304 127.025 111.027 126.243C110.893 125.824 110.816 125.389 110.799 124.95C110.786 124.728 110.792 124.567 110.792 124.372L110.763 123.808C110.587 122.261 110.19 120.747 109.586 119.313Z" fill="#332941"/>
<path d="M120.466 131.956C120.565 131.321 120.785 130.712 121.115 130.16C121.438 129.603 121.831 129.089 122.284 128.631C122.742 128.18 123.25 127.784 123.799 127.45C124.071 127.284 124.353 127.133 124.642 126.999C124.937 126.877 125.233 126.759 125.533 126.661C125.01 127.023 124.495 127.372 124.006 127.751C123.518 128.126 123.053 128.53 122.615 128.961C122.183 129.396 121.784 129.863 121.421 130.357C121.051 130.857 120.731 131.393 120.466 131.956Z" fill="#332941"/>
<path d="M122.245 133.08C123.34 131.33 124.539 129.648 125.837 128.042C126.485 127.238 127.16 126.452 127.859 125.684C128.571 124.921 129.325 124.198 130.117 123.519C130.925 122.81 131.834 122.226 132.814 121.785C133.344 121.562 133.915 121.453 134.49 121.464C135.079 121.479 135.655 121.644 136.163 121.943C137.109 122.552 137.833 123.45 138.227 124.504C138.433 125.006 138.581 125.528 138.67 126.063C138.779 126.616 138.768 127.187 138.637 127.735L138.479 127.39C139.588 127.955 140.656 128.567 141.714 129.205C142.771 129.842 143.814 130.504 144.819 131.223C145.845 131.922 146.796 132.726 147.657 133.622C148.092 134.084 148.462 134.604 148.754 135.167C149.076 135.767 149.152 136.469 148.967 137.124L148.973 137.105C148.833 137.648 148.533 138.135 148.112 138.504C147.883 138.688 147.616 138.819 147.331 138.888C147.046 138.958 146.75 138.964 146.462 138.907C145.928 138.798 145.421 138.586 144.968 138.283C144.533 137.999 144.122 137.68 143.74 137.328L144.4 137.043C144.381 137.718 144.237 138.385 143.973 139.007C143.715 139.635 143.329 140.203 142.839 140.674C142.348 141.138 141.773 141.503 141.145 141.751C140.88 141.866 140.621 141.996 140.37 142.141C140.254 142.207 140.143 142.28 140.038 142.361C139.998 142.391 139.961 142.425 139.927 142.461C139.9 142.484 139.907 142.511 139.931 142.423L139.764 141.952C140.071 142.218 140.325 142.54 140.512 142.901C140.712 143.271 140.816 143.685 140.817 144.106C140.817 144.527 140.712 144.942 140.512 145.312C140.33 145.664 140.091 145.983 139.804 146.256C139.228 146.799 138.496 147.147 137.711 147.252C137.347 147.296 136.979 147.313 136.613 147.303C136.218 147.302 135.826 147.24 135.45 147.118L135.799 147.119C134.651 147.475 133.471 147.717 132.277 147.845C131.085 147.966 129.883 147.96 128.693 147.825C128.073 147.767 127.465 147.623 126.884 147.399C126.561 147.274 126.269 147.081 126.028 146.833C125.787 146.586 125.601 146.289 125.485 145.963C125.315 145.311 125.393 144.618 125.706 144.021C125.845 143.731 126.026 143.464 126.242 143.226C126.472 142.938 126.803 142.749 127.167 142.695L127.126 142.7C127.298 142.674 127.471 142.66 127.645 142.656C127.816 142.653 127.987 142.659 128.157 142.675C128.504 142.703 128.844 142.794 129.16 142.943L128.906 143.239C128.749 142.962 128.627 142.666 128.541 142.358C128.453 142.052 128.413 141.735 128.424 141.417C128.436 141.095 128.526 140.782 128.689 140.504C128.853 140.236 129.077 140.01 129.343 139.842C129.354 139.835 129.367 139.832 129.38 139.835C129.393 139.837 129.404 139.845 129.411 139.856C129.418 139.866 129.42 139.879 129.418 139.891C129.416 139.903 129.41 139.914 129.4 139.922C129.169 140.101 128.983 140.331 128.854 140.593C128.733 140.851 128.675 141.135 128.687 141.42C128.7 141.706 128.759 141.988 128.86 142.256C128.958 142.524 129.088 142.78 129.247 143.017C129.271 143.053 129.283 143.095 129.281 143.138C129.28 143.181 129.265 143.222 129.238 143.255C129.212 143.289 129.175 143.314 129.134 143.325C129.093 143.337 129.049 143.335 129.009 143.32L128.993 143.314C128.714 143.212 128.42 143.156 128.124 143.147C127.973 143.142 127.821 143.145 127.67 143.158C127.523 143.169 127.375 143.19 127.23 143.22L127.21 143.223L127.189 143.224C126.983 143.296 126.804 143.431 126.678 143.609C126.514 143.813 126.381 144.039 126.281 144.281C126.071 144.736 126.035 145.252 126.181 145.732C126.273 145.951 126.411 146.147 126.586 146.308C126.761 146.469 126.968 146.59 127.194 146.664C127.707 146.837 128.242 146.94 128.783 146.97C129.91 147.057 131.043 147.022 132.162 146.867C133.28 146.729 134.382 146.484 135.453 146.136C135.562 146.1 135.68 146.099 135.79 146.134L135.802 146.138C136.381 146.265 136.978 146.289 137.566 146.209C138.133 146.136 138.663 145.887 139.081 145.497C139.492 145.14 139.749 144.639 139.8 144.097C139.802 143.838 139.742 143.582 139.624 143.352C139.502 143.109 139.339 142.889 139.141 142.703L139.106 142.671C139.047 142.616 139.003 142.547 138.98 142.469C138.957 142.392 138.955 142.31 138.974 142.231C139.013 142.068 139.096 141.919 139.215 141.801C139.287 141.725 139.366 141.656 139.45 141.594C139.591 141.489 139.74 141.394 139.895 141.31C140.183 141.151 140.48 141.009 140.784 140.885C141.314 140.691 141.802 140.397 142.221 140.018C142.632 139.636 142.963 139.177 143.196 138.667C143.433 138.155 143.575 137.605 143.616 137.043L143.618 137.014C143.622 136.94 143.648 136.868 143.692 136.808C143.736 136.748 143.796 136.702 143.865 136.675C143.934 136.648 144.01 136.642 144.083 136.656C144.156 136.671 144.223 136.706 144.276 136.758C144.617 137.092 144.983 137.399 145.371 137.676C145.734 137.95 146.146 138.151 146.585 138.269C146.784 138.323 146.993 138.332 147.196 138.295C147.4 138.258 147.592 138.177 147.76 138.056C148.105 137.778 148.36 137.404 148.491 136.981L148.497 136.962C148.67 136.426 148.628 135.844 148.379 135.338C148.133 134.795 147.8 134.295 147.394 133.858C146.567 132.964 145.645 132.162 144.645 131.466C142.628 130.078 140.481 128.89 138.232 127.92C138.172 127.893 138.123 127.846 138.093 127.786C138.063 127.727 138.055 127.659 138.07 127.595L138.074 127.574C138.149 127.113 138.127 126.64 138.01 126.187C137.904 125.712 137.744 125.249 137.535 124.809C137.159 123.94 136.529 123.204 135.727 122.7C135.332 122.485 134.892 122.364 134.442 122.347C133.992 122.329 133.544 122.416 133.133 122.599C132.232 122.997 131.393 123.522 130.642 124.16C129.853 124.796 129.1 125.476 128.387 126.196C127.66 126.909 126.956 127.651 126.273 128.413C124.915 129.944 123.594 131.517 122.326 133.136C122.322 133.141 122.317 133.145 122.312 133.149C122.306 133.152 122.3 133.154 122.293 133.155C122.287 133.156 122.28 133.155 122.274 133.154C122.268 133.152 122.262 133.149 122.257 133.145C122.247 133.138 122.241 133.127 122.238 133.115C122.236 133.103 122.238 133.09 122.245 133.08Z" fill="#332941"/>
<path d="M132.141 125.575C132.147 126.487 132.263 127.395 132.487 128.279C132.604 128.697 132.789 129.092 133.035 129.449C133.268 129.785 133.618 130.022 134.017 130.111C134.428 130.21 134.858 130.205 135.267 130.098C135.691 129.999 136.093 129.822 136.453 129.576C137.199 129.057 137.844 128.406 138.356 127.655C137.994 128.529 137.416 129.298 136.676 129.889C136.295 130.206 135.848 130.433 135.367 130.555C134.886 130.676 134.384 130.688 133.898 130.589C133.39 130.466 132.947 130.156 132.657 129.721C132.393 129.309 132.209 128.85 132.115 128.369C131.946 127.445 131.955 126.496 132.141 125.575Z" fill="#332941"/>
<path d="M139.396 134.289C140.333 134.323 141.244 134.604 142.037 135.103C142.437 135.345 142.808 135.632 143.142 135.959C143.476 136.282 143.767 136.647 144.008 137.044C143.657 136.741 143.32 136.439 142.962 136.166C142.609 135.89 142.24 135.635 141.856 135.404C141.473 135.17 141.077 134.961 140.668 134.777C140.255 134.588 139.83 134.425 139.396 134.289Z" fill="#332941"/>
<path d="M129.076 143.129C129.293 143.348 129.544 143.532 129.818 143.674C130.085 143.829 130.356 143.975 130.63 144.116C131.177 144.398 131.734 144.668 132.293 144.932C133.407 145.473 134.535 145.99 135.625 146.628C134.401 146.343 133.211 145.923 132.079 145.376C131.509 145.105 130.959 144.794 130.434 144.445C129.881 144.122 129.415 143.671 129.076 143.129Z" fill="#332941"/>
<path d="M137.765 136.424C137.958 136.53 138.126 136.674 138.26 136.849C138.336 136.942 138.392 137.051 138.422 137.168C138.452 137.285 138.456 137.407 138.433 137.525C138.363 137.76 138.217 137.965 138.017 138.108C137.837 138.246 137.64 138.361 137.43 138.449C137.334 138.49 137.241 138.537 137.152 138.591C137.067 138.632 136.986 138.679 136.908 138.732L136.695 138.918C136.631 138.988 136.572 139.062 136.519 139.14C136.294 139.453 136.159 139.821 136.13 140.205C136.073 140.584 136.13 140.971 136.293 141.317C136.456 141.664 136.718 141.955 137.046 142.153C137.126 142.208 137.216 142.248 137.31 142.273C137.403 142.304 137.494 142.345 137.59 142.371C137.789 142.409 137.991 142.434 138.194 142.444C138.403 142.449 138.612 142.442 138.82 142.422C139.027 142.385 139.237 142.355 139.452 142.327C139.254 142.405 139.051 142.48 138.845 142.55C138.634 142.608 138.42 142.653 138.203 142.685C137.98 142.704 137.756 142.705 137.532 142.688C137.419 142.669 137.308 142.643 137.198 142.611C137.084 142.59 136.974 142.551 136.871 142.496C136.436 142.298 136.084 141.955 135.875 141.525C135.673 141.099 135.592 140.625 135.64 140.156C135.687 139.686 135.862 139.239 136.146 138.862C136.218 138.768 136.297 138.679 136.382 138.597L136.664 138.377C136.861 138.263 137.07 138.168 137.286 138.094C137.662 138.008 137.991 137.78 138.203 137.457C138.234 137.369 138.246 137.275 138.237 137.182C138.228 137.088 138.198 136.998 138.15 136.918C138.049 136.734 137.919 136.567 137.765 136.424Z" fill="#332941"/>
<path d="M133.772 126.98C133.83 127.239 133.909 127.493 134.009 127.738C134.092 127.972 134.239 128.177 134.434 128.33C134.531 128.399 134.643 128.446 134.76 128.468C134.877 128.49 134.998 128.487 135.114 128.458C135.241 128.435 135.366 128.403 135.489 128.362C135.612 128.315 135.733 128.26 135.865 128.217C135.762 128.305 135.649 128.381 135.538 128.466C135.415 128.532 135.286 128.588 135.154 128.634C135.012 128.682 134.861 128.697 134.712 128.677C134.564 128.657 134.422 128.603 134.298 128.52C134.071 128.335 133.91 128.081 133.839 127.798C133.764 127.532 133.742 127.254 133.772 126.98Z" fill="#332941"/>
<path d="M134.222 126.661C134.487 126.586 134.76 126.549 135.035 126.552C135.315 126.553 135.593 126.598 135.86 126.683C136.138 126.774 136.38 126.95 136.553 127.185C136.702 127.43 136.754 127.721 136.697 128.002C136.665 127.745 136.566 127.5 136.409 127.293C136.24 127.108 136.023 126.973 135.782 126.904C135.276 126.751 134.751 126.669 134.222 126.661Z" fill="#332941"/>
<path d="M137.99 141.484C138.088 141.284 138.236 141.113 138.421 140.989C138.52 140.921 138.631 140.873 138.748 140.849C138.865 140.824 138.986 140.824 139.104 140.848C139.328 140.919 139.524 141.059 139.667 141.246C139.725 141.341 139.787 141.433 139.837 141.529C139.875 141.633 139.918 141.732 139.948 141.836C139.803 141.672 139.676 141.508 139.532 141.365C139.398 141.229 139.232 141.129 139.049 141.075C138.866 141.032 138.674 141.057 138.509 141.145C138.322 141.236 138.148 141.35 137.99 141.484Z" fill="#332941"/>
<path d="M129.339 142.575C129.352 142.189 129.45 141.811 129.627 141.468C129.674 141.372 129.74 141.286 129.821 141.217C129.902 141.147 129.997 141.094 130.099 141.062C130.207 141.042 130.318 141.046 130.424 141.074C130.53 141.102 130.628 141.154 130.712 141.225C130.874 141.348 131.012 141.499 131.118 141.673C131.227 141.856 131.263 142.074 131.221 142.283C131.163 142.471 131.064 142.645 130.932 142.791C130.799 142.937 130.636 143.052 130.454 143.128C130.748 142.915 130.957 142.604 131.043 142.252C131.059 142.087 131.02 141.922 130.935 141.781C130.838 141.638 130.715 141.514 130.574 141.414C130.518 141.359 130.451 141.318 130.377 141.293C130.303 141.268 130.225 141.26 130.147 141.27C129.993 141.321 129.863 141.425 129.779 141.564C129.585 141.879 129.437 142.219 129.339 142.575Z" fill="#332941"/>
<path d="M123.327 139.722C123.304 140.107 123.196 140.483 123.01 140.821C122.961 140.916 122.893 141 122.81 141.068C122.727 141.135 122.631 141.185 122.528 141.215C122.42 141.232 122.309 141.226 122.203 141.195C122.098 141.164 122.001 141.109 121.919 141.036C121.76 140.909 121.626 140.754 121.525 140.578C121.421 140.391 121.39 140.173 121.438 139.965C121.501 139.778 121.604 139.608 121.741 139.465C121.877 139.323 122.043 139.212 122.227 139.14C121.927 139.346 121.71 139.651 121.615 140.001C121.595 140.165 121.629 140.331 121.711 140.474C121.804 140.62 121.923 140.747 122.062 140.85C122.116 140.907 122.182 140.95 122.256 140.977C122.329 141.004 122.407 141.014 122.485 141.006C122.64 140.959 122.774 140.858 122.861 140.722C123.063 140.412 123.22 140.075 123.327 139.722Z" fill="#332941"/>
<path d="M126.855 146.093C126.955 145.827 127.097 145.579 127.274 145.356C127.365 145.238 127.473 145.135 127.596 145.051C127.666 144.999 127.748 144.964 127.835 144.951C127.921 144.937 128.01 144.945 128.093 144.974C128.24 145.057 128.351 145.192 128.403 145.353C128.455 145.49 128.489 145.634 128.502 145.78C128.536 146.063 128.524 146.349 128.465 146.627C128.434 146.353 128.387 146.081 128.325 145.812C128.295 145.684 128.255 145.559 128.207 145.437C128.15 145.329 128.083 145.213 127.999 145.188C127.839 145.1 127.589 145.298 127.407 145.477C127.213 145.673 127.028 145.879 126.855 146.093Z" fill="#332941"/>
<path d="M120.464 133.109L118.473 135.301C118.473 135.301 118.487 138.104 117.068 138.222C117.068 138.222 116.349 138.872 116.861 139.005C117.32 139.118 118.97 138.709 119.685 138.793C119.685 138.793 123.071 138.123 123.647 138.488C123.821 138.605 123.966 138.759 124.075 138.939C124.183 139.118 124.25 139.319 124.273 139.527L124.549 139.498L135.228 140.133L139.86 133.109L120.464 133.109ZM134.223 138.025L119.237 137.774L121.193 134.626H136.209L134.223 138.025Z" fill="#332941"/>
<path d="M108.183 138.223C108.761 137.802 109.414 137.497 110.107 137.323C110.812 137.141 111.541 137.078 112.266 137.136C112.331 137.141 112.392 137.172 112.434 137.222C112.476 137.271 112.498 137.335 112.493 137.401C112.488 137.466 112.457 137.526 112.408 137.569C112.359 137.611 112.294 137.633 112.229 137.628C112.219 137.627 112.209 137.626 112.199 137.624C111.526 137.491 110.836 137.471 110.156 137.564C109.462 137.655 108.792 137.879 108.183 138.223Z" fill="#332941"/>
<path d="M112.232 143.311C113.619 143.337 115.005 143.385 116.392 143.517C116.735 143.548 117.094 143.604 117.426 143.642C117.76 143.679 118.098 143.685 118.434 143.662C119.099 143.617 119.752 143.46 120.365 143.199L120.381 143.192C120.441 143.165 120.509 143.164 120.57 143.188C120.631 143.211 120.68 143.258 120.707 143.318C120.733 143.378 120.735 143.446 120.711 143.507C120.687 143.568 120.64 143.617 120.58 143.643L120.567 143.649C119.888 143.896 119.171 144.025 118.448 144.032C118.091 144.035 117.735 144.007 117.383 143.947C117.029 143.884 116.706 143.813 116.361 143.761C114.996 143.55 113.614 143.419 112.232 143.311Z" fill="#332941"/>
<path d="M113.302 147.134C113.772 146.965 114.247 146.807 114.727 146.661C115.212 146.508 115.707 146.387 116.209 146.298C116.273 146.288 116.34 146.303 116.393 146.342C116.446 146.38 116.482 146.438 116.492 146.503C116.503 146.568 116.487 146.634 116.449 146.687C116.41 146.74 116.352 146.776 116.288 146.786C116.274 146.788 116.261 146.789 116.248 146.79H116.243C115.753 146.795 115.264 146.833 114.778 146.902C114.286 146.966 113.793 147.044 113.302 147.134Z" fill="#332941"/>
<path d="M115.157 134.688C115.409 134.949 115.705 135.164 116.033 135.323C116.364 135.475 116.712 135.591 117.069 135.666C116.88 135.71 116.685 135.72 116.493 135.696C116.298 135.67 116.108 135.615 115.929 135.533C115.754 135.442 115.594 135.324 115.456 135.183C115.318 135.044 115.215 134.874 115.157 134.688Z" fill="#332941"/>
<path d="M122.679 143.398C122.548 143.399 122.422 143.347 122.33 143.255C122.237 143.164 122.184 143.038 122.184 142.908C122.183 142.777 122.234 142.652 122.326 142.559C122.418 142.466 122.543 142.414 122.674 142.413L128.917 142.354C128.982 142.352 129.046 142.364 129.107 142.387C129.168 142.411 129.223 142.447 129.269 142.492C129.316 142.538 129.353 142.592 129.377 142.652C129.402 142.712 129.415 142.777 129.414 142.842C129.415 142.907 129.403 142.971 129.378 143.031C129.354 143.091 129.318 143.146 129.273 143.192C129.228 143.238 129.174 143.275 129.114 143.3C129.055 143.326 128.991 143.339 128.926 143.339L122.683 143.398H122.679Z" fill="#332941"/>
<path d="M139.833 143.239C139.702 143.239 139.577 143.187 139.484 143.095C139.392 143.002 139.34 142.877 139.34 142.747C139.34 142.616 139.392 142.491 139.484 142.398C139.576 142.306 139.702 142.254 139.832 142.254L157.04 142.231H157.041C157.171 142.231 157.297 142.283 157.389 142.375C157.482 142.467 157.534 142.593 157.534 142.723C157.534 142.854 157.482 142.979 157.39 143.072C157.297 143.164 157.172 143.216 157.041 143.216L139.834 143.239H139.833Z" fill="#332941"/>
<path d="M254.07 143.087C253.939 143.087 253.814 143.035 253.721 142.943C253.629 142.85 253.577 142.725 253.577 142.594C253.577 142.464 253.629 142.338 253.721 142.246C253.813 142.154 253.939 142.102 254.069 142.102L269.886 142.082H269.887C270.017 142.082 270.143 142.134 270.235 142.226C270.328 142.319 270.38 142.444 270.38 142.575C270.38 142.705 270.328 142.831 270.235 142.923C270.143 143.016 270.018 143.067 269.887 143.068L254.071 143.087H254.07Z" fill="#332941"/>
<path d="M163.988 142.832H162.818C162.787 142.832 162.757 142.82 162.735 142.798C162.712 142.776 162.699 142.747 162.699 142.715C162.699 142.7 162.702 142.685 162.707 142.671C162.713 142.657 162.722 142.644 162.732 142.633C162.743 142.622 162.756 142.613 162.77 142.607C162.784 142.602 162.799 142.599 162.814 142.598H163.988C164.003 142.598 164.019 142.601 164.033 142.607C164.047 142.613 164.06 142.622 164.071 142.632C164.082 142.643 164.091 142.656 164.097 142.67C164.103 142.685 164.106 142.7 164.106 142.715C164.106 142.731 164.103 142.746 164.097 142.76C164.091 142.775 164.082 142.787 164.071 142.798C164.06 142.809 164.047 142.818 164.033 142.824C164.019 142.829 164.003 142.832 163.988 142.832Z" fill="#332941"/>
<path d="M12.0698 144.43C11.9391 144.43 11.8135 144.379 11.7207 144.287C11.6278 144.195 11.5753 144.07 11.5747 143.939C11.5741 143.809 11.6254 143.683 11.7174 143.59C11.8094 143.498 11.9345 143.445 12.0652 143.445L33.762 143.243C33.8916 143.245 34.0154 143.297 34.1079 143.388C34.2004 143.479 34.2546 143.601 34.2593 143.731C34.26 143.795 34.2478 143.86 34.2236 143.92C34.1994 143.98 34.1636 144.034 34.1183 144.081C34.0729 144.127 34.019 144.164 33.9594 144.189C33.8998 144.214 33.8358 144.228 33.7711 144.228L12.0744 144.43H12.0698Z" fill="#332941"/>
<path d="M93.8981 76.2446C94.0804 76.2383 94.2531 76.1615 94.3798 76.0304C94.5065 75.8993 94.5773 75.7242 94.5773 75.5419C94.5773 75.3596 94.5065 75.1845 94.3798 75.0534C94.2531 74.9223 94.0804 74.8455 93.8981 74.8392C93.7159 74.8455 93.5432 74.9223 93.4165 75.0534C93.2898 75.1845 93.219 75.3596 93.219 75.5419C93.219 75.7242 93.2898 75.8993 93.4165 76.0304C93.5432 76.1615 93.7159 76.2383 93.8981 76.2446Z" fill="#332941"/>
<path d="M129.436 62.615L123.681 62.8293C121.792 62.8865 119.925 62.9322 118.069 62.9669C116.215 62.9926 114.368 63.0219 112.528 63.0013C110.687 62.9874 108.847 62.9052 106.988 62.8538L107.262 62.5802C107.232 63.6418 107.184 64.7035 107.17 65.765C107.144 66.8266 107.143 67.8881 107.136 68.9498C107.135 71.0729 107.179 73.1962 107.239 75.3193L106.988 75.068L111.581 74.9405C111.627 74.9391 111.674 74.9471 111.718 74.9639C111.761 74.9807 111.801 75.0061 111.835 75.0385L111.849 75.0515L113.603 76.7377H113L114.696 74.9936C114.737 74.9515 114.785 74.9179 114.839 74.8947C114.893 74.8716 114.951 74.8594 115.01 74.8588L115.022 74.8587C117.43 74.8389 119.838 74.7894 122.246 74.7939C123.45 74.7879 124.654 74.7928 125.858 74.8087L129.47 74.8544L129.005 75.3193C129.038 73.2502 129.098 71.1807 129.184 69.0685L129.436 62.615ZM129.505 62.5454L129.757 68.831C129.843 70.9652 129.903 73.1421 129.936 75.3193C129.938 75.4408 129.891 75.558 129.806 75.6452C129.722 75.7324 129.606 75.7824 129.485 75.7843H129.483L129.47 75.7844L125.858 75.8301C124.654 75.8445 123.45 75.8494 122.246 75.8449C119.838 75.8493 117.43 75.7999 115.022 75.78L115.348 75.6452L113.603 77.3406L113.593 77.3505C113.553 77.3888 113.507 77.419 113.456 77.4392C113.405 77.4595 113.35 77.4696 113.295 77.4688C113.24 77.468 113.186 77.4564 113.136 77.4347C113.085 77.413 113.039 77.3815 113.001 77.3421L113 77.3406L111.313 75.5874L111.581 75.6983L106.988 75.5708L106.974 75.5704C106.909 75.5686 106.848 75.5411 106.803 75.4941C106.759 75.447 106.735 75.3842 106.736 75.3194V75.3193C106.796 73.1962 106.841 71.0729 106.84 68.9498C106.833 67.8881 106.832 66.8266 106.806 65.765C106.792 64.7035 106.744 63.6418 106.714 62.5802C106.713 62.5453 106.719 62.5106 106.732 62.4779C106.744 62.4453 106.763 62.4154 106.787 62.3901C106.811 62.3647 106.84 62.3443 106.872 62.33C106.903 62.3158 106.938 62.308 106.973 62.307H106.973L106.988 62.3066C108.876 62.2553 110.783 62.1729 112.689 62.1592C114.596 62.1385 116.496 62.1678 118.389 62.1936C120.28 62.2281 122.16 62.2739 124.019 62.3312L129.505 62.5454Z" fill="#332941"/>
<path d="M195.555 39.0507L187.084 39.1971L178.686 39.303L162.005 39.4201L153.706 39.3909L145.412 39.286C139.877 39.2011 134.315 39.1606 128.755 39.1745L128.914 39.0159L128.943 45.3854L129.016 51.755L128.755 51.4936C133.655 51.4268 138.555 51.3637 143.455 51.3298L158.155 51.2487C163.055 51.2108 167.955 51.2543 172.856 51.2533C177.756 51.2473 182.656 51.3116 187.556 51.3508L187.563 51.3509C187.668 51.3518 187.768 51.3944 187.842 51.4693L189.547 53.2043H189.006L190.745 51.5038L190.752 51.4974C190.784 51.4658 190.823 51.4409 190.865 51.4241C190.907 51.4074 190.952 51.399 190.997 51.3996L195.59 51.4664L195.301 51.755C195.334 49.6645 195.362 47.5741 195.42 45.4556L195.555 39.0507ZM195.624 38.981L195.759 45.315C195.817 47.4431 195.845 49.599 195.878 51.755C195.879 51.8303 195.851 51.903 195.798 51.9571C195.746 52.0112 195.674 52.0423 195.598 52.0435H195.598L195.59 52.0436L190.997 52.1104L191.248 52.0063L189.547 53.7452C189.477 53.8169 189.381 53.8578 189.281 53.8589C189.18 53.86 189.084 53.8213 189.012 53.7511L189.011 53.7505L189.006 53.7452L187.27 52.0408L187.556 52.1592C182.656 52.1984 177.756 52.2627 172.855 52.2567C167.955 52.2556 163.055 52.2992 158.155 52.2613L143.455 52.1802C138.555 52.1463 133.655 52.0832 128.755 52.0164H128.748C128.714 52.016 128.681 52.0089 128.65 51.9956C128.618 51.9822 128.59 51.9628 128.567 51.9385C128.543 51.9143 128.524 51.8855 128.512 51.8541C128.499 51.8226 128.493 51.7889 128.493 51.755L128.567 45.3854L128.596 39.0159C128.596 38.9738 128.613 38.9334 128.643 38.9037C128.672 38.8739 128.713 38.8571 128.755 38.857C134.334 38.8711 139.911 38.8306 145.515 38.7457L153.93 38.6408L162.34 38.6115L179.076 38.7287L187.386 38.8344L195.624 38.981Z" fill="#332941"/>
<path d="M149.148 11.8658C145.534 11.9686 141.982 12.0402 138.45 12.1017C134.911 12.1752 131.414 12.208 127.918 12.235C124.424 12.2624 120.952 12.2405 117.474 12.1627C113.993 12.1032 110.497 12.0061 106.988 11.9887L107.146 11.831C107.145 12.8926 107.13 13.9541 107.141 15.0157L107.161 18.2005C107.163 20.3237 107.215 22.4469 107.246 24.5701L106.988 24.3123L111.581 24.2263C111.624 24.2254 111.667 24.2331 111.707 24.2488C111.747 24.2646 111.784 24.2881 111.815 24.318L111.824 24.3271L113.572 26.0192H113.031L114.73 24.2779C114.766 24.2401 114.81 24.2099 114.859 24.1892C114.907 24.1684 114.959 24.1574 115.012 24.1569L115.022 24.1568L123.562 24.0826C126.409 24.06 129.256 24.0391 132.103 24.0436C137.796 24.0409 143.489 24.1242 149.183 24.1999L148.813 24.5701L148.964 18.2912L149.148 11.8658ZM149.218 11.7962L149.402 18.1098L149.553 24.5701C149.556 24.666 149.52 24.7588 149.453 24.8282C149.387 24.8976 149.296 24.9378 149.2 24.94L149.196 24.9402L149.183 24.9403C143.489 25.0161 137.796 25.0993 132.103 25.0966C129.256 25.1012 126.409 25.0803 123.562 25.0578L115.022 24.9835L115.314 24.8625L113.572 26.5605L113.565 26.568C113.493 26.6378 113.397 26.6763 113.297 26.675C113.197 26.6738 113.101 26.6329 113.032 26.5614L113.031 26.5605L111.338 24.8133L111.581 24.9139L106.988 24.828L106.98 24.8278C106.946 24.8273 106.914 24.8202 106.883 24.807C106.852 24.7938 106.825 24.7746 106.802 24.7507C106.778 24.7268 106.76 24.6985 106.748 24.6675C106.736 24.6365 106.73 24.6034 106.73 24.5701C106.761 22.4469 106.813 20.3237 106.816 18.2005L106.835 15.0157C106.847 13.9542 106.832 12.8926 106.83 11.831C106.83 11.7892 106.847 11.749 106.877 11.7194C106.906 11.6898 106.946 11.6732 106.988 11.6731C110.512 11.6557 114.048 11.5586 117.6 11.4992C121.154 11.4213 124.715 11.3995 128.253 11.4268C131.79 11.4539 135.325 11.4867 138.818 11.5602C142.319 11.6217 145.799 11.6933 149.218 11.7961V11.7962Z" fill="#332941"/>
</svg>