<svg width="116" height="96" viewBox="0 0 116 96" fill="none" xmlns="http://www.w3.org/2000/svg">
<path d="M106.77 89.6001C105.564 87.5464 104.873 85.2328 104.754 82.8554C102.118 37.232 89.1392 36.268 89.1392 36.268C87.4883 41.8761 84.4314 40.1891 84.4314 40.1891L74.1511 52.0729L78.425 62.1785L78.4348 62.1981C79.5897 63.1979 80.7088 63.2988 81.7757 62.7582H81.7789C83.1525 62.0678 84.4379 60.3157 85.6026 58.0457C85.1165 55.4599 83.7169 47.038 85.5113 43.8953C85.5113 43.8953 89.2795 39.1795 91.7101 41.3909C91.8983 41.5971 92.0999 41.7908 92.3137 41.9706C95.3576 44.5108 95.4881 51.884 95.1423 60.2538L95.475 66.904C95.475 66.904 95.8926 71.5742 96.0623 77.5535C96.2319 83.5328 97.2857 84.7671 98.0981 85.6465C98.0981 85.6465 101.56 89.079 103.684 90.2189C105.808 91.3555 106.714 92.4237 105.804 92.8047C105.804 92.8047 105.723 93.4691 105.201 93.2835C105.201 93.2835 104.754 94.6643 103.847 94.0716C103.84 94.1114 103.83 94.1506 103.817 94.1888C104.273 94.3224 104.736 94.4301 105.204 94.5113C107.659 94.8781 110.167 94.6593 112.522 93.8729C109.847 93.6352 107.984 91.6356 106.77 89.6001ZM76.6274 54.1605C76.3365 54.1176 76.0558 54.0227 75.7987 53.8804C75.5449 53.7448 75.3074 53.5809 75.0907 53.3919C74.8732 53.2057 74.6831 52.9897 74.5263 52.7503C75.0189 53.0369 75.4724 53.3463 75.952 53.5938C76.4137 53.873 76.9423 54.0227 77.4821 54.0269C77.2196 54.1638 76.9192 54.2107 76.6274 54.1605ZM84.6891 54.8086C84.4633 55.0015 84.1801 55.1148 83.8832 55.131C83.591 55.1543 83.297 55.1245 83.0154 55.043C82.7367 54.9702 82.4682 54.863 82.2161 54.7239C81.9624 54.592 81.7285 54.4254 81.5212 54.2289C82.066 54.3982 82.575 54.5969 83.097 54.7304C83.6108 54.8996 84.1611 54.9266 84.6891 54.8086Z" fill="#fc4100"/>
<path d="M61.5549 26.0009V26.0432L61.5614 25.9976C61.5581 26.0009 61.5581 26.0009 61.5549 26.0009ZM63.9431 21.1939C60.8828 20.4742 59.9268 23.3336 59.9268 23.3336L59.9236 23.3369C60.6707 23.6332 61.4113 23.9003 61.8713 24.0599C61.8713 24.0599 62.6348 22.6855 63.5222 23.8286L62.7261 28.8244C62.7261 28.8244 61.4798 28.8049 61.2319 28.0656L60.9546 27.6878C60.7784 28.2675 60.8273 28.7984 60.3706 28.7072C60.2952 29.0213 60.1824 29.3253 60.0345 29.6126C60.1161 30.658 62.7 30.9869 62.7 30.9869C62.6962 31.0172 62.694 31.0476 62.6935 31.0781C62.6935 31.6708 63.607 32.2114 64.2074 32.3059L69.1272 33.0875C69.2771 33.1118 69.4302 33.1063 69.5779 33.0712C69.7255 33.0362 69.8648 32.9724 69.9876 32.8833C70.1104 32.7943 70.2144 32.682 70.2935 32.5527C70.3726 32.4234 70.4253 32.2797 70.4486 32.13L71.9885 22.4706L63.9431 21.1939ZM69.4535 23.5062C68.882 23.5455 68.3078 23.506 67.7471 23.389C67.1924 23.2643 66.6522 23.082 66.1355 22.8451C65.6207 22.6112 65.1338 22.3206 64.6836 21.9788C65.1959 22.2166 65.7146 22.4185 66.2333 22.6106C66.7501 22.7983 67.2787 22.9517 67.8157 23.0698C68.3499 23.1839 68.8941 23.245 69.4404 23.2522C69.9935 23.2393 70.5422 23.1517 71.0717 22.9917C70.575 23.276 70.0233 23.4514 69.4535 23.5062H69.4535Z" fill="#fc4100"/>
<path d="M80.2526 35.5277C79.7863 37.0471 79.4234 38.5962 79.1664 40.1645C79.042 40.9442 78.9705 41.7313 78.9522 42.5206C78.9172 43.2963 79.028 44.0717 79.2786 44.8067C79.4043 45.1558 79.6175 45.4671 79.8978 45.7107C80.0236 45.828 80.1749 45.9147 80.3398 45.9641C80.5047 46.0136 80.6788 46.0244 80.8486 45.9957C81.1989 45.8944 81.5122 45.6938 81.7507 45.4184C82.0142 45.1357 82.2483 44.827 82.4494 44.4971C83.2513 43.1335 83.885 41.6781 84.3368 40.1627L84.3378 40.1597C84.3459 40.1344 84.3637 40.1133 84.3874 40.1011C84.411 40.0889 84.4385 40.0866 84.4639 40.0947L84.4714 40.0974C84.8657 40.2725 85.2952 40.3545 85.7264 40.337C86.1575 40.3035 86.5707 40.1505 86.9195 39.8953C87.6085 39.3468 88.1446 38.6306 88.4764 37.8156C88.8383 37.0102 89.1213 36.1716 89.3214 35.3118C89.5277 34.4541 89.6809 33.5845 89.7799 32.708L89.8631 32.8356C89.3217 32.6329 88.8585 32.2643 88.54 31.7827C88.2165 31.3285 87.9458 30.8391 87.733 30.3239C87.306 29.3042 86.9909 28.2413 86.7931 27.1539L87.1575 27.2066C86.8343 27.8508 86.4686 28.4728 86.0628 29.0685C85.6601 29.6699 85.2042 30.2342 84.7008 30.7545C84.191 31.2925 83.5819 31.7271 82.907 32.0345C82.5541 32.1837 82.1766 32.2664 81.7936 32.2782C81.4067 32.285 81.0227 32.211 80.6662 32.0608C80.6211 32.0422 80.5842 32.0081 80.5621 31.9647L80.5591 31.9587C80.415 31.6697 80.2278 31.4043 80.0041 31.1712C79.9199 31.0637 79.8078 30.9812 79.6801 30.9325C79.5523 30.8839 79.4137 30.871 79.2792 30.8952C79.0071 31.0109 78.7897 31.2261 78.6715 31.4966C78.5401 31.7921 78.4707 32.1112 78.4676 32.4345C78.3958 33.098 78.4835 33.769 78.7234 34.3919C78.8472 34.6866 79.0552 34.9383 79.3215 35.1158C79.5997 35.2808 79.9142 35.3755 80.2374 35.3915L80.2436 35.3921C80.2716 35.3945 80.2981 35.4058 80.3191 35.4245C80.3401 35.4432 80.3546 35.4681 80.3602 35.4956C80.448 35.9077 80.5721 36.3112 80.7311 36.7014C80.8899 37.0937 81.0828 37.4714 81.3078 37.8301C81.5387 38.1852 81.8146 38.5091 82.1285 38.7938C82.4523 39.0707 82.8212 39.2902 83.2193 39.4426C83.2218 39.4435 83.2242 39.4448 83.2263 39.4465C83.2284 39.4483 83.2301 39.4504 83.2313 39.4528C83.2326 39.4552 83.2333 39.4579 83.2335 39.4605C83.2338 39.4632 83.2335 39.466 83.2326 39.4685C83.2307 39.4736 83.2269 39.4778 83.222 39.4802C83.2172 39.4826 83.2116 39.4832 83.2063 39.4817C82.7929 39.3459 82.4058 39.1402 82.0621 38.8736C81.7249 38.5966 81.425 38.2772 81.1699 37.9234C80.9207 37.5657 80.7071 37.1845 80.5321 36.7852C80.3534 36.3857 80.2108 35.971 80.106 35.5461L80.2287 35.6501C79.8559 35.6439 79.4905 35.5457 79.1649 35.3643C78.842 35.1657 78.5867 34.8743 78.4325 34.5283C78.1549 33.8594 78.0423 33.1337 78.1042 32.4124C78.1071 31.7285 78.3367 30.8444 79.1564 30.508C79.3683 30.437 79.5992 30.4477 79.8037 30.5379C79.9868 30.619 80.1534 30.7332 80.295 30.8747C80.5548 31.1404 80.7717 31.4448 80.938 31.7769L80.831 31.6748C81.1351 31.7983 81.4612 31.8589 81.7895 31.8527C82.1178 31.8465 82.4414 31.7738 82.7407 31.6389C83.3611 31.3487 83.9213 30.9447 84.3921 30.4479C84.8833 29.9513 85.3291 29.4119 85.7241 28.8361C86.1254 28.2614 86.488 27.6607 86.8098 27.0382L86.8114 27.0351C86.83 26.999 86.8594 26.9697 86.8956 26.9513C86.9318 26.9328 86.9729 26.9263 87.013 26.9324C87.0532 26.9386 87.0903 26.9572 87.1193 26.9857C87.1482 27.0141 87.1675 27.051 87.1743 27.0909C87.2637 27.6161 87.3893 28.1462 87.5272 28.6663C87.665 29.1871 87.8332 29.6994 88.031 30.2005C88.2224 30.6995 88.47 31.1753 88.7689 31.6185C89.0443 32.062 89.4528 32.4077 89.9362 32.6063L89.941 32.608C89.9667 32.6166 89.9886 32.6339 90.0029 32.6569C90.0172 32.6799 90.0231 32.7072 90.0194 32.7341C89.8972 33.6176 89.7195 34.4927 89.4874 35.354C89.2651 36.2177 88.9676 37.0604 88.5983 37.8725C88.2463 38.703 87.6993 39.4368 87.0035 40.012C86.6354 40.288 86.1975 40.4561 85.739 40.4975C85.2805 40.5258 84.8214 40.4521 84.3949 40.2818L84.5294 40.2165C84.3164 40.9903 84.0658 41.7506 83.7777 42.4975C83.4971 43.2531 83.1506 43.9827 82.742 44.6778C82.5316 45.0305 82.2857 45.361 82.0082 45.664C81.7232 45.9955 81.3467 46.2359 80.9258 46.3552C80.7015 46.3963 80.4706 46.3843 80.2519 46.3201C80.0331 46.2559 79.8324 46.1413 79.6661 45.9856C79.3438 45.7004 79.0998 45.3377 78.9574 44.9319C78.6996 44.1532 78.591 43.3329 78.6374 42.5141C78.6697 41.7108 78.7637 40.9113 78.9188 40.1225C79.2181 38.5523 79.6513 37.0105 80.2136 35.514C80.2155 35.5089 80.2194 35.5047 80.2244 35.5024C80.2293 35.5002 80.235 35.5 80.2402 35.5019C80.2451 35.5038 80.2491 35.5076 80.2514 35.5124C80.2536 35.5171 80.2541 35.5226 80.2526 35.5277Z" fill="#fc4100"/>
<path d="M78.3894 31.5709C79.5428 29.3649 80.7475 31.8669 80.7475 31.8669C84.0012 33.2507 86.9826 27.1215 86.9826 27.1215C86.9826 27.1215 87.8 32.0533 89.8986 32.7201C90.1043 31.798 90.1946 30.8539 90.1672 29.9095C90.1436 28.8179 89.8129 27.7549 89.2129 26.842C88.6129 25.929 87.7678 25.2029 86.7741 24.7465C85.2974 24.0974 83.6468 23.9552 82.0805 24.3421C77.2287 25.4389 78.3894 31.5709 78.3894 31.5709Z" fill="#332941"/>
<path d="M78.813 34.8905C78.1028 34.7493 77.3717 34.7479 76.6609 34.8865C75.9434 34.9932 75.2315 35.1417 74.5236 35.3077C73.1082 35.6432 71.7119 36.0603 70.3172 36.4799C68.9229 36.9028 67.5444 37.3774 66.1616 37.8389C64.7797 38.3024 63.4023 38.7853 62.027 39.2648L62.1454 39.0457L62.9352 43.0363C63.2195 44.362 63.482 45.6923 63.7841 47.014L63.6646 46.9523L64.9615 46.412L66.2688 45.8958L67.5851 45.4004C68.0293 45.2497 68.4693 45.0858 68.9176 44.9458C69.8088 44.649 70.7148 44.3948 71.6356 44.1831C72.0954 44.0769 72.5621 43.9954 73.0319 43.9255C73.5131 43.8503 74.0002 43.8192 74.4871 43.8325C74.5171 43.834 74.5466 43.8414 74.5738 43.8543C74.601 43.8672 74.6254 43.8853 74.6456 43.9076C74.6658 43.9299 74.6814 43.9559 74.6915 43.9843C74.7016 44.0126 74.7061 44.0426 74.7045 44.0726C74.704 44.0825 74.7029 44.0923 74.7012 44.1021L74.6975 44.1216C74.4453 45.4627 74.2074 46.808 74.0842 48.156C74.0155 48.8232 73.9983 49.4948 74.0329 50.1646C74.0526 50.8136 74.2001 51.4524 74.467 52.0445C74.7873 52.6293 75.1617 53.1828 75.5852 53.698C75.9933 54.2691 76.3506 54.8747 76.6533 55.5079C77.2481 56.7573 77.7562 58.0459 78.1741 59.3648L78.1392 59.2979C78.3521 59.5558 78.6109 59.7723 78.9025 59.9365C79.2123 60.103 79.5358 60.2425 79.8694 60.3537C80.5544 60.5755 81.2575 60.7368 81.9707 60.8357C83.4135 61.0351 84.8672 61.1457 86.3235 61.1671C86.3307 61.1672 86.3376 61.1701 86.3426 61.1751C86.3477 61.1802 86.3506 61.1871 86.3506 61.1942C86.3507 61.2014 86.348 61.2083 86.343 61.2135C86.3381 61.2187 86.3313 61.2217 86.3241 61.222C84.8599 61.2986 83.3921 61.2684 81.9323 61.1318C81.1945 61.0605 80.4645 60.9246 79.7506 60.7255C78.9912 60.5478 78.303 60.1459 77.7758 59.5721C77.7629 59.5567 77.7528 59.5391 77.746 59.5201L77.7408 59.5051C77.2945 58.2224 76.7654 56.97 76.1567 55.7557C75.8612 55.1549 75.5137 54.581 75.1183 54.0405C74.6643 53.5018 74.2682 52.917 73.9366 52.2957C73.6362 51.636 73.4726 50.9225 73.4556 50.198C73.429 49.4989 73.4566 48.7988 73.538 48.1038C73.6861 46.7246 73.9405 45.3707 74.2218 44.0249L74.4322 44.3139C73.9835 44.2944 73.534 44.3136 73.0887 44.3712C72.6317 44.4276 72.174 44.4954 71.7196 44.5885C70.8097 44.7653 69.9028 44.9798 69.0082 45.2413C68.5584 45.3632 68.1165 45.5131 67.6698 45.6477L66.3438 46.0971C65.9052 46.257 65.4682 46.4214 65.0327 46.5902L63.7327 47.1131L63.7306 47.114C63.7092 47.1226 63.6853 47.1223 63.6641 47.1133C63.6429 47.1043 63.6262 47.0873 63.6176 47.066L63.6131 47.0513C63.3352 45.7243 63.0177 44.4059 62.722 43.0828L61.7718 39.1273C61.7613 39.0839 61.7668 39.0383 61.7872 38.9987C61.8076 38.959 61.8415 38.928 61.8829 38.9111L61.8902 38.9082C63.2476 38.3565 64.6223 37.8601 66.0046 37.38C67.3867 36.8999 68.7871 36.4731 70.192 36.0615C71.5965 35.6485 73.0189 35.2902 74.4589 35.0076C75.1784 34.8582 75.9061 34.7509 76.6381 34.6862C77.3722 34.5839 78.1196 34.6359 78.8323 34.8391C78.8389 34.8415 78.8444 34.8463 78.8476 34.8526C78.8508 34.8589 78.8514 34.8662 78.8493 34.8729C78.8472 34.8796 78.8426 34.8853 78.8365 34.8888C78.8303 34.8922 78.8231 34.8931 78.8162 34.8914L78.813 34.8905Z" fill="#332941"/>
<path d="M95.1572 60.7018C95.1221 60.7018 95.0884 60.6883 95.0629 60.6643C95.0375 60.6402 95.0221 60.6074 95.0201 60.5724C95.0181 60.5375 95.0295 60.5031 95.052 60.4762C95.0745 60.4494 95.1064 60.4322 95.1412 60.428C97.2401 60.1822 98.8619 59.9351 99.4225 59.8466C98.6854 58.4908 98.2805 53.0018 98.2626 52.7553C97.3024 39.4502 89.175 36.4265 89.0929 36.3976C89.0759 36.3916 89.0602 36.3823 89.0468 36.3703C89.0334 36.3582 89.0225 36.3436 89.0147 36.3274C88.9989 36.2945 88.9969 36.2568 89.0091 36.2225C89.0212 36.1881 89.0465 36.16 89.0794 36.1443C89.1124 36.1286 89.1502 36.1266 89.1845 36.1387C89.2682 36.1683 97.563 39.2409 98.5369 52.7356C98.6636 54.4861 99.13 59.1778 99.7578 59.8549C99.7747 59.8731 99.7863 59.8955 99.7914 59.9197C99.7966 59.944 99.795 59.9692 99.787 59.9926C99.779 60.016 99.7647 60.0369 99.7458 60.0529C99.7269 60.0689 99.7039 60.0795 99.6795 60.0836C99.6608 60.0864 97.7845 60.3946 95.1734 60.7009C95.168 60.7015 95.1626 60.7018 95.1572 60.7018Z" fill="#332941"/>
<path d="M62.0437 39.4715C61.1978 39.684 60.3486 39.8811 59.5006 40.0836C59.4733 40.0901 59.4446 40.0856 59.4207 40.0709C59.3968 40.0563 59.3798 40.0328 59.3732 40.0056L59.3727 40.0031L59.3713 39.9965C59.0538 38.4767 58.7632 36.9521 58.4579 35.4301L57.5984 30.8541C57.5906 30.8131 57.5949 30.7707 57.6105 30.732C57.6262 30.6933 57.6526 30.6599 57.6867 30.6357C57.7208 30.6116 57.7612 30.5977 57.8029 30.5957C57.8447 30.5937 57.8862 30.6036 57.9225 30.6244L58.036 30.6898C58.0435 30.6937 58.0492 30.7004 58.0518 30.7085C58.0549 30.7093 58.0463 30.6976 58.0395 30.7036C58.0213 30.6914 58.0188 30.7045 58.0457 30.6894C58.1235 30.6429 58.1923 30.5829 58.2488 30.5122C58.395 30.3387 58.5248 30.1519 58.6365 29.9544L58.6394 29.9494C58.673 29.893 58.7276 29.8522 58.7913 29.836C58.8549 29.8198 58.9225 29.8296 58.979 29.8631L59.0027 29.879C59.0497 29.9248 59.1069 29.959 59.1695 29.9789C59.2321 29.9988 59.2985 30.0038 59.3634 29.9936C59.5049 29.9388 59.6238 29.838 59.701 29.7075C59.9072 29.3848 60.0578 29.0299 60.1464 28.6575L60.1494 28.6461C60.1642 28.5893 60.2006 28.5405 60.2507 28.5099C60.3009 28.4794 60.361 28.4694 60.4183 28.4822C60.4658 28.4955 60.5155 28.499 60.5643 28.4925C60.5582 28.5003 60.5778 28.4892 60.6066 28.4155C60.6585 28.2761 60.7011 28.0774 60.761 27.8965L60.7524 27.9435C60.7846 27.6003 60.8293 27.2654 60.8551 26.9359C60.869 26.7749 60.8737 26.6133 60.8692 26.4518C60.869 26.3105 60.841 26.1705 60.7867 26.0399L60.7821 26.0306C60.7679 26.0018 60.7614 25.9698 60.7632 25.9378C60.7683 25.887 60.7927 25.8402 60.8315 25.807C60.8574 25.7851 60.8885 25.7704 60.9219 25.7641L60.9472 25.7611C60.9595 25.7598 60.9718 25.7594 60.9842 25.7599L61.0325 25.7619L61.1159 25.7691L61.2736 25.7872L61.4284 25.8074L61.5051 25.8179L61.5429 25.823L61.5608 25.8254L61.5692 25.8265C61.5692 25.8265 61.5727 25.8268 61.5691 25.8265C61.5299 25.8232 61.491 25.8349 61.4601 25.8592L61.5398 25.8279C61.6272 25.8103 61.7185 25.7996 61.8039 25.7782C61.886 25.7554 61.9651 25.723 62.0395 25.6815C62.1118 25.6457 62.1763 25.5959 62.2292 25.5351C62.2822 25.4743 62.3227 25.4037 62.3482 25.3273C62.4316 24.9755 62.3883 24.6058 62.2261 24.2826L62.2982 24.3454C61.7547 24.1486 61.2186 23.9288 60.6764 23.7281C60.1348 23.5255 59.5946 23.3186 59.0662 23.0801C58.8013 22.9627 58.5378 22.8416 58.2785 22.7096C58.012 22.5834 57.7576 22.4329 57.5187 22.2601C57.4547 22.2106 57.3978 22.1527 57.3494 22.088C57.3107 22.0326 57.2682 21.9799 57.2221 21.9303C57.1302 21.8303 57.0237 21.7448 56.9062 21.6765C56.6694 21.539 56.4046 21.4565 56.1314 21.4351L56.1575 21.4325C55.8189 21.5698 55.5418 21.825 55.3774 22.1509C55.208 22.4877 55.0973 22.8508 55.05 23.2247L54.8663 24.3753C54.8085 24.7748 54.6867 25.1625 54.5056 25.5235C54.1244 26.1793 53.8614 26.8967 53.7284 27.6432C53.6732 28.0021 53.6871 28.3683 53.7694 28.722C53.8145 28.8963 53.8754 29.0661 53.9514 29.2293C54.0328 29.4071 54.1144 29.5848 54.1915 29.7676C54.3774 30.1451 54.4857 30.556 54.51 30.9759C54.4897 31.3765 54.4376 31.7749 54.3541 32.1672L53.9475 34.4625L53.127 39.0525C52.9911 39.8109 52.8376 40.595 52.716 41.3323C52.6123 42.0732 52.6252 42.8257 52.7541 43.5626C53.0108 45.0534 53.7498 46.4191 54.858 47.4508C55.0982 47.7119 55.4099 47.897 55.7545 47.983C56.1145 48.0818 56.4841 48.1418 56.8569 48.162C57.2327 48.1803 57.6095 48.1589 57.9809 48.0981C58.3575 48.0285 58.7297 47.9369 59.0955 47.8237C60.5922 47.3993 62.0985 47.0069 63.6001 46.5984C63.607 46.5965 63.6144 46.5974 63.6207 46.6009C63.6269 46.6043 63.6316 46.6101 63.6337 46.617C63.6357 46.6238 63.635 46.6312 63.6317 46.6376C63.6284 46.6439 63.6227 46.6487 63.6159 46.651C62.1377 47.137 60.6643 47.6392 59.1813 48.1093C58.8087 48.2406 58.4286 48.3498 58.043 48.4364C57.6488 48.5169 57.2471 48.5555 56.8447 48.5516C56.4393 48.5474 56.0359 48.4946 55.643 48.3945C55.4348 48.3455 55.2343 48.2685 55.0468 48.1656C54.8646 48.0573 54.6959 47.9279 54.5442 47.78C53.33 46.7033 52.5074 45.2552 52.2051 43.6623C52.057 42.8682 52.0342 42.0558 52.1374 41.2546C52.1932 40.8482 52.2687 40.4767 52.3384 40.0931L52.5501 38.9487L53.417 34.3741L53.8541 32.0871C53.9359 31.7206 53.9922 31.3487 54.0225 30.9744C54.0059 30.6167 53.9187 30.2657 53.7659 29.9418C53.6962 29.765 53.6199 29.5878 53.5438 29.4106C53.4605 29.2195 53.3949 29.0212 53.3478 28.8181C53.2613 28.4114 53.2556 27.9916 53.3311 27.5827C53.4967 26.8013 53.7984 26.055 54.2226 25.3778C54.4032 25.0494 54.5277 24.6932 54.5913 24.324L54.8106 23.1801C54.8743 22.7839 55.005 22.4014 55.1971 22.0489C55.3917 21.6767 55.7182 21.3901 56.113 21.2452C56.1206 21.2427 56.1286 21.2417 56.1366 21.2424L56.1392 21.2426C56.4438 21.2682 56.7385 21.3631 57.0007 21.52C57.1321 21.5986 57.251 21.6964 57.3534 21.8102C57.4049 21.8669 57.4523 21.9271 57.4953 21.9904C57.5335 22.0412 57.5781 22.0868 57.628 22.1261C58.0989 22.4467 58.6057 22.7113 59.138 22.9147C59.6658 23.1433 60.2072 23.3412 60.7499 23.5348C61.2917 23.731 61.8309 23.9326 62.3815 24.1047C62.3968 24.1095 62.411 24.1173 62.4232 24.1277C62.4354 24.1381 62.4453 24.1508 62.4525 24.1651L62.4537 24.1676C62.548 24.3568 62.6157 24.558 62.6551 24.7656C62.7007 24.9827 62.6935 25.2076 62.6341 25.4213C62.5657 25.6487 62.4124 25.8411 62.2059 25.9589C62.1099 26.0178 62.0071 26.0649 61.8997 26.099C61.7951 26.1301 61.6892 26.1473 61.5834 26.1711L61.6629 26.1398C61.6265 26.164 61.583 26.1751 61.5395 26.1715L61.5346 26.1711L61.5238 26.1701L61.5033 26.1681L61.4644 26.1643L61.3877 26.1568L61.2355 26.1427L61.0857 26.1311L61.015 26.1276L60.9862 26.1274C60.9807 26.1273 60.9775 26.1277 60.9847 26.1275L60.9907 26.1262C61.0208 26.1202 61.0489 26.1066 61.0723 26.0867C61.0904 26.0709 61.105 26.0516 61.1153 26.0299C61.1256 26.0082 61.1313 25.9846 61.1321 25.9606L61.1086 25.8586C61.1978 26.0358 61.2484 26.2298 61.2571 26.4279C61.269 26.6048 61.2706 26.7821 61.262 26.9592C61.2477 27.3058 61.2153 27.6441 61.1968 27.9762C61.196 27.9897 61.1939 28.0029 61.1903 28.0159L61.1881 28.0234C61.1383 28.1986 61.1068 28.3666 61.0335 28.5784C61.0111 28.6416 60.9802 28.7014 60.9417 28.7563C60.8895 28.8299 60.8169 28.8868 60.7329 28.9201C60.6017 28.964 60.4607 28.9694 60.3266 28.9359L60.5984 28.7607C60.5475 28.973 60.4815 29.1816 60.4012 29.3847C60.3207 29.5939 60.2175 29.7936 60.0935 29.9804C59.9555 30.2059 59.7426 30.376 59.492 30.4611C59.3472 30.5004 59.1941 30.4978 59.0507 30.4534C58.9246 30.4122 58.8064 30.3497 58.7014 30.2686L59.0676 30.1932C58.9388 30.4239 58.7853 30.64 58.6098 30.8375C58.5094 30.9564 58.3864 31.0541 58.2478 31.125C58.1388 31.1779 58.0144 31.19 57.8972 31.1594C57.8361 31.1351 57.7793 31.1011 57.729 31.0588C57.6931 31.0195 57.6596 30.9781 57.6287 30.9347L58.0664 30.7704L58.8528 35.3594C59.0961 36.8925 59.3541 38.4229 59.5853 39.9582L59.4561 39.8711C60.3146 39.7184 61.172 39.5604 62.0325 39.4178C62.0395 39.4167 62.0466 39.4183 62.0525 39.4223C62.0583 39.4263 62.0623 39.4324 62.0638 39.4393C62.0652 39.4462 62.0639 39.4534 62.0602 39.4594C62.0565 39.4654 62.0506 39.4697 62.0437 39.4715L62.0437 39.4715Z" fill="#332941"/>
<path d="M57.6907 23.7375L59.236 24.3766C59.4933 24.4889 59.7517 24.5769 60.0081 24.7093C60.2616 24.8452 60.4847 25.0314 60.6636 25.2563C61.0268 25.715 61.1927 26.2989 61.1247 26.8797L61.0201 28.5462C61.019 28.5642 61.0144 28.5819 61.0065 28.5981C60.9986 28.6144 60.9876 28.6289 60.974 28.6409C60.9604 28.6529 60.9447 28.6621 60.9275 28.668C60.9104 28.6739 60.8923 28.6763 60.8742 28.6752C60.8561 28.6741 60.8385 28.6694 60.8222 28.6614C60.806 28.6534 60.7914 28.6423 60.7795 28.6288C60.7675 28.6152 60.7584 28.5994 60.7526 28.5822C60.7468 28.5651 60.7444 28.547 60.7456 28.529L60.7461 28.5234L60.9193 26.8626C60.9624 26.5973 60.9524 26.3261 60.8898 26.0647C60.8272 25.8033 60.7132 25.5569 60.5546 25.3398C60.3944 25.1208 60.1912 24.9367 59.9574 24.7989C59.724 24.6652 59.4571 24.5602 59.2084 24.4395L57.6907 23.7375Z" fill="#332941"/>
<path d="M57.1575 24.987L58.2848 25.6406L59.4142 26.2998C59.6057 26.4297 59.7609 26.6062 59.8649 26.8127C59.9666 27.0291 60.0141 27.2298 60.0895 27.4367L60.5038 28.6706C60.5154 28.7051 60.5127 28.7428 60.4965 28.7754C60.4802 28.808 60.4517 28.8328 60.4171 28.8443C60.3825 28.8559 60.3447 28.8533 60.3121 28.8371C60.2794 28.8208 60.2546 28.7923 60.243 28.7578L60.2409 28.7509L59.8924 27.4969C59.8305 27.2928 59.7846 27.0666 59.7096 26.8861C59.627 26.6985 59.4977 26.5351 59.3341 26.4113L57.1575 24.987Z" fill="#fc4100"/>
<path d="M56.644 26.7376L57.6962 27.1478C58.0623 27.2894 58.3786 27.5352 58.6059 27.8548C58.8331 28.1743 58.9612 28.5535 58.9742 28.9452L58.9892 30.0754C58.9896 30.1117 58.9755 30.1467 58.95 30.1727C58.9246 30.1987 58.8899 30.2135 58.8535 30.214C58.8171 30.2145 58.782 30.2006 58.7559 30.1753C58.7298 30.15 58.7148 30.1154 58.7142 30.0791C58.7141 30.0764 58.7142 30.0729 58.7143 30.0703L58.768 28.9468C58.7768 28.5852 58.6786 28.2291 58.4858 27.923C58.2891 27.6112 58.0053 27.3637 57.6693 27.2109L56.644 26.7376Z" fill="#fc4100"/>
<path d="M55.7925 28.0952L56.6289 28.4756C56.7806 28.5285 56.9199 28.6116 57.0384 28.72C57.1569 28.8283 57.252 28.9596 57.3179 29.1059C57.3803 29.2549 57.4151 29.4139 57.4208 29.5753C57.4348 29.7233 57.459 29.8703 57.4931 30.0151C57.5121 30.1496 57.558 30.2789 57.628 30.3954C57.698 30.5118 57.7907 30.6131 57.9007 30.6931L57.9034 30.6945C57.9194 30.7029 57.9336 30.7144 57.9452 30.7283C57.9567 30.7421 57.9655 30.7582 57.9709 30.7754C57.9762 30.7926 57.9782 30.8108 57.9765 30.8287C57.9749 30.8467 57.9697 30.8642 57.9613 30.8802C57.9529 30.8962 57.9414 30.9104 57.9275 30.9219C57.9136 30.9335 57.8976 30.9422 57.8803 30.9476C57.8631 30.9529 57.8449 30.9549 57.8269 30.9532C57.8089 30.9516 57.7913 30.9464 57.7753 30.938C57.7709 30.9357 57.7666 30.9332 57.7625 30.9304C57.6275 30.8252 57.5159 30.6931 57.4347 30.5426C57.3536 30.392 57.3046 30.2263 57.291 30.0558C57.2663 29.9002 57.2524 29.7431 57.2493 29.5855C57.2562 29.4401 57.2361 29.2947 57.1902 29.1566C57.1394 29.0187 57.0608 28.8927 56.9593 28.7863C56.8578 28.6799 56.7356 28.5953 56.6001 28.5379L55.7925 28.0952Z" fill="#332941"/>
<path d="M82.4651 31.9617C82.7008 31.8689 82.9492 31.8123 83.2019 31.7937C83.4548 31.772 83.7093 31.7784 83.9608 31.8129C84.2137 31.8474 84.4609 31.9147 84.6963 32.013C84.9324 32.1087 85.1494 32.2458 85.3371 32.4178C85.0922 32.3474 84.8654 32.2681 84.6289 32.2163C84.3959 32.1603 84.1601 32.1162 83.9224 32.0844C83.447 32.0147 82.9677 31.9904 82.4651 31.9617Z" fill="#332941"/>
<path d="M87.3799 32.4931C87.5932 32.4286 87.8152 32.3967 88.0381 32.3984C88.2612 32.3971 88.4838 32.4202 88.7019 32.4674C89.1485 32.5512 89.5522 32.7868 89.8443 33.1343C89.6377 33.0452 89.4453 32.9647 89.2461 32.8984C89.0453 32.8375 88.8461 32.7792 88.6412 32.7349C88.2317 32.6416 87.8161 32.5802 87.3799 32.4931Z" fill="#332941"/>
<path d="M86.9505 35.1865C86.983 35.3717 86.9675 35.5621 86.9055 35.7397C86.8451 35.9353 86.7168 36.1031 86.5437 36.2129C86.4526 36.2647 86.3514 36.2962 86.2469 36.3051C86.1425 36.3139 86.0373 36.3 85.9388 36.2642C85.8489 36.2319 85.7628 36.1898 85.682 36.1388C85.6089 36.0816 85.5398 36.0194 85.4753 35.9527C85.5637 35.9689 85.6512 35.99 85.7372 36.0159C85.8232 36.0262 85.9045 36.0511 85.984 36.0548C86.1289 36.0762 86.2768 36.0486 86.4043 35.9765C86.5317 35.8943 86.6371 35.7824 86.7114 35.6503C86.7997 35.5003 86.8795 35.3455 86.9505 35.1865Z" fill="#332941"/>
<path d="M84.1713 33.8565C84.2782 33.8528 84.3795 33.8078 84.4538 33.731C84.5281 33.6542 84.5696 33.5516 84.5696 33.4449C84.5696 33.3381 84.5281 33.2355 84.4538 33.1587C84.3795 33.0819 84.2782 33.0369 84.1713 33.0332C84.0644 33.0369 83.9631 33.0819 83.8888 33.1587C83.8145 33.2355 83.7729 33.3381 83.7729 33.4449C83.7729 33.5516 83.8145 33.6542 83.8888 33.731C83.9631 33.8078 84.0644 33.8528 84.1713 33.8565Z" fill="#332941"/>
<path d="M87.9655 34.2592C88.0724 34.2555 88.1737 34.2105 88.248 34.1337C88.3223 34.0569 88.3638 33.9543 88.3638 33.8476C88.3638 33.7408 88.3223 33.6382 88.248 33.5614C88.1737 33.4846 88.0724 33.4396 87.9655 33.4359C87.8586 33.4396 87.7573 33.4846 87.683 33.5614C87.6087 33.6382 87.5671 33.7408 87.5671 33.8476C87.5671 33.9543 87.6087 34.0569 87.683 34.1337C87.7573 34.2105 87.8586 34.2555 87.9655 34.2592Z" fill="#332941"/>
<path d="M84.5117 37.6007C84.8616 37.7674 85.244 37.855 85.6317 37.8571C85.8125 37.8484 85.9882 37.7936 86.1418 37.6979C86.3101 37.5929 86.4671 37.4709 86.6103 37.3337C86.5488 37.5412 86.4302 37.7274 86.2681 37.871C86.1836 37.9464 86.0881 38.0085 85.9848 38.0551C85.827 38.116 85.6578 38.1422 85.4889 38.132C85.32 38.1218 85.1553 38.0754 85.006 37.9959C84.8123 37.9049 84.643 37.7694 84.5117 37.6007Z" fill="#332941"/>
<path d="M81.2326 24.6078C81.2326 24.6078 80.1663 19.9035 84.7781 20.8361C89.39 21.7687 86.7747 24.7472 86.7747 24.7472" fill="#fc4100"/>
<path d="M78.4359 62.3332C78.4087 62.3332 78.3821 62.325 78.3596 62.3097C78.3446 62.2997 78.3317 62.2868 78.3217 62.2718C78.3117 62.2569 78.3047 62.2401 78.3012 62.2224C78.2977 62.2047 78.2977 62.1866 78.3013 62.1689C78.3048 62.1512 78.3118 62.1344 78.3218 62.1195C78.6191 61.6765 78.4556 60.4145 78.3676 59.9654C78.3641 59.9477 78.3641 59.9295 78.3677 59.9119C78.3713 59.8942 78.3783 59.8774 78.3884 59.8624C78.4087 59.8322 78.4403 59.8113 78.476 59.8043C78.5118 59.7973 78.5489 59.8048 78.5792 59.8251C78.6094 59.8454 78.6304 59.8769 78.6374 59.9126C78.6513 59.9829 78.9713 61.6447 78.5503 62.2721C78.5377 62.2909 78.5207 62.3063 78.5007 62.317C78.4808 62.3276 78.4585 62.3332 78.4359 62.3332Z" fill="#332941"/>
<path d="M98.6076 66.6887C98.5817 66.6886 98.5564 66.6815 98.5343 66.668C98.5123 66.6546 98.4944 66.6353 98.4825 66.6124C98.3404 66.3366 98.0053 61.6344 97.9059 60.2001C97.9046 60.1821 97.9069 60.164 97.9126 60.147C97.9183 60.1299 97.9274 60.1141 97.9393 60.1005C97.9511 60.0869 97.9655 60.0758 97.9817 60.0677C97.9979 60.0597 98.0154 60.055 98.0335 60.0538C98.0515 60.0521 98.0697 60.0542 98.087 60.0598C98.1043 60.0653 98.1202 60.0743 98.1339 60.0862C98.1476 60.0981 98.1588 60.1126 98.1667 60.1289C98.1747 60.1452 98.1792 60.1629 98.1802 60.181C98.346 62.5749 98.6289 66.231 98.7291 66.4915C98.7395 66.5122 98.7444 66.5353 98.7434 66.5584C98.7424 66.5816 98.7355 66.6041 98.7233 66.6239C98.7111 66.6436 98.6941 66.6599 98.6739 66.6713C98.6536 66.6826 98.6308 66.6886 98.6076 66.6887V66.6887Z" fill="#332941"/>
<path d="M90.5134 84.3305C90.531 82.4201 90.3263 80.5141 89.9033 78.6508C89.1301 75.3322 87.6325 68.4312 86.7974 64.1128C85.1508 63.5702 83.4757 63.1179 81.7795 62.758H81.7763C80.2429 62.4356 79.0488 62.2565 78.4257 62.1783C78.1157 62.136 77.9461 62.1197 77.9461 62.1197C57.8749 42.7096 54.3971 47.3146 54.3971 47.3146C44.9944 51.1999 34.3554 77.6152 34.3554 77.6152L27.9053 78.7648C24.6297 79.4129 24.7765 81.1748 25.3475 82.4091C26.0631 83.9055 26.503 85.5184 26.646 87.1704C27.1191 93.5145 24.6526 93.3223 24.6526 93.3223C24.6526 93.3223 39.9897 96.0254 44.6519 92.7622C49.3141 89.5022 66.3837 88.8769 66.3837 88.8769C86.6016 89.8898 90.6504 87.5286 90.6504 87.5286C90.7875 87.4863 90.9212 87.4374 91.055 87.3853C90.6276 86.5418 90.5101 85.3694 90.5134 84.3305ZM53.3759 54.2971C53.6986 54.6787 54.1095 54.976 54.5733 55.1633C54.8043 55.2533 55.0453 55.3156 55.291 55.349C55.5401 55.3893 55.7924 55.4068 56.0447 55.4011C56.2992 55.3978 56.5536 55.3555 56.8146 55.3392C57.0691 55.2936 57.3236 55.2382 57.5879 55.1992C57.3464 55.3066 57.0985 55.3946 56.8473 55.4955C56.5895 55.5626 56.3281 55.6148 56.0643 55.6519C55.5185 55.7193 54.9646 55.6545 54.4493 55.463C53.9368 55.2554 53.4951 54.9049 53.1769 54.4534C52.8628 54.0166 52.6631 53.5083 52.5962 52.9748C52.7806 53.4558 53.0441 53.9027 53.3759 54.2971ZM27.7943 86.3334C27.6676 86.3288 27.5477 86.2753 27.4597 86.1842C27.3717 86.0931 27.3225 85.9715 27.3225 85.8449C27.3225 85.7184 27.3717 85.5967 27.4597 85.5056C27.5477 85.4145 27.6676 85.361 27.7943 85.3564C27.921 85.361 28.041 85.4145 28.129 85.5056C28.217 85.5967 28.2662 85.7184 28.2662 85.8449C28.2662 85.9715 28.217 86.0931 28.129 86.1842C28.041 86.2753 27.921 86.3288 27.7943 86.3334ZM27.3245 79.6506C27.4512 79.6552 27.5712 79.7087 27.6592 79.7998C27.7472 79.891 27.7964 80.0126 27.7964 80.1391C27.7964 80.2657 27.7472 80.3873 27.6592 80.4784C27.5712 80.5695 27.4512 80.623 27.3245 80.6276C27.1978 80.623 27.0779 80.5695 26.9899 80.4784C26.9019 80.3873 26.8527 80.2657 26.8527 80.1391C26.8527 80.0126 26.9019 79.891 26.9899 79.7998C27.0779 79.7087 27.1978 79.6552 27.3245 79.6506ZM27.0113 82.3081C27.138 82.3127 27.258 82.3662 27.346 82.4573C27.434 82.5484 27.4832 82.6701 27.4832 82.7966C27.4832 82.9232 27.434 83.0448 27.346 83.1359C27.258 83.227 27.138 83.2805 27.0113 83.2851C26.8846 83.2805 26.7647 83.227 26.6767 83.1359C26.5887 83.0448 26.5395 82.9232 26.5395 82.7966C26.5395 82.6701 26.5887 82.5484 26.6767 82.4573C26.7647 82.3662 26.8847 82.3127 27.0114 82.3081H27.0113ZM27.2462 92.8208C27.1195 92.8162 26.9996 92.7627 26.9116 92.6716C26.8236 92.5805 26.7744 92.4589 26.7744 92.3323C26.7744 92.2057 26.8236 92.0841 26.9116 91.993C26.9996 91.9019 27.1195 91.8484 27.2462 91.8438C27.3729 91.8484 27.4929 91.9019 27.5809 91.993C27.6689 92.0841 27.7181 92.2057 27.7181 92.3323C27.7181 92.4589 27.6689 92.5805 27.5809 92.6716C27.4929 92.7627 27.373 92.8162 27.2463 92.8208H27.2462ZM28.1075 89.8507C27.9808 89.8461 27.8608 89.7926 27.7728 89.7015C27.6848 89.6104 27.6357 89.4887 27.6357 89.3622C27.6357 89.2356 27.6848 89.114 27.7728 89.0229C27.8608 88.9318 27.9808 88.8783 28.1075 88.8737C28.2342 88.8783 28.3542 88.9318 28.4422 89.0229C28.5302 89.114 28.5793 89.2356 28.5794 89.3622C28.5794 89.4887 28.5302 89.6103 28.4422 89.7015C28.3542 89.7926 28.2342 89.8461 28.1075 89.8507H28.1075ZM67.7115 71.3199C67.5321 71.333 67.3559 71.3623 67.1764 71.3851C66.8209 71.4307 66.4685 71.4893 66.1128 71.5447C65.4049 71.6619 64.6969 71.7856 63.9889 71.9159C62.5763 72.1699 61.1647 72.4359 59.7541 72.7138L51.2944 74.365L42.8281 76.0129L38.5966 76.8271L34.3553 77.6184C37.1578 76.9703 39.9669 76.3646 42.7792 75.7686C45.5915 75.1759 48.4103 74.6125 51.2291 74.0458C54.0545 73.5085 56.8766 72.9613 59.7085 72.4663C60.883 72.2644 62.0597 72.0679 63.2385 71.8768C63.0594 71.7783 62.8947 71.6555 62.7492 71.5121C62.5599 71.3427 62.3838 71.1604 62.2108 70.9747C61.8748 70.5969 61.5583 70.1996 61.2517 69.8023C60.6351 69.0012 60.0674 68.1642 59.516 67.3239C58.9712 66.4772 58.4361 65.6207 57.9337 64.7479C57.4312 63.8751 56.9386 62.999 56.4883 62.0969L57.3268 63.3507L58.149 64.6176L59.79 67.1448C60.3349 67.9883 60.8895 68.8253 61.4539 69.6558C61.7378 70.0694 62.0281 70.4764 62.3349 70.8705C62.4837 71.0727 62.6426 71.2673 62.8112 71.4535C62.9473 71.61 63.1005 71.7509 63.2679 71.8736C63.4996 71.8345 63.7312 71.7954 63.9629 71.7596C64.6741 71.6521 65.3864 71.5522 66.0998 71.46C66.7172 71.371 67.3392 71.3177 67.9627 71.3004L67.7115 71.3199Z" fill="#332941"/>
<path d="M96.8024 83.3924C96.4349 82.2224 96.1424 80.4419 96.0633 77.5504C95.9308 72.8802 95.6459 69.0083 95.5266 67.5388C96.8639 67.515 97.9461 67.2228 98.6046 66.5493C98.6046 66.5493 102.027 76.8469 96.8024 83.3924Z" fill="#332941"/>
<path d="M67.9802 71.2964L67.9612 71.2982C68.058 71.2982 68.1547 71.2944 68.2516 71.2995L67.9802 71.2964Z" fill="white"/>
<path d="M95.0523 57.9025C95.1824 59.5395 95.2874 61.1776 95.4032 62.8142L95.5573 65.2701C95.6109 66.0886 95.6494 66.9081 95.7369 67.7228C96.018 70.9975 96.208 74.2781 96.3072 77.5646C96.323 79.1926 96.4774 80.8162 96.7687 82.4181C96.907 83.2067 97.1748 83.967 97.5613 84.6685C97.7677 85.0074 98.0129 85.3212 98.292 85.6035C98.5804 85.8932 98.8741 86.1793 99.1699 86.4626C100.336 87.6128 101.589 88.6718 102.918 89.63C103.581 90.0952 104.344 90.4318 105.014 90.9264C105.36 91.163 105.676 91.4397 105.956 91.7508C106.108 91.9168 106.207 92.1243 106.239 92.3467C106.247 92.4725 106.206 92.5964 106.125 92.6928C106.082 92.734 106.036 92.7724 105.988 92.8077L105.838 92.8878L105.893 92.8155C105.873 92.9866 105.801 93.1474 105.687 93.2766C105.62 93.3446 105.532 93.3889 105.437 93.4028C105.346 93.4135 105.255 93.4032 105.17 93.3727L105.29 93.3129C105.237 93.4662 105.169 93.6134 105.085 93.7524C105.003 93.8964 104.895 94.0247 104.768 94.1314C104.631 94.2467 104.46 94.3116 104.281 94.3151C104.106 94.3076 103.937 94.252 103.792 94.1544L103.948 94.0856C103.91 94.2682 103.842 94.443 103.745 94.6022C103.648 94.7676 103.509 94.9046 103.342 94.9995C103.172 95.0918 102.979 95.1357 102.785 95.1265C102.6 95.1157 102.417 95.0767 102.244 95.0109C102.233 95.0075 102.224 95.0022 102.215 94.9952L102.209 94.9906C100.613 93.6869 99.0137 92.3854 97.4044 91.1005L96.8 90.6247C96.7129 90.5493 96.6168 90.4849 96.5139 90.4331C96.4072 90.3812 96.2971 90.3368 96.1843 90.3001C95.9731 90.2178 95.7463 90.1826 95.52 90.1969C95.2937 90.2113 95.0733 90.2748 94.8741 90.3831C94.5012 90.6597 94.239 91.0598 94.1345 91.5118C93.9982 92.0421 93.7606 92.5412 93.4348 92.9816C93.256 93.2227 93.0211 93.4167 92.7503 93.5468C92.4795 93.6769 92.1811 93.7393 91.8808 93.7284C91.8384 93.7258 91.7964 93.7196 91.7551 93.7099C91.7311 93.7058 91.7075 93.6999 91.6845 93.6921L91.6426 93.6771L91.6219 93.669C91.6065 93.6632 91.592 93.6553 91.5787 93.6457C91.5319 93.6145 91.4932 93.5725 91.4659 93.5234C91.4664 93.5261 91.4717 93.5346 91.4645 93.5222L91.4344 93.4675C91.4148 93.428 91.3978 93.3873 91.3835 93.3457C91.3369 93.1994 91.3111 93.0474 91.3068 92.894C91.2996 92.6193 91.3187 92.3444 91.3637 92.0732C91.4067 91.8014 91.4578 91.5654 91.4868 91.3186C91.5168 91.0728 91.5337 90.8257 91.5373 90.5781C91.5443 90.084 91.4941 89.5908 91.3878 89.1081C91.2816 88.6263 91.1169 88.1593 90.8971 87.7175C90.7719 87.4788 90.6637 87.2317 90.5732 86.9779C90.4864 86.721 90.419 86.458 90.3715 86.191C90.2806 85.6677 90.2327 85.1379 90.2283 84.6069C90.2261 84.0803 90.2259 83.583 90.2032 83.0702C90.1639 82.0528 90.0607 81.0389 89.8943 80.0344C89.7308 79.0355 89.4662 78.0401 89.2469 77.0313C88.8027 75.0194 88.3711 73.0047 87.9522 70.9871C87.5317 68.9699 87.1467 66.9452 86.7972 64.9131C86.6204 63.8977 86.4613 62.8788 86.3286 61.8559C86.2616 61.3446 86.2016 60.8322 86.1563 60.318C86.1021 59.8036 86.0864 59.2859 86.1094 58.7692C86.1096 58.7656 86.1105 58.7621 86.1121 58.7589C86.1137 58.7556 86.1159 58.7527 86.1186 58.7504C86.1214 58.748 86.1245 58.7462 86.1279 58.745C86.1313 58.7438 86.135 58.7434 86.1386 58.7436C86.1457 58.7443 86.1524 58.7477 86.1571 58.7531C86.1619 58.7585 86.1644 58.7655 86.1642 58.7727C86.1623 59.2856 86.1987 59.7979 86.273 60.3054C86.3387 60.8149 86.419 61.3226 86.5063 61.8293C86.6821 62.8423 86.8797 63.8518 87.0796 64.8608C87.4822 66.8782 87.9396 68.8852 88.3834 70.8946C88.8342 72.9027 89.2996 74.9076 89.7796 76.9093C90.0062 77.9104 90.272 78.9079 90.447 79.9412C90.621 80.9682 90.7304 82.0051 90.7745 83.0458C90.7995 83.5616 90.8018 84.0941 90.8057 84.597C90.8115 85.096 90.858 85.5936 90.9449 86.0851C90.9887 86.325 91.0481 86.5618 91.1228 86.794C91.2033 87.0261 91.3003 87.2521 91.4131 87.4703C91.6475 87.9542 91.822 88.4647 91.9328 88.9907C92.0433 89.5156 92.0927 90.0516 92.08 90.5879C92.0737 90.8551 92.0529 91.1218 92.0178 91.3868C91.9842 91.6513 91.9245 91.9188 91.8854 92.155C91.8435 92.3916 91.824 92.6315 91.827 92.8717C91.8283 92.9761 91.8439 93.0797 91.8731 93.1799C91.8795 93.1992 91.887 93.2181 91.8957 93.2365L91.9119 93.2664L91.9338 93.3075C91.92 93.2691 91.8938 93.2364 91.8593 93.2145C91.8355 93.2008 91.8332 93.2011 91.8374 93.2021L91.8395 93.2021L91.8431 93.2033C91.8417 93.2048 91.858 93.2067 91.8661 93.2087C91.8875 93.2143 91.9094 93.2175 91.9315 93.2185C92.1484 93.2227 92.3631 93.1747 92.5576 93.0786C92.752 92.9826 92.9205 92.8413 93.0488 92.6666C93.3386 92.2778 93.5528 91.8383 93.6804 91.3707C93.825 90.8136 94.1655 90.327 94.6399 89.9999C94.8968 89.8511 95.1872 89.7692 95.4841 89.7617C95.7681 89.7572 96.0506 89.8036 96.3182 89.8986C96.4499 89.9437 96.5783 89.9981 96.7024 90.0613C96.8288 90.1275 96.9469 90.2084 97.0543 90.3023L97.6525 90.7979L102.366 94.8041L102.332 94.7839C102.48 94.844 102.636 94.8813 102.796 94.8948C102.948 94.9059 103.1 94.8752 103.236 94.8061C103.372 94.732 103.486 94.6234 103.567 94.4911C103.652 94.357 103.713 94.209 103.748 94.0539C103.751 94.0379 103.758 94.0229 103.769 94.0102C103.779 93.9975 103.792 93.9873 103.807 93.9805C103.822 93.9737 103.838 93.9705 103.854 93.971C103.871 93.9716 103.887 93.9759 103.901 93.9837L103.904 93.9851C104.016 94.0623 104.147 94.1076 104.282 94.1163C104.415 94.1138 104.544 94.0655 104.645 93.9795C104.861 93.7828 105.022 93.5332 105.111 93.2554L105.113 93.2519C105.121 93.2288 105.138 93.21 105.161 93.1995C105.183 93.189 105.209 93.1876 105.232 93.1957C105.285 93.2204 105.344 93.2288 105.402 93.2201C105.46 93.2113 105.514 93.1857 105.557 93.1464C105.642 93.0467 105.697 92.9241 105.714 92.7938L105.714 92.7891C105.717 92.7742 105.723 92.7601 105.733 92.7482C105.742 92.7364 105.754 92.7272 105.769 92.7215C105.944 92.6506 106.083 92.5244 106.064 92.3542C106.033 92.1694 105.95 91.9973 105.824 91.8585C105.557 91.5553 105.252 91.2887 104.916 91.0655C104.256 90.5886 103.496 90.2636 102.807 89.7932C102.119 89.3329 101.474 88.8169 100.836 88.2963C100.198 87.7741 99.5772 87.2329 98.9664 86.6804C98.6612 86.4037 98.3586 86.1247 98.0595 85.8402C97.7523 85.546 97.4808 85.2167 97.2505 84.8593C96.8221 84.1312 96.5174 83.3373 96.3488 82.5098C96.0208 80.8858 95.844 79.2349 95.8207 77.5784C95.7271 74.3014 95.5778 71.0244 95.3479 67.7534C95.1701 64.4713 95.0854 61.1874 94.9973 57.9052C94.9971 57.8981 94.9998 57.8911 95.0046 57.8858C95.0095 57.8806 95.0163 57.8774 95.0235 57.877C95.0306 57.8767 95.0377 57.8792 95.0431 57.8839C95.0484 57.8887 95.0517 57.8953 95.0523 57.9025V57.9025Z" fill="#332941"/>
<path d="M99.0566 90.3309L103.932 93.96C103.947 93.9708 103.959 93.9843 103.968 93.9998C103.978 94.0153 103.984 94.0324 103.986 94.0503C103.989 94.0681 103.988 94.0863 103.984 94.1038C103.979 94.1213 103.971 94.1378 103.961 94.1522C103.95 94.1667 103.936 94.1789 103.921 94.1881C103.905 94.1973 103.888 94.2034 103.87 94.206C103.852 94.2086 103.834 94.2076 103.816 94.2032C103.799 94.1987 103.783 94.1909 103.768 94.1801L103.763 94.1763L99.0566 90.3309Z" fill="#332941"/>
<path d="M100.439 89.6759L105.284 93.174C105.314 93.1954 105.333 93.2276 105.339 93.2635C105.345 93.2994 105.336 93.3362 105.315 93.3657C105.294 93.3952 105.261 93.415 105.225 93.4208C105.189 93.4266 105.152 93.4178 105.123 93.3965L105.118 93.3927L100.439 89.6759Z" fill="#332941"/>
<path d="M101.953 89.7673L105.888 92.6972C105.917 92.719 105.937 92.7515 105.942 92.7874C105.947 92.8233 105.938 92.8598 105.916 92.8889C105.894 92.9179 105.862 92.9373 105.826 92.9426C105.79 92.9479 105.753 92.9388 105.724 92.9173L105.718 92.9125L101.953 89.7673Z" fill="#332941"/>
<path d="M25.2486 80.2752C23.4514 80.7354 21.6245 81.0706 19.7809 81.2784C17.9353 81.4919 16.0788 81.5978 14.2209 81.5955C12.3599 81.5848 10.503 81.4226 8.6685 81.1106L7.29992 80.8419C6.84304 80.7583 6.39858 80.6141 5.94807 80.5032C5.04354 80.2905 4.17207 79.9627 3.2885 79.6812L3.27838 79.6769L3.27504 79.6751C2.97981 79.512 2.67327 79.3702 2.35777 79.2507C2.04639 79.1311 1.71912 79.0577 1.38641 79.0329C1.23615 79.0045 1.0807 79.0267 0.944475 79.0961C0.808253 79.1655 0.69899 79.2781 0.633863 79.4162C0.551508 79.7286 0.558403 80.0578 0.653766 80.3664C0.656408 80.3775 0.657136 80.3889 0.655916 80.4002L0.655279 80.4061C0.62441 80.6382 0.644163 80.8743 0.713186 81.0981C0.745759 81.1992 0.802007 81.2911 0.877268 81.3662C0.954513 81.4306 1.0479 81.4727 1.14737 81.488C1.18182 81.4946 1.21226 81.5145 1.23199 81.5434C1.25173 81.5724 1.25913 81.608 1.25259 81.6423L1.25219 81.6441L1.25154 81.6475C1.22914 81.7606 1.2218 81.8762 1.22971 81.9912C1.23647 82.1037 1.26238 82.2143 1.30634 82.3182C1.34804 82.4171 1.41298 82.5045 1.49567 82.573C1.57994 82.6424 1.67639 82.6956 1.78011 82.7298C1.81685 82.7444 1.84702 82.7718 1.86499 82.807C1.88296 82.8422 1.8875 82.8827 1.87776 82.9209L1.87569 82.9292C1.85783 83.0091 1.86331 83.0925 1.89146 83.1694C1.92303 83.2492 1.97751 83.3179 2.04806 83.367C2.21978 83.4786 2.41622 83.5466 2.62028 83.5651C2.66025 83.571 2.69712 83.59 2.72511 83.6191C2.7531 83.6481 2.7706 83.6857 2.77488 83.7258L2.77656 83.7421C2.79902 83.9759 2.90653 84.1934 3.07875 84.3534C3.16837 84.4279 3.27163 84.4843 3.38279 84.5195C3.52792 84.571 3.66857 84.6343 3.80335 84.7087C4.27817 84.9954 4.78479 85.2259 5.31299 85.3956C5.83666 85.5656 6.37782 85.6761 6.92625 85.7252C7.51091 85.7591 8.09077 85.8507 8.65733 85.9987C9.23096 86.1596 9.77907 86.4003 10.2856 86.7137C10.8011 87.02 11.266 87.4041 11.664 87.8522L11.9399 88.1799C12.0256 88.2861 12.1168 88.3876 12.2132 88.4842C12.402 88.6823 12.6015 88.8699 12.8108 89.0462C13.2318 89.3965 13.6867 89.704 14.1688 89.9642C14.6508 90.2177 15.163 90.4096 15.6932 90.5352C16.2198 90.6547 16.7621 90.69 17.2999 90.6397C17.4334 90.625 17.566 90.6028 17.697 90.5732C17.8303 90.5541 17.9612 90.5211 18.0875 90.4746C18.2148 90.4311 18.3443 90.3924 18.4707 90.3457L18.8353 90.1684C18.9588 90.112 19.0763 90.0434 19.186 89.9637L19.5281 89.7383C19.7667 89.5744 19.9951 89.3946 20.2418 89.2445C22.2019 88.0468 24.3493 87.1855 26.5947 86.6964C26.6018 86.6948 26.6092 86.696 26.6154 86.6998C26.6216 86.7037 26.626 86.7098 26.6277 86.7169C26.629 86.7239 26.6277 86.7311 26.624 86.7372C26.6203 86.7433 26.6144 86.7478 26.6076 86.7497C25.5202 87.0758 24.4567 87.4765 23.4246 87.9489C22.3922 88.4036 21.4046 88.9534 20.4746 89.5913C20.2388 89.7434 20.0242 89.9231 19.7982 90.0871L19.4349 90.3421C19.3164 90.4322 19.1896 90.5109 19.0562 90.5771L18.6583 90.7834C18.5199 90.8395 18.3775 90.8872 18.2368 90.9391C18.0971 90.9939 17.9523 91.0348 17.8045 91.0611C17.6589 91.0979 17.5113 91.1266 17.3626 91.1471C16.7669 91.2224 16.1629 91.1983 15.5752 91.0756C14.9947 90.9464 14.433 90.7443 13.9034 90.4741C13.1134 90.0687 12.3982 89.5323 11.7883 88.8876C11.6841 88.7826 11.5854 88.6723 11.4925 88.5572L11.2197 88.2318C10.492 87.4217 9.55478 86.8274 8.51085 86.5144C7.97716 86.3667 7.43007 86.2723 6.87767 86.2327C6.29151 86.1735 5.71469 86.0437 5.15975 85.8461C4.60799 85.6522 4.08047 85.3954 3.58765 85.0808C3.47488 85.0147 3.35687 84.9579 3.2348 84.911C3.07598 84.8542 2.93002 84.7666 2.8054 84.6531C2.56242 84.4151 2.41946 84.0936 2.40563 83.7541L2.5619 83.931C2.43597 83.9074 2.31198 83.8744 2.19095 83.8324C2.06208 83.7865 1.94172 83.7195 1.83475 83.6343C1.71707 83.5418 1.62892 83.4172 1.58106 83.2755C1.53307 83.1294 1.5326 82.9719 1.5797 82.8255L1.67521 83.0248C1.53592 82.9724 1.40764 82.8945 1.29694 82.7951C1.18472 82.694 1.09792 82.568 1.04357 82.4272C0.991519 82.2921 0.962966 82.1491 0.959136 82.0044C0.954236 81.8623 0.968948 81.7202 1.00285 81.5822L1.10695 81.7415C0.957948 81.7139 0.819833 81.6447 0.708616 81.542C0.608117 81.4369 0.534557 81.3092 0.494198 81.1696C0.423 80.9105 0.408897 80.639 0.452859 80.3739L0.454288 80.4134C0.352616 80.0646 0.353141 79.6941 0.455801 79.3456C0.490915 79.2545 0.543922 79.1713 0.611699 79.101C0.679477 79.0306 0.760662 78.9745 0.850481 78.9359C1.02305 78.8677 1.20904 78.8401 1.39402 78.8552C1.74412 78.8852 2.08791 78.9663 2.41444 79.0959C2.74084 79.2129 3.05838 79.3532 3.3646 79.5157L3.3513 79.5095C5.0966 80.099 6.89662 80.5126 8.72445 80.7441C10.55 80.9671 12.3866 81.0894 14.2257 81.1103C16.0656 81.1432 17.9064 81.055 19.7441 80.9137C20.663 80.8399 21.5801 80.7441 22.4955 80.6266C23.413 80.5232 24.3253 80.378 25.2358 80.2218C25.2393 80.2211 25.243 80.221 25.2465 80.2217C25.2501 80.2223 25.2535 80.2237 25.2565 80.2257C25.2595 80.2276 25.2621 80.2302 25.2642 80.2332C25.2662 80.2361 25.2676 80.2395 25.2684 80.243C25.2696 80.2499 25.2682 80.2569 25.2646 80.2628C25.2609 80.2688 25.2552 80.2731 25.2486 80.2752Z" fill="#332941"/>
<path d="M0.539155 80.2539C0.867072 80.2428 1.19535 80.2483 1.5227 80.2705C1.84883 80.2869 2.17201 80.3404 2.48592 80.4302C2.16677 80.386 1.84358 80.3784 1.5227 80.4077C1.2034 80.4312 0.885494 80.4709 0.570219 80.5266L0.567671 80.527C0.549803 80.5303 0.531475 80.5299 0.513736 80.526C0.495998 80.5222 0.479197 80.5149 0.464302 80.5045C0.449408 80.4941 0.436712 80.4809 0.426941 80.4657C0.41717 80.4504 0.410518 80.4333 0.407366 80.4155C0.404215 80.3976 0.404626 80.3793 0.408576 80.3616C0.412526 80.3439 0.419934 80.3272 0.430381 80.3124C0.440828 80.2976 0.454105 80.2849 0.46945 80.2752C0.484795 80.2656 0.501905 80.259 0.5198 80.2559C0.526201 80.2548 0.532666 80.2542 0.539155 80.2539Z" fill="#332941"/>
<path d="M1.08401 81.4844C1.3715 81.4191 1.66527 81.3853 1.9601 81.3836C2.25157 81.3742 2.54141 81.4305 2.80815 81.5481C2.53469 81.476 2.24843 81.4665 1.97077 81.5204C1.69668 81.5663 1.42834 81.6416 1.17043 81.7449L1.16589 81.7467C1.14907 81.7535 1.13108 81.7569 1.11294 81.7567C1.09481 81.7565 1.0769 81.7527 1.06022 81.7456C1.04354 81.7385 1.02843 81.7282 1.01574 81.7153C1.00305 81.7024 0.99304 81.6871 0.986278 81.6703C0.979515 81.6535 0.976135 81.6355 0.976326 81.6174C0.976517 81.5993 0.980277 81.5814 0.987393 81.5648C0.994508 81.5481 1.00484 81.533 1.01779 81.5204C1.03075 81.5077 1.04608 81.4977 1.0629 81.491C1.06976 81.4882 1.07682 81.486 1.08401 81.4844Z" fill="#332941"/>
<path d="M1.68184 82.7479C1.93118 82.6854 2.18525 82.6434 2.44148 82.6224C2.56929 82.6117 2.69778 82.6118 2.82556 82.6228C2.95383 82.6282 3.07853 82.6665 3.18758 82.7342C3.07244 82.6887 2.94743 82.674 2.82485 82.6914C2.70286 82.7033 2.5821 82.7255 2.46387 82.7578C2.22776 82.8217 1.99727 82.9048 1.77472 83.0063L1.77217 83.0074C1.73881 83.0225 1.70079 83.0238 1.66649 83.0109C1.63219 82.9981 1.60441 82.9721 1.58926 82.9388C1.57411 82.9055 1.57284 82.8676 1.58572 82.8333C1.59861 82.7991 1.62458 82.7713 1.65795 82.7562C1.66567 82.7528 1.67366 82.75 1.68184 82.7479Z" fill="#332941"/>
<path d="M2.47678 83.6715C2.57277 83.5737 2.69676 83.5079 2.83171 83.4833C2.9441 83.4573 3.05901 83.4437 3.17437 83.4427C3.39531 83.4421 3.61569 83.4649 3.83182 83.5107C3.61638 83.5109 3.40156 83.5337 3.19094 83.579C3.09054 83.6011 2.99289 83.6342 2.89974 83.6776C2.82374 83.7086 2.75704 83.7587 2.7061 83.8229C2.69907 83.8428 2.68769 83.8608 2.67279 83.8757C2.65789 83.8906 2.63985 83.9019 2.61998 83.909C2.60011 83.916 2.57892 83.9185 2.55796 83.9163C2.53699 83.9141 2.51679 83.9073 2.49881 83.8963C2.48083 83.8853 2.46553 83.8705 2.45404 83.8528C2.44254 83.8352 2.43514 83.8152 2.43238 83.7944C2.42961 83.7735 2.43155 83.7523 2.43805 83.7323C2.44454 83.7122 2.45544 83.6939 2.46993 83.6787L2.47678 83.6715Z" fill="#332941"/>
<path d="M19.6658 86.6602C20.0048 86.7618 20.3544 86.8246 20.7077 86.8474C20.8739 86.8512 21.0396 86.8298 21.1994 86.784C21.3693 86.7294 21.5324 86.6556 21.6855 86.5641C21.5979 86.7409 21.4577 86.8865 21.2841 86.9808C21.1058 87.0771 20.9056 87.1256 20.7029 87.1216C20.506 87.1148 20.3123 87.07 20.1324 86.9897C19.9548 86.9148 19.7956 86.8024 19.6658 86.6602Z" fill="#332941"/>
<path d="M59.6107 39.9437L60.3627 43.4363L59.3443 40.0116C59.3339 39.9767 59.3379 39.9391 59.3553 39.9071C59.3726 39.8751 59.4021 39.8513 59.437 39.8409C59.472 39.8305 59.5097 39.8345 59.5418 39.8518C59.5738 39.8692 59.5977 39.8986 59.6081 39.9335L59.6107 39.9437Z" fill="#332941"/>
<path d="M62.499 28.9845C62.0939 28.9845 61.307 28.8315 60.8276 27.7441C60.8131 27.7108 60.8123 27.6732 60.8256 27.6393C60.8388 27.6055 60.865 27.5783 60.8982 27.5636C60.9315 27.549 60.9693 27.5481 61.0032 27.5612C61.0372 27.5743 61.0645 27.6003 61.0793 27.6335C61.5569 28.717 62.3418 28.7332 62.6051 28.7081L63.3766 23.8682C63.3089 23.7632 63.2166 23.6762 63.1077 23.6147C62.9988 23.5532 62.8766 23.5191 62.7515 23.5152C62.3208 23.5476 61.9936 24.1232 61.9904 24.129C61.9816 24.1447 61.9698 24.1586 61.9556 24.1698C61.9415 24.181 61.9253 24.1893 61.9079 24.1942C61.8905 24.1991 61.8724 24.2006 61.8544 24.1985C61.8365 24.1964 61.8191 24.1909 61.8034 24.1821C61.7876 24.1733 61.7737 24.1615 61.7625 24.1474C61.7513 24.1333 61.743 24.1171 61.738 24.0997C61.7331 24.0824 61.7316 24.0643 61.7337 24.0464C61.7358 24.0285 61.7414 24.0111 61.7502 23.9954C61.7662 23.9665 62.1515 23.2858 62.7299 23.2416C62.9107 23.2414 63.0886 23.2876 63.2463 23.3758C63.4041 23.464 63.5364 23.5913 63.6306 23.7454C63.6421 23.7603 63.6504 23.7774 63.6551 23.7956C63.6598 23.8138 63.6606 23.8328 63.6577 23.8513L62.861 28.8493C62.8568 28.876 62.8447 28.9009 62.8263 28.9208C62.808 28.9406 62.7841 28.9546 62.7577 28.9609C62.6726 28.9779 62.5859 28.9857 62.499 28.9845Z" fill="#332941"/>
<path d="M85.7551 58.9431C85.7236 58.9431 85.6931 58.9323 85.6686 58.9125C85.6442 58.8927 85.6273 58.8651 85.6208 58.8343C85.6208 58.8343 85.5619 58.5548 85.469 58.0688C85.4622 58.033 85.4698 57.996 85.4903 57.9659C85.5108 57.9358 85.5425 57.915 85.5783 57.9082C85.6141 57.9013 85.6512 57.909 85.6814 57.9295C85.7115 57.9499 85.7323 57.9815 85.7392 58.0173C85.7957 58.3134 85.8395 58.5325 85.865 58.6575L95.3653 57.7304C95.3833 57.7281 95.4016 57.7295 95.4191 57.7345C95.4366 57.7395 95.4529 57.748 95.467 57.7596C95.481 57.7711 95.4926 57.7854 95.5009 57.8015C95.5093 57.8177 95.5142 57.8354 95.5155 57.8535C95.519 57.8897 95.508 57.9258 95.4848 57.9539C95.4617 57.982 95.4283 57.9998 95.392 58.0033L85.7686 58.9425C85.7642 58.943 85.7596 58.9432 85.7551 58.9431Z" fill="#332941"/>
<path d="M92.602 24.879C92.604 24.9816 92.6304 25.0823 92.6791 25.1727C92.7278 25.2631 92.7974 25.3406 92.882 25.3989C93.0511 25.5148 93.2383 25.6018 93.436 25.6562C93.8294 25.7658 94.243 25.8679 94.6357 25.9674C94.8272 26.0274 95.0292 26.0461 95.2284 26.0224C95.4277 25.9986 95.6196 25.9329 95.7915 25.8296C95.9572 25.7171 96.0877 25.5602 96.168 25.377C96.2483 25.1937 96.2751 24.9916 96.2454 24.7938C96.1995 24.6258 96.0354 24.5385 95.8505 24.4645C95.6655 24.392 95.4607 24.3378 95.2583 24.2653C95.0496 24.1957 94.8468 24.1097 94.6518 24.008C94.5523 23.9548 94.4567 23.8945 94.3658 23.8276C94.2829 23.7779 94.2067 23.7171 94.1233 23.6781C93.9673 23.5872 93.7857 23.5501 93.6065 23.5724C93.4273 23.5948 93.2605 23.6754 93.1318 23.8018C92.8199 24.0772 92.6295 24.4643 92.602 24.879ZM92.5693 24.879C92.5815 24.4407 92.7222 24.0156 92.974 23.6564C93.1155 23.4584 93.324 23.3181 93.561 23.2616C93.8053 23.2143 94.0584 23.2516 94.2786 23.3673C94.3814 23.4212 94.4802 23.4822 94.5745 23.5498C94.6546 23.606 94.7347 23.6621 94.8201 23.713C94.9948 23.8158 95.1774 23.9046 95.3662 23.9785C95.5587 24.0559 95.7579 24.1288 95.9583 24.2296C96.0647 24.2797 96.1625 24.3461 96.2482 24.4266C96.3402 24.5161 96.4008 24.6329 96.4207 24.7596C96.4261 24.9835 96.3775 25.2053 96.2788 25.4064C96.1802 25.6074 96.0345 25.7818 95.854 25.9148C95.6747 26.0486 95.4707 26.1458 95.2537 26.2006C95.0367 26.2555 94.8109 26.267 94.5894 26.2345C94.1598 26.174 93.7433 26.0423 93.3571 25.8449C93.1602 25.7466 92.9805 25.6174 92.8249 25.4621C92.6664 25.3087 92.5747 25.0993 92.5693 24.879Z" fill="#332941"/>
<path d="M95.5685 18.2211C95.5722 18.3973 95.6161 18.5702 95.6969 18.7269C95.7777 18.8835 95.8934 19.0196 96.0349 19.1248C96.3168 19.3352 96.6317 19.4974 96.9668 19.6048C97.633 19.8237 98.3321 20.0021 99.0127 20.1599C99.348 20.252 99.699 20.2731 100.043 20.222C100.387 20.1708 100.717 20.0485 101.011 19.8629C101.296 19.6643 101.522 19.3922 101.664 19.0756C101.807 18.7589 101.86 18.4095 101.82 18.0648C101.779 17.912 101.689 17.7765 101.565 17.6787C101.43 17.5798 101.282 17.4984 101.126 17.4365C100.807 17.3037 100.462 17.2053 100.122 17.0807C99.7753 16.961 99.4384 16.8142 99.1147 16.6414C98.9513 16.5519 98.7939 16.4517 98.6437 16.3415C98.5053 16.2455 98.3618 16.157 98.2139 16.0766C97.9313 15.9165 97.6043 15.8524 97.2821 15.8942C96.9566 15.9531 96.657 16.11 96.4235 16.3439C96.1724 16.5881 95.9697 16.8773 95.8259 17.1965C95.672 17.5173 95.5845 17.8658 95.5685 18.2211ZM95.5359 18.2211C95.5494 17.8598 95.6189 17.5027 95.7419 17.1626C95.8569 16.8123 96.0344 16.4857 96.2657 16.1984C96.5049 15.8892 96.8443 15.6725 97.2258 15.5857C97.6164 15.5152 98.0194 15.5787 98.3692 15.7658C98.5366 15.8543 98.698 15.9539 98.8523 16.0637C98.9925 16.1622 99.133 16.2602 99.283 16.3465C99.5864 16.5203 99.9031 16.6699 100.23 16.7939C100.56 16.9234 100.9 17.0405 101.234 17.2016C101.408 17.2803 101.569 17.3849 101.712 17.5119C101.86 17.6497 101.959 17.8317 101.995 18.0306C102.013 18.4015 101.938 18.7711 101.777 19.106C101.616 19.4408 101.374 19.7302 101.073 19.9481C100.772 20.1643 100.43 20.318 100.068 20.4002C99.7064 20.4825 99.3318 20.4916 98.9664 20.427C98.248 20.3109 97.5487 20.0978 96.8879 19.7935C96.5537 19.6422 96.2463 19.4377 95.9778 19.188C95.8425 19.0651 95.7335 18.916 95.6575 18.7498C95.5816 18.5836 95.5402 18.4037 95.5359 18.2211Z" fill="#332941"/>
<path d="M97.0204 9.25517C96.9208 9.50547 96.873 9.77327 96.8797 10.0425C96.8931 10.3112 96.9801 10.5712 97.1311 10.794C97.4482 11.2318 97.8663 11.5869 98.35 11.8291C99.3162 12.3209 100.325 12.7241 101.364 13.0337C102.399 13.3646 103.436 13.6935 104.467 14.0488C105.507 14.3858 106.492 14.8685 107.519 15.1827C108.538 15.5354 109.605 15.7277 110.683 15.7528C111.765 15.8037 112.827 15.4449 113.655 14.7481C114.052 14.3848 114.369 13.9434 114.587 13.4516C114.802 12.9573 114.947 12.4355 115.017 11.9013C115.158 10.8312 115.123 9.74543 114.916 8.68622C114.643 7.64524 114.203 6.65536 113.613 5.75521C113.033 4.84943 112.343 4.01951 111.557 3.28476C109.996 1.82765 107.936 0.841306 105.798 0.911196C104.73 0.929518 103.681 1.18556 102.725 1.66062C101.773 2.15492 100.925 2.82646 100.226 3.639C98.7955 5.26041 97.8424 7.25448 97.0204 9.25517ZM96.9901 9.24302C97.3872 8.23175 97.822 7.23453 98.3137 6.26333C98.7953 5.28207 99.3816 4.35561 100.063 3.5001C100.751 2.63241 101.609 1.91284 102.583 1.38474C103.574 0.870875 104.671 0.593854 105.787 0.57553C106.903 0.542475 108.012 0.760795 109.032 1.21427C110.043 1.66962 110.967 2.29415 111.767 3.06085C112.565 3.81949 113.257 4.68133 113.825 5.62339C114.409 6.5566 114.836 7.57824 115.09 8.64834C115.272 9.72982 115.285 10.8327 115.131 11.9183C115.007 13.0192 114.514 14.0459 113.732 14.8313C112.884 15.555 111.801 15.9469 110.686 15.9341C109.584 15.9421 108.488 15.7754 107.439 15.4403C106.913 15.2845 106.4 15.0866 105.892 14.888C105.39 14.6876 104.881 14.5027 104.372 14.3147C103.353 13.9419 102.318 13.6068 101.297 13.2269C100.263 12.8756 99.262 12.4324 98.307 11.9026C97.8233 11.6396 97.4057 11.2702 97.0857 10.8226C96.9331 10.5908 96.847 10.3218 96.8366 10.0446C96.8331 9.7698 96.8853 9.49713 96.9901 9.24302Z" fill="#332941"/>
<path d="M63.5777 40.2953C63.7046 40.2909 63.8247 40.2375 63.9129 40.1463C64.0011 40.0552 64.0504 39.9335 64.0504 39.8067C64.0504 39.68 64.0011 39.5583 63.9129 39.4671C63.8247 39.376 63.7046 39.3226 63.5777 39.3182C63.4508 39.3226 63.3306 39.376 63.2425 39.4671C63.1543 39.5583 63.105 39.68 63.105 39.8067C63.105 39.9335 63.1543 40.0552 63.2425 40.1463C63.3306 40.2375 63.4508 40.2909 63.5777 40.2953Z" fill="#332941"/>
<path d="M64.0477 42.562C64.1745 42.5576 64.2947 42.5042 64.3829 42.4131C64.4711 42.322 64.5204 42.2002 64.5204 42.0735C64.5204 41.9468 64.4711 41.825 64.3829 41.7339C64.2947 41.6428 64.1745 41.5894 64.0477 41.585C63.9208 41.5894 63.8006 41.6428 63.7124 41.7339C63.6242 41.825 63.575 41.9468 63.575 42.0735C63.575 42.2002 63.6242 42.322 63.7124 42.4131C63.8006 42.5042 63.9208 42.5576 64.0477 42.562Z" fill="#332941"/>
<path d="M64.4393 44.594C64.5661 44.5896 64.6863 44.5362 64.7745 44.4451C64.8627 44.354 64.912 44.2322 64.912 44.1055C64.912 43.9788 64.8627 43.8571 64.7745 43.7659C64.6863 43.6748 64.5661 43.6214 64.4393 43.617C64.3124 43.6214 64.1922 43.6748 64.104 43.7659C64.0158 43.8571 63.9666 43.9788 63.9666 44.1055C63.9666 44.2322 64.0158 44.354 64.104 44.4451C64.1922 44.5362 64.3124 44.5896 64.4393 44.594Z" fill="#332941"/>
<path d="M64.8306 46.3921C64.9575 46.3877 65.0777 46.3343 65.1659 46.2432C65.2541 46.1521 65.3033 46.0303 65.3033 45.9036C65.3033 45.7769 65.2541 45.6551 65.1659 45.564C65.0777 45.4729 64.9575 45.4195 64.8306 45.4151C64.7038 45.4195 64.5836 45.4729 64.4954 45.564C64.4072 45.6551 64.3579 45.7769 64.3579 45.9036C64.3579 46.0303 64.4072 46.1521 64.4954 46.2432C64.5836 46.3343 64.7038 46.3877 64.8306 46.3921Z" fill="#332941"/>
<path d="M86.5201 58.1172C86.6469 58.1128 86.7671 58.0594 86.8553 57.9683C86.9435 57.8772 86.9928 57.7554 86.9928 57.6287C86.9928 57.502 86.9435 57.3802 86.8553 57.2891C86.7671 57.198 86.6469 57.1446 86.5201 57.1402C86.3932 57.1446 86.273 57.198 86.1848 57.2891C86.0967 57.3802 86.0474 57.502 86.0474 57.6287C86.0474 57.7554 86.0967 57.8772 86.1848 57.9683C86.273 58.0594 86.3932 58.1128 86.5201 58.1172Z" fill="#332941"/>
<path d="M88.2425 57.8816C88.3693 57.8772 88.4895 57.8238 88.5777 57.7327C88.6659 57.6415 88.7152 57.5198 88.7152 57.393C88.7152 57.2663 88.6659 57.1446 88.5777 57.0535C88.4895 56.9623 88.3693 56.9089 88.2425 56.9045C88.1156 56.9089 87.9954 56.9623 87.9073 57.0535C87.8191 57.1446 87.7698 57.2663 87.7698 57.393C87.7698 57.5198 87.8191 57.6415 87.9073 57.7327C87.9954 57.8238 88.1156 57.8772 88.2425 57.8816Z" fill="#332941"/>
<path d="M90.2784 57.5703C90.4052 57.5659 90.5254 57.5125 90.6136 57.4214C90.7018 57.3303 90.7511 57.2085 90.7511 57.0818C90.7511 56.9551 90.7018 56.8333 90.6136 56.7422C90.5254 56.6511 90.4052 56.5977 90.2784 56.5933C90.1515 56.5977 90.0313 56.6511 89.9431 56.7422C89.855 56.8333 89.8057 56.9551 89.8057 57.0818C89.8057 57.2085 89.855 57.3303 89.9431 57.4214C90.0313 57.5125 90.1515 57.5659 90.2784 57.5703Z" fill="#332941"/>
<path d="M92.314 57.3355C92.4409 57.3311 92.5611 57.2778 92.6493 57.1866C92.7375 57.0955 92.7868 56.9737 92.7868 56.847C92.7868 56.7203 92.7375 56.5986 92.6493 56.5074C92.5611 56.4163 92.4409 56.3629 92.314 56.3585C92.1872 56.3629 92.067 56.4163 91.9788 56.5074C91.8906 56.5986 91.8413 56.7203 91.8413 56.847C91.8413 56.9737 91.8906 57.0955 91.9788 57.1866C92.067 57.2778 92.1872 57.3311 92.314 57.3355Z" fill="#332941"/>
<path d="M94.3504 57.0999C94.4773 57.0955 94.5975 57.0421 94.6856 56.951C94.7738 56.8598 94.8231 56.7381 94.8231 56.6114C94.8231 56.4847 94.7738 56.3629 94.6856 56.2718C94.5975 56.1806 94.4773 56.1273 94.3504 56.1229C94.2235 56.1273 94.1034 56.1806 94.0152 56.2718C93.927 56.3629 93.8777 56.4847 93.8777 56.6114C93.8777 56.7381 93.927 56.8598 94.0152 56.951C94.1034 57.0421 94.2235 57.0955 94.3504 57.0999Z" fill="#332941"/>
<path d="M79.1204 36.6999C79.2473 36.6955 79.3675 36.6421 79.4557 36.551C79.5439 36.4599 79.5932 36.3381 79.5932 36.2114C79.5932 36.0847 79.5439 35.9629 79.4557 35.8718C79.3675 35.7807 79.2473 35.7273 79.1204 35.7229C78.9936 35.7273 78.8734 35.7807 78.7852 35.8718C78.697 35.9629 78.6477 36.0847 78.6477 36.2114C78.6477 36.3381 78.697 36.4599 78.7852 36.551C78.8734 36.6421 78.9936 36.6955 79.1204 36.6999Z" fill="#332941"/>
<path d="M78.533 38.7715C78.6599 38.7671 78.7801 38.7137 78.8683 38.6226C78.9564 38.5314 79.0057 38.4097 79.0057 38.283C79.0057 38.1563 78.9564 38.0345 78.8683 37.9434C78.7801 37.8522 78.6599 37.7989 78.533 37.7945C78.4062 37.7989 78.286 37.8522 78.1978 37.9434C78.1096 38.0345 78.0603 38.1563 78.0603 38.283C78.0603 38.4097 78.1096 38.5314 78.1978 38.6226C78.286 38.7137 78.4062 38.7671 78.533 38.7715Z" fill="#332941"/>
<path d="M78.024 41.3891C78.1509 41.3847 78.271 41.3313 78.3592 41.2402C78.4474 41.149 78.4967 41.0273 78.4967 40.9006C78.4967 40.7738 78.4474 40.6521 78.3592 40.561C78.271 40.4698 78.1509 40.4164 78.024 40.412C77.8971 40.4164 77.7769 40.4698 77.6887 40.561C77.6006 40.6521 77.5513 40.7738 77.5513 40.9006C77.5513 41.0273 77.6006 41.149 77.6887 41.2402C77.7769 41.3313 77.8971 41.3847 78.024 41.3891Z" fill="#332941"/>
<path d="M77.8675 43.8906C77.9944 43.8862 78.1146 43.8328 78.2027 43.7417C78.2909 43.6505 78.3402 43.5288 78.3402 43.4021C78.3402 43.2754 78.2909 43.1536 78.2027 43.0625C78.1146 42.9714 77.9944 42.918 77.8675 42.9136C77.7406 42.918 77.6204 42.9714 77.5323 43.0625C77.4441 43.1536 77.3948 43.2754 77.3948 43.4021C77.3948 43.5288 77.4441 43.6505 77.5323 43.7417C77.6204 43.8328 77.7406 43.8862 77.8675 43.8906Z" fill="#332941"/>
<path d="M78.4554 46.3526C78.5822 46.3482 78.7024 46.2948 78.7906 46.2037C78.8788 46.1125 78.9281 45.9908 78.9281 45.8641C78.9281 45.7373 78.8788 45.6156 78.7906 45.5245C78.7024 45.4333 78.5822 45.3799 78.4554 45.3755C78.3285 45.3799 78.2083 45.4333 78.1201 45.5245C78.032 45.6156 77.9827 45.7373 77.9827 45.8641C77.9827 45.9908 78.032 46.1125 78.1201 46.2037C78.2083 46.2948 78.3285 46.3482 78.4554 46.3526Z" fill="#332941"/>
</svg>